{"glyphs":{"0":{"ha":894,"x_min":92,"x_max":806,"o":"m 465 849 q 727 733 649 849 q 803 422 806 617 q 755 194 803 294 q 625 37 707 93 q 443 -19 543 -19 q 242 42 321 -19 q 128 203 164 103 q 92 424 92 303 q 143 651 92 554 q 280 798 194 747 q 465 849 365 849 m 450 788 q 262 696 324 788 q 200 433 200 604 q 263 154 200 267 q 450 42 326 42 q 635 139 575 42 q 696 417 696 236 q 635 688 696 588 q 450 788 575 788 z "},"1":{"ha":629,"x_min":82,"x_max":579,"o":"m 285 63 l 285 724 q 153 689 251 714 q 99 675 89 672 l 89 729 q 245 793 150 749 q 363 857 340 838 l 390 847 l 389 61 l 579 47 l 579 0 l 82 0 l 82 47 l 285 63 z "},"2":{"ha":825,"x_min":96,"x_max":758,"o":"m 96 44 q 428 316 297 171 q 560 589 560 461 q 510 727 558 669 q 367 785 463 785 q 234 751 304 785 q 124 679 164 718 l 97 722 q 224 817 140 775 q 403 858 308 858 q 551 825 492 858 q 638 739 610 792 q 665 625 665 686 q 609 431 665 533 q 455 234 553 329 q 235 67 357 139 l 647 90 l 711 199 l 758 183 l 715 0 l 111 0 l 96 44 z "},"3":{"ha":724,"x_min":47,"x_max":646,"o":"m 338 861 q 515 806 440 861 q 589 640 589 751 q 556 531 589 588 q 469 431 522 475 q 358 371 415 388 q 572 313 499 376 q 646 146 646 249 q 590 -31 646 56 q 431 -171 533 -117 q 194 -225 328 -225 q 86 -215 139 -225 l 86 -156 q 169 -162 122 -162 q 356 -123 272 -162 q 486 -18 439 -83 q 533 121 533 47 q 478 274 533 221 q 297 326 424 328 l 256 321 l 179 304 l 179 382 q 395 468 313 406 q 478 607 478 531 q 428 742 478 699 q 297 785 378 785 q 172 761 225 785 q 78 703 119 738 l 47 754 q 160 827 85 793 q 338 861 236 861 z "},"4":{"ha":846,"x_min":51,"x_max":776,"o":"m 158 250 q 335 572 264 438 q 478 864 407 707 l 514 864 l 574 817 q 321 365 531 738 q 186 128 279 294 l 146 65 l 525 83 l 526 421 l 622 451 l 622 88 l 776 94 l 776 0 l 622 0 l 622 -256 l 525 -256 l 525 0 l 69 0 l 51 56 l 158 250 z "},"5":{"ha":728,"x_min":88,"x_max":643,"o":"m 96 -176 q 142 -179 111 -179 q 327 -133 236 -179 q 476 -8 418 -86 q 533 163 533 71 q 470 346 533 286 q 300 406 407 406 q 104 367 210 406 l 88 385 l 142 839 l 501 839 l 521 850 l 588 850 l 561 747 l 222 747 l 172 428 q 353 471 263 471 q 498 438 432 471 q 603 338 564 404 q 643 175 643 271 q 579 -15 643 82 q 406 -174 515 -111 q 164 -237 296 -237 q 93 -229 124 -237 l 96 -176 z "},"6":{"ha":842,"x_min":88,"x_max":767,"o":"m 689 993 q 427 856 536 944 q 261 660 318 768 q 200 446 204 553 q 251 160 193 275 q 446 46 310 46 q 569 86 519 46 q 644 188 619 126 q 668 310 668 249 q 617 513 668 442 q 489 583 567 583 q 398 571 431 583 q 339 538 365 558 l 311 583 q 390 633 331 608 q 511 657 450 657 q 651 613 593 657 q 738 501 708 569 q 767 360 767 433 q 726 185 767 271 q 608 42 685 99 q 428 -14 531 -14 q 247 40 324 -14 q 128 185 169 94 q 88 383 88 275 q 174 690 88 550 q 394 922 260 831 q 667 1039 528 1013 l 689 993 z "},"7":{"ha":839,"x_min":99,"x_max":753,"o":"m 265 -175 q 441 221 356 17 q 638 707 526 425 l 664 772 l 213 758 l 151 629 l 99 636 l 133 850 l 733 850 l 753 826 l 374 -212 l 265 -175 z "},"8":{"ha":838,"x_min":90,"x_max":761,"o":"m 444 1051 q 583 1022 521 1051 q 681 939 646 992 q 717 819 717 886 q 665 656 717 739 q 524 525 614 572 q 700 402 639 460 q 761 267 761 344 q 713 106 761 171 q 588 11 664 42 q 426 -19 511 -19 q 267 10 344 -19 q 140 102 190 40 q 90 253 90 164 q 147 408 90 332 q 308 535 204 483 q 187 645 231 583 q 143 792 143 707 q 187 935 143 876 q 299 1023 231 994 q 444 1051 368 1051 m 436 997 q 333 973 381 997 q 256 906 285 949 q 226 808 226 863 q 286 678 226 733 q 457 563 346 624 q 536 605 497 571 q 600 686 575 639 q 626 778 625 733 q 606 892 629 842 q 538 969 582 942 q 436 997 493 997 m 364 500 q 241 409 292 469 q 190 278 190 349 q 222 158 190 213 q 310 71 253 103 q 446 39 368 39 q 555 63 504 39 q 637 131 606 88 q 668 229 668 175 q 637 321 668 281 q 560 390 606 361 q 435 463 515 419 l 364 500 z "},"9":{"ha":849,"x_min":86,"x_max":751,"o":"m 161 -228 q 417 -78 310 -181 q 581 151 525 25 q 642 392 638 276 q 406 792 653 792 q 283 751 333 792 q 208 650 233 711 q 183 528 183 589 q 235 325 183 397 q 364 253 286 253 q 453 267 411 253 q 515 299 494 282 l 542 253 q 458 201 514 224 q 342 179 403 179 q 202 223 260 179 q 115 335 144 267 q 86 476 86 403 q 127 651 86 565 q 245 794 168 738 q 426 850 322 850 q 603 796 531 850 q 714 651 676 742 q 751 453 751 561 q 667 118 751 276 q 450 -144 583 -40 q 179 -275 317 -249 l 161 -228 z "},"\r":{"ha":0,"x_min":0,"x_max":0,"o":""}," ":{"ha":325,"x_min":0,"x_max":0,"o":""},"A":{"ha":1004,"x_min":1,"x_max":1004,"o":"m 100 65 l 461 1056 l 547 1056 l 893 65 l 1004 49 l 1004 0 l 672 0 l 672 49 l 788 64 l 704 310 l 278 310 l 193 64 l 310 49 l 310 0 l 1 0 l 1 49 l 100 65 m 551 750 l 492 935 l 300 376 l 681 376 l 551 750 z "},"Á":{"ha":1004,"x_min":1,"x_max":1004,"o":"m 669 1303 l 753 1218 q 500 1092 621 1126 l 472 1119 l 669 1303 m 100 65 l 461 1056 l 547 1056 l 893 65 l 1004 49 l 1004 0 l 672 0 l 672 49 l 788 64 l 704 310 l 278 310 l 193 64 l 310 49 l 310 0 l 1 0 l 1 49 l 100 65 m 551 750 l 492 935 l 300 376 l 681 376 l 551 750 z "},"Ă":{"ha":1004,"x_min":1,"x_max":1004,"o":"m 1 0 m 717 1340 q 690 1237 717 1285 q 613 1160 663 1189 q 501 1132 564 1132 q 387 1161 436 1132 q 312 1238 338 1190 q 286 1340 286 1285 l 328 1340 q 353 1284 339 1308 q 403 1236 367 1260 q 503 1213 440 1213 q 602 1237 565 1213 q 652 1284 639 1261 q 678 1340 665 1307 l 717 1340 m 100 65 l 461 1056 l 547 1056 l 893 65 l 1004 49 l 1004 0 l 672 0 l 672 49 l 788 64 l 704 310 l 278 310 l 193 64 l 310 49 l 310 0 l 1 0 l 1 49 l 100 65 m 551 750 l 492 935 l 300 376 l 681 376 l 551 750 z "},"Â":{"ha":1004,"x_min":1,"x_max":1004,"o":"m 447 1303 l 558 1303 l 735 1126 l 683 1099 l 503 1225 l 318 1099 l 272 1125 l 447 1303 m 100 65 l 461 1056 l 547 1056 l 893 65 l 1004 49 l 1004 0 l 672 0 l 672 49 l 788 64 l 704 310 l 278 310 l 193 64 l 310 49 l 310 0 l 1 0 l 1 49 l 100 65 m 551 750 l 492 935 l 300 376 l 681 376 l 551 750 z "},"Ä":{"ha":1004,"x_min":1,"x_max":1004,"o":"m 354 1294 q 408 1274 390 1294 q 426 1221 426 1253 q 400 1159 426 1183 q 340 1135 374 1135 q 290 1156 311 1135 q 268 1208 268 1176 q 295 1269 268 1243 q 354 1294 322 1294 m 661 1294 q 717 1274 699 1294 q 735 1221 735 1253 q 708 1159 735 1183 q 647 1135 682 1135 q 597 1155 618 1135 q 575 1207 575 1175 q 602 1269 575 1243 q 661 1294 629 1294 m 893 65 l 1004 49 l 1004 0 l 672 0 l 672 49 l 788 64 l 704 310 l 278 310 l 193 64 l 310 49 l 310 0 l 1 0 l 1 49 l 100 65 l 461 1056 l 547 1056 l 893 65 m 300 376 l 681 376 l 551 750 l 492 935 l 300 376 z "},"À":{"ha":1004,"x_min":1,"x_max":1004,"o":"m 506 1092 q 378 1142 444 1108 q 251 1218 313 1176 l 335 1303 l 533 1119 l 506 1092 m 100 65 l 461 1056 l 547 1056 l 893 65 l 1004 49 l 1004 0 l 672 0 l 672 49 l 788 64 l 704 310 l 278 310 l 193 64 l 310 49 l 310 0 l 1 0 l 1 49 l 100 65 m 551 750 l 492 935 l 300 376 l 681 376 l 551 750 z "},"Ā":{"ha":1004,"x_min":1,"x_max":1004,"o":"m 1 0 m 681 1258 l 681 1175 l 324 1175 l 324 1258 l 681 1258 m 100 65 l 461 1056 l 547 1056 l 893 65 l 1004 49 l 1004 0 l 672 0 l 672 49 l 788 64 l 704 310 l 278 310 l 193 64 l 310 49 l 310 0 l 1 0 l 1 49 l 100 65 m 551 750 l 492 935 l 300 376 l 681 376 l 551 750 z "},"Ą":{"ha":1004,"x_min":1,"x_max":1004,"o":"m 100 65 l 461 1056 l 547 1056 l 893 65 l 1004 49 l 1004 0 l 886 0 q 797 -49 846 -14 q 715 -124 749 -83 q 682 -199 682 -165 q 705 -265 682 -246 q 779 -287 728 -285 q 924 -237 839 -292 l 938 -287 q 854 -338 899 -318 q 739 -358 810 -358 q 624 -321 661 -358 q 586 -228 586 -283 q 647 -101 586 -167 q 786 0 708 -35 l 672 0 l 672 49 l 788 64 l 704 310 l 278 310 l 193 64 l 310 49 l 310 0 l 1 0 l 1 49 l 100 65 m 551 750 l 492 935 l 300 376 l 681 376 l 551 750 z "},"Å":{"ha":1004,"x_min":1,"x_max":1004,"o":"m 501 1303 q 620 1258 571 1303 q 669 1147 669 1213 q 640 1060 669 1099 q 564 1004 611 1022 l 893 65 l 1004 49 l 1004 0 l 672 0 l 672 49 l 788 64 l 704 310 l 278 310 l 193 64 l 310 49 l 310 0 l 1 0 l 1 49 l 100 65 l 442 1003 q 364 1059 393 1021 q 335 1147 335 1097 q 383 1257 335 1211 q 501 1303 432 1303 m 501 1236 q 432 1210 461 1236 q 403 1147 403 1185 q 431 1083 403 1108 q 501 1057 460 1057 q 572 1083 543 1057 q 600 1146 600 1108 q 571 1210 600 1185 q 501 1236 542 1236 m 300 376 l 681 376 l 551 750 l 492 935 l 300 376 z "},"Ã":{"ha":1004,"x_min":1,"x_max":1004,"o":"m 236 1192 q 315 1271 264 1239 q 418 1303 365 1303 q 471 1290 449 1303 q 519 1251 493 1276 q 560 1219 543 1229 q 599 1208 576 1208 q 669 1226 636 1208 q 726 1271 701 1243 l 756 1226 q 677 1147 728 1179 q 574 1115 626 1115 q 522 1128 543 1115 q 474 1167 500 1142 q 434 1200 451 1189 q 394 1211 417 1211 q 324 1193 358 1211 q 265 1149 290 1175 l 236 1192 m 100 65 l 461 1056 l 547 1056 l 893 65 l 1004 49 l 1004 0 l 672 0 l 672 49 l 788 64 l 704 310 l 278 310 l 193 64 l 310 49 l 310 0 l 1 0 l 1 49 l 100 65 m 551 750 l 492 935 l 300 376 l 681 376 l 551 750 z "},"Æ":{"ha":1315,"x_min":1,"x_max":1261,"o":"m 97 65 l 497 1053 l 1140 1053 l 1160 864 l 1106 863 l 1076 988 l 628 994 l 750 583 l 1040 588 l 1057 697 l 1108 697 l 1108 418 l 1057 418 l 1040 521 l 768 524 l 906 64 l 1151 72 l 1215 221 l 1261 194 l 1231 0 l 671 0 l 671 49 l 788 65 l 707 326 l 290 326 l 192 64 l 311 49 l 311 0 l 1 0 l 1 49 l 97 65 m 553 824 l 528 951 l 315 390 l 688 390 l 553 824 z "},"B":{"ha":960,"x_min":74,"x_max":892,"o":"m 192 65 l 192 989 l 76 999 l 76 1053 l 239 1053 l 304 1057 q 496 1063 428 1064 q 740 998 656 1061 q 824 826 824 935 q 772 657 824 728 q 618 564 721 586 q 756 532 693 563 q 855 444 818 501 q 892 310 892 386 q 844 146 892 218 q 699 32 797 74 q 458 -10 601 -10 q 246 0 392 -10 l 74 0 l 74 49 l 192 65 m 296 590 q 393 585 329 585 l 488 586 q 660 642 594 586 q 725 804 725 697 q 654 951 725 901 q 472 1001 583 1001 q 375 1000 431 1001 q 297 992 319 999 l 296 590 m 297 79 q 378 62 318 69 q 482 54 438 54 q 699 107 615 54 q 782 285 782 160 q 713 461 782 407 q 507 515 643 515 l 419 515 q 297 513 328 515 l 297 79 z "},"C":{"ha":950,"x_min":60,"x_max":885,"o":"m 601 1063 q 723 1052 668 1063 q 838 1025 778 1042 l 882 1014 l 872 831 l 817 831 l 788 944 q 690 986 742 974 q 567 999 638 999 q 371 943 463 999 q 223 781 279 888 q 167 528 167 675 q 213 283 167 393 q 351 106 260 172 q 569 40 442 40 q 712 62 653 40 q 806 121 771 83 l 838 228 l 885 228 l 885 43 q 806 24 863 42 q 681 -8 738 3 q 540 -19 624 -19 q 294 46 404 -19 q 122 228 185 111 q 60 493 60 346 q 135 792 60 663 q 334 992 210 922 q 601 1063 458 1063 z "},"Ć":{"ha":950,"x_min":60,"x_max":885,"o":"m 60 0 m 601 1063 q 723 1052 668 1063 q 838 1025 778 1042 l 882 1014 l 872 831 l 817 831 l 788 944 q 690 986 742 974 q 567 999 638 999 q 371 943 463 999 q 223 781 279 888 q 167 528 167 675 q 213 283 167 393 q 351 106 260 172 q 569 40 442 40 q 712 62 653 40 q 806 121 771 83 l 838 228 l 885 228 l 885 43 q 806 24 863 42 q 681 -8 738 3 q 540 -19 624 -19 q 294 46 404 -19 q 122 228 185 111 q 60 493 60 346 q 135 792 60 663 q 334 992 210 922 q 601 1063 458 1063 m 701 1303 l 785 1218 q 533 1092 653 1126 l 504 1119 l 701 1303 z "},"Č":{"ha":950,"x_min":60,"x_max":885,"o":"m 60 0 m 601 1063 q 723 1052 668 1063 q 838 1025 778 1042 l 882 1014 l 872 831 l 817 831 l 788 944 q 690 986 742 974 q 567 999 638 999 q 371 943 463 999 q 223 781 279 888 q 167 528 167 675 q 213 283 167 393 q 351 106 260 172 q 569 40 442 40 q 712 62 653 40 q 806 121 771 83 l 838 228 l 885 228 l 885 43 q 806 24 863 42 q 681 -8 738 3 q 540 -19 624 -19 q 294 46 404 -19 q 122 228 185 111 q 60 493 60 346 q 135 792 60 663 q 334 992 210 922 q 601 1063 458 1063 m 365 1303 l 536 1179 l 708 1303 l 753 1275 l 589 1101 l 481 1101 l 315 1274 l 365 1303 z "},"Ç":{"ha":951,"x_min":60,"x_max":885,"o":"m 601 1063 q 723 1052 668 1063 q 838 1025 778 1042 l 882 1014 l 872 831 l 817 831 l 788 944 q 690 986 742 974 q 568 999 638 999 q 371 943 463 999 q 223 781 279 888 q 167 528 167 675 q 213 283 167 393 q 351 106 260 172 q 569 40 442 40 q 712 62 651 40 q 806 121 772 83 l 838 228 l 885 228 l 885 43 q 841 34 867 42 q 808 25 815 26 q 696 -4 750 7 q 564 -18 642 -15 q 561 -57 561 -43 l 563 -85 q 699 -122 653 -83 q 746 -212 746 -160 q 699 -315 746 -276 q 578 -357 651 -353 l 546 -358 q 478 -351 503 -358 q 446 -343 453 -344 l 447 -286 q 490 -294 468 -290 q 529 -297 513 -297 q 609 -281 579 -297 q 639 -211 639 -264 q 608 -153 639 -174 q 518 -133 576 -133 q 495 -135 506 -133 q 481 -136 485 -136 q 497 -17 483 -76 q 272 60 372 -7 q 116 240 172 128 q 60 493 60 353 q 134 792 60 663 q 333 992 208 921 q 601 1063 457 1063 z "},"D":{"ha":1079,"x_min":74,"x_max":1014,"o":"m 193 65 l 193 988 l 76 999 l 76 1053 l 244 1053 q 400 1058 314 1053 q 511 1063 454 1063 q 888 929 763 1063 q 1014 554 1014 796 q 946 255 1014 382 q 758 60 878 128 q 489 -7 639 -7 q 385 -4 460 -7 q 246 0 321 0 l 74 0 l 74 49 l 193 65 m 297 75 q 489 56 397 56 q 699 108 604 58 q 849 263 793 158 q 906 525 906 368 q 796 876 906 756 q 489 997 686 997 q 297 986 394 997 l 297 75 z "},"Ð":{"ha":1079,"x_min":69,"x_max":1014,"o":"m 193 65 l 193 504 l 69 504 l 69 588 l 193 588 l 193 988 l 76 999 l 76 1053 l 244 1053 q 399 1058 313 1053 q 511 1063 453 1063 q 888 928 763 1063 q 1014 554 1014 794 q 946 255 1014 382 q 758 60 878 128 q 489 -7 639 -7 q 385 -4 460 -7 q 246 0 321 0 l 74 0 l 74 49 l 193 65 m 297 75 q 489 56 397 56 q 699 108 604 58 q 849 263 793 158 q 906 525 906 368 q 796 876 906 756 q 489 997 686 997 q 297 986 394 997 l 297 588 l 476 588 l 476 504 l 297 504 l 297 75 z "},"Ď":{"ha":1079,"x_min":74,"x_max":1014,"o":"m 74 0 m 193 65 l 193 988 l 76 999 l 76 1053 l 244 1053 q 400 1058 314 1053 q 511 1063 454 1063 q 888 929 763 1063 q 1014 554 1014 796 q 946 255 1014 382 q 758 60 878 128 q 489 -7 639 -7 q 385 -4 460 -7 q 246 0 321 0 l 74 0 l 74 49 l 193 65 m 297 75 q 489 56 397 56 q 699 108 604 58 q 849 263 793 158 q 906 525 906 368 q 796 876 906 756 q 489 997 686 997 q 297 986 394 997 l 297 75 m 314 1303 l 485 1179 l 657 1303 l 701 1275 l 538 1101 l 429 1101 l 264 1274 l 314 1303 z "},"Đ":{"ha":1079,"x_min":69,"x_max":1014,"o":"m 69 0 m 193 65 l 193 504 l 69 504 l 69 588 l 193 588 l 193 988 l 76 999 l 76 1053 l 244 1053 q 399 1058 313 1053 q 511 1063 453 1063 q 888 928 763 1063 q 1014 554 1014 794 q 946 255 1014 382 q 758 60 878 128 q 489 -7 639 -7 q 385 -4 460 -7 q 246 0 321 0 l 74 0 l 74 49 l 193 65 m 297 75 q 489 56 397 56 q 699 108 604 58 q 849 263 793 158 q 906 525 906 368 q 796 876 906 756 q 489 997 686 997 q 297 986 394 997 l 297 588 l 476 588 l 476 504 l 297 504 l 297 75 z "},"E":{"ha":886,"x_min":69,"x_max":840,"o":"m 189 65 l 189 988 l 72 999 l 72 1053 l 768 1053 l 788 864 l 728 864 l 701 986 l 293 994 l 293 586 l 567 590 l 582 699 l 639 699 l 639 413 l 582 413 l 567 522 l 293 526 l 293 61 l 729 72 l 792 222 l 840 208 l 811 0 l 69 0 l 69 49 l 189 65 z "},"É":{"ha":886,"x_min":69,"x_max":840,"o":"m 657 1303 l 739 1218 q 489 1092 606 1125 l 460 1119 l 657 1303 m 189 65 l 189 988 l 72 999 l 72 1053 l 768 1053 l 788 864 l 728 864 l 701 986 l 293 994 l 293 586 l 567 590 l 582 699 l 639 699 l 639 413 l 582 413 l 567 522 l 293 526 l 293 61 l 729 72 l 792 222 l 840 208 l 811 0 l 69 0 l 69 49 l 189 65 z "},"Ě":{"ha":886,"x_min":69,"x_max":840,"o":"m 69 0 m 189 65 l 189 988 l 72 999 l 72 1053 l 768 1053 l 788 864 l 728 864 l 701 986 l 293 994 l 293 586 l 567 590 l 582 699 l 639 699 l 639 413 l 582 413 l 567 522 l 293 526 l 293 61 l 729 72 l 792 222 l 840 208 l 811 0 l 69 0 l 69 49 l 189 65 m 279 1303 l 450 1179 l 622 1303 l 667 1275 l 503 1101 l 394 1101 l 229 1274 l 279 1303 z "},"Ê":{"ha":886,"x_min":69,"x_max":840,"o":"m 433 1303 l 544 1303 l 722 1126 l 669 1099 l 489 1225 l 304 1099 l 258 1125 l 433 1303 m 189 65 l 189 988 l 72 999 l 72 1053 l 768 1053 l 788 864 l 728 864 l 701 986 l 293 994 l 293 586 l 567 590 l 582 699 l 639 699 l 639 413 l 582 413 l 567 522 l 293 526 l 293 61 l 729 72 l 792 222 l 840 208 l 811 0 l 69 0 l 69 49 l 189 65 z "},"Ë":{"ha":886,"x_min":69,"x_max":840,"o":"m 342 1294 q 397 1274 379 1294 q 414 1221 414 1253 q 388 1159 414 1183 q 328 1135 361 1135 q 277 1156 299 1135 q 256 1208 256 1176 q 283 1269 256 1243 q 342 1294 310 1294 m 649 1294 q 703 1274 685 1294 q 722 1221 722 1253 q 696 1159 722 1183 q 635 1135 669 1135 q 584 1155 606 1135 q 563 1207 563 1175 q 590 1269 563 1243 q 649 1294 617 1294 m 788 864 l 728 864 l 701 986 l 293 994 l 293 586 l 567 590 l 582 699 l 639 699 l 639 413 l 582 413 l 567 522 l 293 526 l 293 61 l 729 72 l 792 222 l 840 208 l 811 0 l 69 0 l 69 49 l 189 65 l 189 988 l 72 999 l 72 1053 l 768 1053 l 788 864 z "},"Ė":{"ha":886,"x_min":69,"x_max":840,"o":"m 69 0 m 189 65 l 189 988 l 72 999 l 72 1053 l 768 1053 l 788 864 l 728 864 l 701 986 l 293 994 l 293 586 l 567 590 l 582 699 l 639 699 l 639 413 l 582 413 l 567 522 l 293 526 l 293 61 l 729 72 l 792 222 l 840 208 l 811 0 l 69 0 l 69 49 l 189 65 m 489 1228 q 499 1222 499 1228 q 488 1201 499 1201 q 483 1205 488 1201 q 479 1214 479 1208 q 483 1223 479 1218 q 489 1228 486 1228 z "},"È":{"ha":886,"x_min":69,"x_max":840,"o":"m 493 1092 q 240 1218 379 1124 l 322 1303 l 521 1119 l 493 1092 m 189 65 l 189 988 l 72 999 l 72 1053 l 768 1053 l 788 864 l 728 864 l 701 986 l 293 994 l 293 586 l 567 590 l 582 699 l 639 699 l 639 413 l 582 413 l 567 522 l 293 526 l 293 61 l 729 72 l 792 222 l 840 208 l 811 0 l 69 0 l 69 49 l 189 65 z "},"Ē":{"ha":886,"x_min":69,"x_max":840,"o":"m 69 0 m 189 65 l 189 988 l 72 999 l 72 1053 l 768 1053 l 788 864 l 728 864 l 701 986 l 293 994 l 293 586 l 567 590 l 582 699 l 639 699 l 639 413 l 582 413 l 567 522 l 293 526 l 293 61 l 729 72 l 792 222 l 840 208 l 811 0 l 69 0 l 69 49 l 189 65 m 668 1258 l 668 1175 l 311 1175 l 311 1258 l 668 1258 z "},"Ę":{"ha":886,"x_min":69,"x_max":864,"o":"m 189 65 l 189 988 l 72 999 l 72 1053 l 768 1053 l 788 864 l 728 864 l 701 986 l 293 994 l 293 586 l 567 590 l 582 699 l 639 699 l 639 413 l 582 413 l 567 522 l 293 526 l 293 61 l 729 72 l 792 222 l 840 208 l 811 0 l 813 0 q 724 -50 772 -15 q 643 -125 676 -85 q 610 -199 610 -165 q 633 -265 610 -246 q 707 -287 656 -285 q 783 -273 743 -290 q 851 -237 822 -256 l 864 -287 q 783 -337 828 -317 q 665 -358 738 -358 q 551 -321 589 -358 q 514 -229 514 -283 q 574 -101 514 -168 q 714 0 635 -35 l 69 0 l 69 49 l 189 65 z "},"F":{"ha":832,"x_min":72,"x_max":810,"o":"m 196 67 l 196 988 l 81 999 l 81 1053 l 797 1053 l 810 865 l 757 864 l 726 983 l 300 992 l 300 569 l 618 575 l 640 676 l 696 676 l 696 399 l 633 399 l 617 504 l 300 510 l 300 64 l 500 53 l 500 0 l 72 0 l 72 49 l 196 67 z "},"G":{"ha":1038,"x_min":60,"x_max":999,"o":"m 603 1063 q 756 1052 694 1063 q 874 1026 817 1042 q 906 1018 893 1019 l 896 831 l 838 831 l 810 946 q 724 981 790 965 q 563 996 658 997 q 368 939 458 994 q 223 777 278 883 q 168 526 168 671 q 211 288 168 399 q 342 110 254 178 q 557 42 431 42 q 695 57 631 42 q 800 108 760 72 l 800 417 l 622 426 l 622 481 l 999 481 l 999 426 l 908 415 l 908 56 q 832 36 886 51 q 674 -5 743 10 q 529 -19 604 -19 q 286 47 393 -19 q 119 229 179 113 q 60 492 60 346 q 133 791 60 661 q 331 992 207 921 q 603 1063 456 1063 z "},"Ğ":{"ha":1038,"x_min":60,"x_max":999,"o":"m 60 0 m 603 1063 q 756 1052 694 1063 q 874 1026 817 1042 q 906 1018 893 1019 l 896 831 l 838 831 l 810 946 q 724 981 790 965 q 563 996 658 997 q 368 939 458 994 q 223 777 278 883 q 168 526 168 671 q 211 288 168 399 q 342 110 254 178 q 557 42 431 42 q 695 57 631 42 q 800 108 760 72 l 800 417 l 622 426 l 622 481 l 999 481 l 999 426 l 908 415 l 908 56 q 832 36 886 51 q 674 -5 743 10 q 529 -19 604 -19 q 286 47 393 -19 q 119 229 179 113 q 60 492 60 346 q 133 791 60 661 q 331 992 207 921 q 603 1063 456 1063 m 778 1303 q 751 1199 778 1247 q 674 1123 724 1151 q 563 1094 625 1094 q 448 1124 497 1094 q 373 1200 399 1153 q 347 1303 347 1247 l 389 1303 q 414 1247 400 1271 q 465 1199 428 1222 q 564 1175 501 1175 q 663 1199 626 1175 q 713 1247 700 1224 q 739 1303 726 1269 l 778 1303 z "},"Ģ":{"ha":1038,"x_min":60,"x_max":999,"o":"m 60 0 m 603 1063 q 756 1052 694 1063 q 874 1026 817 1042 q 906 1018 893 1019 l 896 831 l 838 831 l 810 946 q 724 981 790 965 q 563 996 658 997 q 368 939 458 994 q 223 777 278 883 q 168 526 168 671 q 211 288 168 399 q 342 110 254 178 q 557 42 431 42 q 695 57 631 42 q 800 108 760 72 l 800 417 l 622 426 l 622 481 l 999 481 l 999 426 l 908 415 l 908 56 q 832 36 886 51 q 674 -5 743 10 q 529 -19 604 -19 q 286 47 393 -19 q 119 229 179 113 q 60 492 60 346 q 133 791 60 661 q 331 992 207 921 q 603 1063 456 1063 m 524 -39 q 621 -103 586 -56 q 657 -200 656 -150 q 630 -307 657 -257 q 565 -390 603 -357 q 493 -435 526 -424 l 465 -404 l 465 -386 q 522 -323 503 -371 q 540 -221 540 -275 q 528 -173 540 -194 q 498 -139 515 -151 q 467 -126 481 -126 l 467 -96 l 524 -39 z "},"H":{"ha":1151,"x_min":75,"x_max":1071,"o":"m 190 65 l 190 989 l 79 999 l 79 1053 l 404 1053 l 404 999 l 294 989 l 294 540 l 851 540 l 851 989 l 739 999 l 739 1053 l 1061 1053 l 1061 999 l 956 989 l 956 65 l 1071 49 l 1071 0 l 736 0 l 736 49 l 851 65 l 851 475 l 294 475 l 294 64 l 410 49 l 410 0 l 75 0 l 75 49 l 190 65 z "},"I":{"ha":511,"x_min":85,"x_max":428,"o":"m 203 65 l 203 989 l 88 999 l 88 1053 l 422 1053 l 422 999 l 307 989 l 307 64 l 428 49 l 428 0 l 85 0 l 85 49 l 203 65 z "},"Ĳ":{"ha":994,"x_min":85,"x_max":932,"o":"m 203 65 l 203 989 l 88 999 l 88 1053 l 422 1053 l 422 999 l 307 989 l 307 64 l 428 49 l 428 0 l 85 0 l 85 49 l 203 65 m 456 -221 q 597 -151 538 -197 q 681 -42 656 -104 q 705 83 699 13 q 711 272 711 154 l 711 989 l 594 999 l 594 1053 l 932 1053 l 932 999 l 814 989 l 814 350 l 815 190 q 806 36 815 92 q 692 -166 783 -87 q 486 -262 600 -244 l 456 -221 z "},"Í":{"ha":511,"x_min":85,"x_max":507,"o":"m 425 1303 l 507 1218 q 257 1092 374 1125 l 228 1119 l 425 1303 m 203 65 l 203 989 l 88 999 l 88 1053 l 422 1053 l 422 999 l 307 989 l 307 64 l 428 49 l 428 0 l 85 0 l 85 49 l 203 65 z "},"Î":{"ha":511,"x_min":26,"x_max":489,"o":"m 201 1303 l 313 1303 l 489 1126 l 439 1099 l 257 1225 l 71 1099 l 26 1125 l 201 1303 m 203 65 l 203 989 l 88 999 l 88 1053 l 422 1053 l 422 999 l 307 989 l 307 64 l 428 49 l 428 0 l 85 0 l 85 49 l 203 65 z "},"Ï":{"ha":511,"x_min":24,"x_max":489,"o":"m 110 1294 q 165 1274 147 1294 q 183 1221 183 1253 q 157 1159 183 1183 q 96 1135 131 1135 q 45 1156 67 1135 q 24 1208 24 1176 q 51 1269 24 1243 q 110 1294 78 1294 m 417 1294 q 471 1274 453 1294 q 489 1221 489 1253 q 463 1159 489 1183 q 401 1135 436 1135 q 351 1155 372 1135 q 329 1207 329 1175 q 356 1269 329 1243 q 417 1294 383 1294 m 422 999 l 307 989 l 307 64 l 428 49 l 428 0 l 85 0 l 85 49 l 203 65 l 203 989 l 88 999 l 88 1053 l 422 1053 l 422 999 z "},"İ":{"ha":511,"x_min":85,"x_max":428,"o":"m 85 0 m 203 65 l 203 989 l 88 999 l 88 1053 l 422 1053 l 422 999 l 307 989 l 307 64 l 428 49 l 428 0 l 85 0 l 85 49 l 203 65 m 257 1228 q 267 1222 267 1228 q 256 1201 267 1201 q 251 1205 256 1201 q 247 1214 247 1208 q 251 1223 247 1218 q 257 1228 254 1228 z "},"Ì":{"ha":511,"x_min":7,"x_max":428,"o":"m 260 1092 q 7 1218 144 1125 l 89 1303 l 288 1119 l 260 1092 m 203 65 l 203 989 l 88 999 l 88 1053 l 422 1053 l 422 999 l 307 989 l 307 64 l 428 49 l 428 0 l 85 0 l 85 49 l 203 65 z "},"Ī":{"ha":493,"x_min":67,"x_max":428,"o":"m 67 0 m 424 1289 l 424 1206 l 67 1206 l 67 1289 l 424 1289 m 203 65 l 203 989 l 88 999 l 88 1053 l 422 1053 l 422 999 l 307 989 l 307 64 l 428 49 l 428 0 l 85 0 l 85 49 l 203 65 z "},"Į":{"ha":511,"x_min":85,"x_max":428,"o":"m 428 49 l 428 0 l 394 0 q 304 -49 351 -14 q 226 -124 257 -83 q 194 -196 194 -164 q 215 -264 194 -240 q 288 -287 236 -287 q 335 -281 307 -287 q 379 -264 364 -274 l 392 -314 q 322 -345 367 -332 q 228 -358 276 -358 q 133 -322 172 -358 q 94 -226 94 -285 q 124 -142 94 -187 q 201 -59 153 -97 q 304 0 250 -21 l 85 0 l 85 49 l 203 65 l 203 989 l 88 999 l 88 1053 l 422 1053 l 422 999 l 307 989 l 307 64 l 428 49 z "},"Ĩ":{"ha":511,"x_min":-6,"x_max":513,"o":"m -6 1192 q 72 1271 21 1239 q 175 1303 122 1303 q 228 1290 206 1303 q 276 1251 250 1276 q 317 1219 300 1229 q 356 1208 333 1208 q 426 1226 393 1208 q 483 1271 458 1243 l 513 1226 q 435 1148 486 1181 q 332 1115 385 1115 q 278 1128 300 1115 q 229 1168 257 1142 q 189 1201 206 1190 q 151 1211 172 1211 q 82 1192 117 1211 q 24 1149 47 1174 l -6 1192 m 203 65 l 203 989 l 88 999 l 88 1053 l 422 1053 l 422 999 l 307 989 l 307 64 l 428 49 l 428 0 l 85 0 l 85 49 l 203 65 z "},"J":{"ha":483,"x_min":-56,"x_max":421,"o":"m 421 999 l 304 989 l 304 350 l 306 200 q 296 36 306 94 q 182 -166 274 -87 q -25 -262 90 -244 l -56 -221 q 85 -151 26 -197 q 169 -42 144 -106 q 194 82 189 13 q 200 272 200 151 l 200 989 l 83 999 l 83 1053 l 421 1053 l 421 999 z "},"Ĵ":{"ha":483,"x_min":-56,"x_max":485,"o":"m 485 1126 l 433 1099 l 253 1225 l 67 1099 l 22 1125 l 197 1303 l 308 1303 l 485 1126 m 421 999 l 304 989 l 304 350 l 306 200 q 296 36 306 94 q 182 -166 274 -87 q -25 -262 90 -244 l -56 -221 q 85 -151 26 -197 q 169 -42 144 -106 q 194 82 189 13 q 200 272 200 151 l 200 989 l 83 999 l 83 1053 l 421 1053 l 421 999 z "},"K":{"ha":953,"x_min":76,"x_max":965,"o":"m 186 64 l 186 989 l 79 999 l 79 1053 l 400 1053 l 400 999 l 292 989 l 292 493 l 708 988 l 603 999 l 601 1053 l 918 1053 l 918 999 l 811 988 l 479 608 q 549 512 501 583 q 644 364 596 440 q 786 146 733 222 q 856 71 839 69 l 965 49 l 965 0 l 779 0 q 725 59 764 0 q 610 244 686 118 q 494 432 542 358 q 417 536 447 506 l 292 392 l 292 64 l 413 49 l 413 0 l 76 0 l 76 49 l 186 64 z "},"Ķ":{"ha":953,"x_min":76,"x_max":965,"o":"m 76 0 m 186 64 l 186 989 l 79 999 l 79 1053 l 400 1053 l 400 999 l 292 989 l 292 493 l 708 988 l 603 999 l 601 1053 l 918 1053 l 918 999 l 811 988 l 479 608 q 549 512 501 583 q 644 364 596 440 q 786 146 733 222 q 856 71 839 69 l 965 49 l 965 0 l 779 0 q 725 59 764 0 q 610 244 686 118 q 494 432 542 358 q 417 536 447 506 l 292 392 l 292 64 l 413 49 l 413 0 l 76 0 l 76 49 l 186 64 m 542 -39 q 639 -103 604 -56 q 675 -200 674 -150 q 648 -307 675 -257 q 583 -390 621 -357 q 511 -435 544 -424 l 483 -404 l 483 -386 q 540 -323 521 -371 q 558 -221 558 -275 q 546 -173 558 -194 q 516 -139 533 -151 q 485 -126 499 -126 l 485 -96 l 542 -39 z "},"L":{"ha":839,"x_min":74,"x_max":819,"o":"m 193 65 l 193 983 l 76 993 l 76 1053 l 424 1053 l 424 993 l 299 983 l 297 64 l 696 76 l 771 242 l 819 217 l 775 0 l 74 0 l 74 49 l 193 65 z "},"Ĺ":{"ha":839,"x_min":74,"x_max":819,"o":"m 74 0 m 193 65 l 193 983 l 76 993 l 76 1053 l 424 1053 l 424 993 l 299 983 l 297 64 l 696 76 l 771 242 l 819 217 l 775 0 l 74 0 l 74 49 l 193 65 m 414 1303 l 497 1218 q 246 1092 365 1126 l 217 1119 l 414 1303 z "},"Ľ":{"ha":839,"x_min":74,"x_max":819,"o":"m 74 0 m 193 65 l 193 983 l 76 993 l 76 1053 l 424 1053 l 424 993 l 299 983 l 297 64 l 696 76 l 771 242 l 819 217 l 775 0 l 74 0 l 74 49 l 193 65 m 557 751 q 583 910 583 826 q 573 1019 583 968 q 549 1086 563 1071 l 558 1115 l 643 1139 q 673 1076 661 1119 q 685 986 685 1033 q 660 819 685 901 q 600 710 635 738 l 558 733 l 557 751 z "},"Ļ":{"ha":839,"x_min":74,"x_max":819,"o":"m 74 0 m 193 65 l 193 983 l 76 993 l 76 1053 l 424 1053 l 424 993 l 299 983 l 297 64 l 696 76 l 771 242 l 819 217 l 775 0 l 74 0 l 74 49 l 193 65 m 408 -39 q 506 -103 471 -56 q 542 -200 540 -150 q 515 -307 542 -257 q 449 -390 488 -357 q 378 -435 411 -424 l 350 -404 l 350 -386 q 406 -323 388 -371 q 425 -221 425 -275 q 413 -173 425 -194 q 383 -139 400 -151 q 351 -126 365 -126 l 351 -96 l 408 -39 z "},"Ŀ":{"ha":942,"x_min":74,"x_max":888,"o":"m 424 993 l 299 983 l 297 64 l 696 76 l 771 242 l 819 217 l 775 0 l 74 0 l 74 49 l 193 65 l 193 983 l 76 993 l 76 1053 l 424 1053 l 424 993 m 825 646 q 872 628 857 646 q 888 583 888 610 q 865 526 888 549 q 811 504 842 504 q 764 522 783 504 q 744 568 744 539 q 769 624 744 601 q 825 646 794 646 z "},"Ł":{"ha":839,"x_min":65,"x_max":819,"o":"m 424 993 l 299 983 l 297 515 l 563 621 l 676 667 l 676 579 l 297 432 l 297 64 l 696 76 l 771 242 l 819 217 l 775 0 l 74 0 l 74 49 l 193 65 l 193 392 l 65 343 l 65 382 l 65 422 l 193 474 l 193 983 l 76 993 l 76 1053 l 424 1053 l 424 993 z "},"M":{"ha":1333,"x_min":54,"x_max":1307,"o":"m 175 64 l 244 983 l 110 994 l 110 1053 l 390 1053 l 657 263 l 688 169 l 718 265 l 972 1053 l 1232 1053 l 1232 994 l 1101 983 l 1181 65 l 1307 49 l 1307 0 l 963 0 l 963 49 l 1083 64 l 1024 743 l 1015 971 l 983 849 l 689 -10 l 654 -10 l 379 767 q 336 890 354 833 l 307 975 l 299 722 l 263 65 l 399 49 l 399 0 l 54 0 l 54 49 l 175 64 z "},"N":{"ha":1125,"x_min":72,"x_max":1069,"o":"m 1069 994 l 951 983 l 951 0 l 842 0 l 369 739 l 271 929 l 269 64 l 404 49 l 404 0 l 72 0 l 72 49 l 190 64 l 190 983 l 76 993 l 76 1053 l 296 1053 l 771 288 l 872 100 l 872 983 l 760 994 l 760 1053 l 1069 1053 l 1069 994 z "},"Ń":{"ha":1125,"x_min":72,"x_max":1069,"o":"m 72 0 m 1069 994 l 951 983 l 951 0 l 842 0 l 369 739 l 271 929 l 269 64 l 404 49 l 404 0 l 72 0 l 72 49 l 190 64 l 190 983 l 76 993 l 76 1053 l 296 1053 l 771 288 l 872 100 l 872 983 l 760 994 l 760 1053 l 1069 1053 l 1069 994 m 729 1303 l 813 1218 q 561 1092 681 1126 l 532 1119 l 729 1303 z "},"Ň":{"ha":1125,"x_min":72,"x_max":1069,"o":"m 72 0 m 1069 994 l 951 983 l 951 0 l 842 0 l 369 739 l 271 929 l 269 64 l 404 49 l 404 0 l 72 0 l 72 49 l 190 64 l 190 983 l 76 993 l 76 1053 l 296 1053 l 771 288 l 872 100 l 872 983 l 760 994 l 760 1053 l 1069 1053 l 1069 994 m 407 1303 l 578 1179 l 750 1303 l 794 1275 l 631 1101 l 522 1101 l 357 1274 l 407 1303 z "},"Ņ":{"ha":1125,"x_min":72,"x_max":1069,"o":"m 72 0 m 1069 994 l 951 983 l 951 0 l 842 0 l 369 739 l 271 929 l 269 64 l 404 49 l 404 0 l 72 0 l 72 49 l 190 64 l 190 983 l 76 993 l 76 1053 l 296 1053 l 771 288 l 872 100 l 872 983 l 760 994 l 760 1053 l 1069 1053 l 1069 994 m 572 -39 q 669 -103 635 -56 q 706 -200 704 -150 q 678 -307 706 -257 q 613 -390 651 -357 q 542 -435 575 -424 l 514 -404 l 514 -386 q 570 -323 551 -371 q 589 -221 589 -275 q 576 -173 589 -194 q 547 -139 564 -151 q 515 -126 529 -126 l 515 -96 l 572 -39 z "},"Ñ":{"ha":1125,"x_min":72,"x_max":1069,"o":"m 72 0 m 1069 994 l 951 983 l 951 0 l 842 0 l 369 739 l 271 929 l 269 64 l 404 49 l 404 0 l 72 0 l 72 49 l 190 64 l 190 983 l 76 993 l 76 1053 l 296 1053 l 771 288 l 872 100 l 872 983 l 760 994 l 760 1053 l 1069 1053 l 1069 994 m 294 1192 q 372 1271 322 1239 q 475 1303 422 1303 q 529 1290 507 1303 q 578 1251 551 1276 q 618 1219 601 1229 q 656 1208 635 1208 q 783 1271 726 1208 l 814 1226 q 736 1148 788 1181 q 632 1115 685 1115 q 578 1129 601 1115 q 531 1168 556 1143 q 490 1201 507 1190 q 453 1211 474 1211 q 383 1193 417 1211 q 324 1149 349 1175 l 294 1192 z "},"O":{"ha":1050,"x_min":64,"x_max":992,"o":"m 560 1063 q 787 997 689 1063 q 938 814 885 931 q 992 549 992 697 q 927 244 992 372 q 754 48 863 115 q 514 -19 646 -19 q 278 47 381 -19 q 120 231 176 114 q 64 497 64 349 q 135 810 64 679 q 324 1006 206 942 q 560 1063 428 1063 m 532 1001 q 349 944 429 1001 q 224 775 269 886 q 179 511 179 664 q 222 275 179 382 q 346 105 265 168 q 535 42 426 42 q 714 101 636 42 q 834 271 792 160 q 876 535 876 382 q 836 767 876 661 q 718 938 796 874 q 532 1001 640 1001 z "},"Ó":{"ha":1050,"x_min":64,"x_max":990,"o":"m 785 1218 q 533 1092 651 1125 l 504 1119 l 703 1303 l 785 1218 m 560 1063 q 787 997 689 1063 q 938 814 885 931 q 990 550 990 697 q 926 244 990 374 q 753 48 863 115 q 514 -19 644 -19 q 278 47 381 -19 q 120 231 176 113 q 64 497 64 349 q 131 803 64 675 q 310 997 197 931 q 560 1063 424 1063 m 532 1001 q 349 944 429 1001 q 224 775 269 886 q 179 511 179 664 q 222 275 179 382 q 346 105 265 168 q 535 42 426 42 q 714 101 636 42 q 834 271 792 160 q 876 535 876 382 q 836 767 876 661 q 718 938 796 874 q 532 1001 640 1001 z "},"Ô":{"ha":1050,"x_min":64,"x_max":990,"o":"m 768 1126 l 717 1099 l 536 1225 l 350 1099 l 306 1125 l 481 1303 l 592 1303 l 768 1126 m 560 1063 q 787 997 689 1063 q 938 814 885 931 q 990 550 990 697 q 926 244 990 374 q 753 48 863 115 q 514 -19 644 -19 q 278 47 381 -19 q 120 231 176 113 q 64 497 64 349 q 131 803 64 675 q 310 997 197 931 q 560 1063 424 1063 m 532 1001 q 349 944 429 1001 q 224 775 269 886 q 179 511 179 664 q 222 275 179 382 q 346 105 265 168 q 535 42 426 42 q 714 101 636 42 q 834 271 792 160 q 876 535 876 382 q 836 767 876 661 q 718 938 796 874 q 532 1001 640 1001 z "},"Ö":{"ha":1050,"x_min":64,"x_max":992,"o":"m 64 0 m 560 1063 q 787 997 689 1063 q 938 814 885 931 q 992 549 992 697 q 927 244 992 372 q 754 48 863 115 q 514 -19 646 -19 q 278 47 381 -19 q 120 231 176 114 q 64 497 64 349 q 135 810 64 679 q 324 1006 206 942 q 560 1063 428 1063 m 532 1001 q 349 944 429 1001 q 224 775 269 886 q 179 511 179 664 q 222 275 179 382 q 346 105 265 168 q 535 42 426 42 q 714 101 636 42 q 834 271 792 160 q 876 535 876 382 q 836 767 876 661 q 718 938 796 874 q 532 1001 640 1001 m 543 1294 q 599 1274 581 1294 q 617 1221 617 1253 q 591 1159 617 1183 q 531 1135 565 1135 l 526 1135 l 522 1135 q 471 1155 493 1135 q 449 1207 449 1175 q 476 1269 449 1243 q 536 1294 503 1294 l 540 1294 l 544 1294 l 543 1294 z "},"Ò":{"ha":1050,"x_min":64,"x_max":992,"o":"m 64 0 m 560 1063 q 787 997 689 1063 q 938 814 885 931 q 992 549 992 697 q 927 244 992 372 q 754 48 863 115 q 514 -19 646 -19 q 278 47 381 -19 q 120 231 176 114 q 64 497 64 349 q 135 810 64 679 q 324 1006 206 942 q 560 1063 428 1063 m 532 1001 q 349 944 429 1001 q 224 775 269 886 q 179 511 179 664 q 222 275 179 382 q 346 105 265 168 q 535 42 426 42 q 714 101 636 42 q 834 271 792 160 q 876 535 876 382 q 836 767 876 661 q 718 938 796 874 q 532 1001 640 1001 m 538 1092 q 285 1218 422 1125 l 367 1303 l 567 1119 l 538 1092 z "},"Ő":{"ha":1050,"x_min":64,"x_max":992,"o":"m 64 0 m 560 1063 q 787 997 689 1063 q 938 814 885 931 q 992 549 992 697 q 927 244 992 372 q 754 48 863 115 q 514 -19 646 -19 q 278 47 381 -19 q 120 231 176 114 q 64 497 64 349 q 135 810 64 679 q 324 1006 206 942 q 560 1063 428 1063 m 532 1001 q 349 944 429 1001 q 224 775 269 886 q 179 511 179 664 q 222 275 179 382 q 346 105 265 168 q 535 42 426 42 q 714 101 636 42 q 834 271 792 160 q 876 535 876 382 q 836 767 876 661 q 718 938 796 874 q 532 1001 640 1001 m 576 1379 l 643 1313 q 531 1196 607 1263 q 378 1071 454 1129 l 351 1101 l 576 1379 m 899 1379 l 967 1313 q 852 1197 929 1264 q 700 1071 775 1129 l 674 1101 l 899 1379 z "},"Ō":{"ha":1053,"x_min":64,"x_max":992,"o":"m 64 0 m 704 1289 l 704 1206 l 347 1206 l 347 1289 l 704 1289 m 560 1063 q 787 997 689 1063 q 938 814 885 931 q 992 549 992 697 q 927 244 992 372 q 754 48 863 115 q 514 -19 646 -19 q 278 47 381 -19 q 120 231 176 114 q 64 497 64 349 q 135 810 64 679 q 324 1006 206 942 q 560 1063 428 1063 m 532 1001 q 349 944 429 1001 q 224 775 269 886 q 179 511 179 664 q 222 275 179 382 q 346 105 265 168 q 535 42 426 42 q 714 101 636 42 q 834 271 792 160 q 876 535 876 382 q 836 767 876 661 q 718 938 796 874 q 532 1001 640 1001 z "},"Ø":{"ha":1050,"x_min":64,"x_max":990,"o":"m 346 11 q 140 192 215 64 q 64 494 64 321 q 130 801 64 672 q 308 996 196 929 q 556 1063 419 1063 q 701 1039 624 1063 l 740 1147 l 788 1128 l 750 1017 q 927 836 864 958 q 990 550 990 714 q 928 247 990 375 q 759 51 865 119 q 524 -19 653 -17 q 399 -6 454 -19 l 357 -132 l 306 -112 l 346 11 m 676 965 q 532 1001 613 1001 q 349 944 429 1001 q 224 776 269 886 q 179 511 179 665 q 230 253 179 368 q 372 82 281 139 l 676 965 m 424 60 q 535 42 474 42 q 714 101 636 42 q 834 271 792 160 q 876 535 876 382 q 836 769 876 663 q 722 938 796 876 l 424 60 z "},"Õ":{"ha":1050,"x_min":64,"x_max":992,"o":"m 64 0 m 560 1063 q 787 997 689 1063 q 938 814 885 931 q 992 549 992 697 q 927 244 992 372 q 754 48 863 115 q 514 -19 646 -19 q 278 47 381 -19 q 120 231 176 114 q 64 497 64 349 q 135 810 64 679 q 324 1006 206 942 q 560 1063 428 1063 m 532 1001 q 349 944 429 1001 q 224 775 269 886 q 179 511 179 664 q 222 275 179 382 q 346 105 265 168 q 535 42 426 42 q 714 101 636 42 q 834 271 792 160 q 876 535 876 382 q 836 767 876 661 q 718 938 796 874 q 532 1001 640 1001 m 268 1192 q 346 1271 296 1239 q 449 1303 396 1303 q 503 1290 481 1303 q 551 1251 525 1276 q 592 1219 575 1229 q 629 1208 608 1208 q 757 1271 700 1208 l 788 1226 q 710 1148 761 1181 q 606 1115 658 1115 q 552 1129 575 1115 q 504 1168 529 1143 q 464 1201 481 1190 q 426 1211 447 1211 q 356 1193 390 1211 q 297 1149 322 1175 l 268 1192 z "},"Œ":{"ha":1394,"x_min":61,"x_max":1351,"o":"m 560 1063 q 653 1053 600 1063 l 1286 1053 l 1304 864 l 1244 864 l 1217 986 l 825 994 l 825 588 l 1094 593 l 1114 700 l 1169 700 l 1169 415 l 1114 415 l 1094 524 l 825 528 l 825 61 l 1236 72 l 1300 222 l 1351 208 l 1321 0 l 650 0 q 522 -19 596 -15 q 279 47 385 -21 q 117 235 174 114 q 64 513 61 357 q 133 809 67 685 q 312 998 200 933 q 560 1063 424 1063 m 532 1001 q 349 944 429 1001 q 224 776 269 886 q 179 513 179 665 q 222 276 179 383 q 346 104 265 168 q 535 40 426 40 q 722 110 642 40 l 722 929 q 532 1001 643 1001 z "},"P":{"ha":874,"x_min":60,"x_max":835,"o":"m 193 65 l 193 983 l 78 992 l 78 1053 l 243 1053 q 328 1057 274 1053 q 486 1063 425 1063 q 744 991 653 1063 q 835 747 835 919 q 781 565 835 643 q 638 444 726 486 q 453 403 550 403 l 372 403 q 297 400 315 403 l 297 65 l 483 49 l 483 0 l 60 0 l 60 49 l 193 65 m 297 467 q 442 458 353 458 q 649 522 571 460 q 728 743 728 583 q 655 940 728 875 q 438 1000 582 1004 l 399 997 q 357 994 390 997 q 297 985 324 992 l 297 467 z "},"Þ":{"ha":872,"x_min":60,"x_max":835,"o":"m 193 65 l 193 989 l 82 999 l 82 1053 l 413 1053 l 413 999 l 297 989 l 297 835 l 344 840 q 481 851 431 851 q 738 777 642 851 q 835 556 835 703 q 781 377 835 453 q 640 262 728 301 q 456 222 553 222 l 340 224 q 297 225 324 225 l 297 65 l 483 49 l 483 0 l 60 0 l 60 49 l 193 65 m 297 288 q 443 278 354 278 q 649 342 569 279 q 729 556 729 404 q 658 728 729 665 q 456 790 588 790 q 297 768 392 790 l 297 288 z "},"Q":{"ha":1050,"x_min":63,"x_max":990,"o":"m 558 1063 q 785 997 688 1063 q 937 813 883 931 q 990 547 990 696 q 940 274 990 393 q 802 84 889 156 q 607 -10 715 13 q 711 -115 635 -85 q 879 -146 788 -146 q 972 -122 944 -146 l 985 -190 q 934 -224 975 -210 q 838 -239 893 -239 q 651 -190 729 -239 q 543 -19 574 -140 l 522 -19 q 280 46 385 -21 q 119 231 175 113 q 64 497 63 350 q 126 794 64 668 q 294 986 189 919 q 558 1063 411 1063 m 532 1001 q 349 944 429 1001 q 223 776 268 886 q 178 511 178 665 q 222 275 178 382 q 346 105 265 168 q 535 42 426 42 q 713 101 636 42 q 833 271 790 160 q 875 535 875 382 q 835 769 875 663 q 717 938 794 875 q 532 1001 639 1001 z "},"R":{"ha":954,"x_min":60,"x_max":961,"o":"m 449 1063 q 706 999 615 1063 q 796 781 796 936 q 732 597 796 676 q 564 485 668 518 l 571 483 q 668 397 621 465 q 775 219 715 329 q 841 106 817 142 q 885 65 865 69 l 961 49 l 961 0 l 786 0 q 749 37 771 0 q 686 153 726 74 q 554 385 614 300 q 429 463 494 469 l 297 463 l 297 65 l 443 49 l 443 0 l 60 0 l 60 49 l 193 65 l 193 982 l 76 992 l 76 1053 l 254 1053 q 311 1056 264 1053 q 449 1063 401 1063 m 432 1001 q 374 1001 419 1001 q 297 990 328 1000 l 297 528 q 367 524 326 525 q 442 522 408 522 q 622 586 558 524 q 685 767 685 649 q 627 947 685 886 q 432 1001 569 1007 z "},"Ŕ":{"ha":954,"x_min":60,"x_max":961,"o":"m 60 0 m 449 1063 q 706 999 615 1063 q 796 781 796 936 q 732 597 796 676 q 564 485 668 518 l 571 483 q 668 397 621 465 q 775 219 715 329 q 841 106 817 142 q 885 65 865 69 l 961 49 l 961 0 l 786 0 q 749 37 771 0 q 686 153 726 74 q 554 385 614 300 q 429 463 494 469 l 297 463 l 297 65 l 443 49 l 443 0 l 60 0 l 60 49 l 193 65 l 193 982 l 76 992 l 76 1053 l 254 1053 q 311 1056 264 1053 q 449 1063 401 1063 m 432 1001 q 374 1001 419 1001 q 297 990 328 1000 l 297 528 q 367 524 326 525 q 442 522 408 522 q 622 586 558 524 q 685 767 685 649 q 627 947 685 886 q 432 1001 569 1007 m 633 1303 l 717 1218 q 465 1092 585 1126 l 436 1119 l 633 1303 z "},"Ř":{"ha":954,"x_min":60,"x_max":961,"o":"m 60 0 m 449 1063 q 706 999 615 1063 q 796 781 796 936 q 732 597 796 676 q 564 485 668 518 l 571 483 q 668 397 621 465 q 775 219 715 329 q 841 106 817 142 q 885 65 865 69 l 961 49 l 961 0 l 786 0 q 749 37 771 0 q 686 153 726 74 q 554 385 614 300 q 429 463 494 469 l 297 463 l 297 65 l 443 49 l 443 0 l 60 0 l 60 49 l 193 65 l 193 982 l 76 992 l 76 1053 l 254 1053 q 311 1056 264 1053 q 449 1063 401 1063 m 432 1001 q 374 1001 419 1001 q 297 990 328 1000 l 297 528 q 367 524 326 525 q 442 522 408 522 q 622 586 558 524 q 685 767 685 649 q 627 947 685 886 q 432 1001 569 1007 m 299 1303 l 469 1179 l 642 1303 l 686 1275 l 522 1101 l 414 1101 l 249 1274 l 299 1303 z "},"Ŗ":{"ha":954,"x_min":60,"x_max":961,"o":"m 60 0 m 449 1063 q 706 999 615 1063 q 796 781 796 936 q 732 597 796 676 q 564 485 668 518 l 571 483 q 668 397 621 465 q 775 219 715 329 q 841 106 817 142 q 885 65 865 69 l 961 49 l 961 0 l 786 0 q 749 37 771 0 q 686 153 726 74 q 554 385 614 300 q 429 463 494 469 l 297 463 l 297 65 l 443 49 l 443 0 l 60 0 l 60 49 l 193 65 l 193 982 l 76 992 l 76 1053 l 254 1053 q 311 1056 264 1053 q 449 1063 401 1063 m 432 1001 q 374 1001 419 1001 q 297 990 328 1000 l 297 528 q 367 524 326 525 q 442 522 408 522 q 622 586 558 524 q 685 767 685 649 q 627 947 685 886 q 432 1001 569 1007 m 506 -39 q 603 -103 568 -56 q 639 -200 638 -150 q 612 -307 639 -257 q 547 -390 585 -357 q 475 -435 508 -424 l 447 -404 l 447 -386 q 503 -323 485 -371 q 522 -221 522 -275 q 510 -173 522 -194 q 480 -139 497 -151 q 449 -126 463 -126 l 449 -96 l 506 -39 z "},"S":{"ha":826,"x_min":106,"x_max":754,"o":"m 410 -15 q 226 3 315 -15 q 106 42 138 22 l 106 246 l 156 246 l 192 113 q 294 58 231 75 q 428 42 358 42 q 589 90 521 42 q 657 236 657 138 q 622 340 657 294 q 533 421 586 386 q 390 503 481 456 q 249 585 306 546 q 153 678 192 624 q 114 803 114 733 q 165 951 114 892 q 290 1036 215 1010 q 438 1063 364 1063 q 692 1010 603 1063 l 692 829 l 646 829 l 600 960 q 425 1006 549 1006 q 327 987 376 1006 q 244 925 278 968 q 210 815 210 882 q 270 692 210 743 q 443 583 331 640 q 607 492 547 531 q 710 398 667 454 q 754 267 754 342 q 657 54 754 124 q 410 -15 560 -15 z "},"Ś":{"ha":826,"x_min":106,"x_max":754,"o":"m 106 0 m 410 -15 q 226 3 315 -15 q 106 42 138 22 l 106 246 l 156 246 l 192 113 q 294 58 231 75 q 428 42 358 42 q 589 90 521 42 q 657 236 657 138 q 622 340 657 294 q 533 421 586 386 q 390 503 481 456 q 249 585 306 546 q 153 678 192 624 q 114 803 114 733 q 165 951 114 892 q 290 1036 215 1010 q 438 1063 364 1063 q 692 1010 603 1063 l 692 829 l 646 829 l 600 960 q 425 1006 549 1006 q 327 987 376 1006 q 244 925 278 968 q 210 815 210 882 q 270 692 210 743 q 443 583 331 640 q 607 492 547 531 q 710 398 667 454 q 754 267 754 342 q 657 54 754 124 q 410 -15 560 -15 m 517 1303 l 600 1218 q 349 1092 468 1126 l 319 1119 l 517 1303 z "},"Š":{"ha":826,"x_min":106,"x_max":754,"o":"m 106 0 m 410 -15 q 226 3 315 -15 q 106 42 138 22 l 106 246 l 156 246 l 192 113 q 294 58 231 75 q 428 42 358 42 q 589 90 521 42 q 657 236 657 138 q 622 340 657 294 q 533 421 586 386 q 390 503 481 456 q 249 585 306 546 q 153 678 192 624 q 114 803 114 733 q 165 951 114 892 q 290 1036 215 1010 q 438 1063 364 1063 q 692 1010 603 1063 l 692 829 l 646 829 l 600 960 q 425 1006 549 1006 q 327 987 376 1006 q 244 925 278 968 q 210 815 210 882 q 270 692 210 743 q 443 583 331 640 q 607 492 547 531 q 710 398 667 454 q 754 267 754 342 q 657 54 754 124 q 410 -15 560 -15 m 268 1303 l 439 1179 l 611 1303 l 656 1275 l 492 1101 l 383 1101 l 218 1274 l 268 1303 z "},"Ş":{"ha":826,"x_min":106,"x_max":754,"o":"m 753 269 q 664 63 753 133 q 433 -12 575 -7 q 431 -56 431 -37 q 432 -83 431 -75 q 568 -120 522 -82 q 614 -211 614 -158 q 567 -313 614 -275 q 447 -356 521 -351 l 415 -357 q 346 -350 371 -357 q 314 -342 321 -343 l 315 -285 q 358 -292 336 -289 q 397 -296 381 -296 q 477 -279 447 -296 q 507 -210 507 -262 q 476 -152 507 -172 q 386 -132 446 -132 q 365 -133 375 -132 q 350 -135 354 -135 q 367 -12 350 -78 q 208 9 283 -8 q 106 42 132 26 l 106 246 l 156 246 l 192 113 q 294 58 231 75 q 428 42 358 42 q 589 90 521 42 q 657 236 657 138 q 622 340 657 294 q 533 421 586 386 q 390 503 481 456 q 249 585 306 546 q 153 678 192 624 q 114 803 114 733 q 165 951 114 892 q 290 1036 215 1010 q 438 1063 364 1063 q 692 1010 603 1063 l 692 829 l 646 829 l 600 960 q 425 1006 549 1006 q 327 987 376 1006 q 244 925 278 968 q 210 815 210 882 q 270 692 210 743 q 443 583 331 640 q 607 492 547 531 q 710 398 667 454 q 754 267 754 342 l 753 269 z "},"Ș":{"ha":826,"x_min":106,"x_max":754,"o":"m 106 0 m 410 -15 q 226 3 315 -15 q 106 42 138 22 l 106 246 l 156 246 l 192 113 q 294 58 231 75 q 428 42 358 42 q 589 90 521 42 q 657 236 657 138 q 622 340 657 294 q 533 421 586 386 q 390 503 481 456 q 249 585 306 546 q 153 678 192 624 q 114 803 114 733 q 165 951 114 892 q 290 1036 215 1010 q 438 1063 364 1063 q 692 1010 603 1063 l 692 829 l 646 829 l 600 960 q 425 1006 549 1006 q 327 987 376 1006 q 244 925 278 968 q 210 815 210 882 q 270 692 210 743 q 443 583 331 640 q 607 492 547 531 q 710 398 667 454 q 754 267 754 342 q 657 54 754 124 q 410 -15 560 -15 m 390 -56 q 488 -119 453 -72 q 524 -217 522 -167 q 497 -324 524 -274 q 431 -407 469 -374 q 360 -451 393 -440 l 332 -421 l 332 -403 q 388 -340 369 -387 q 407 -237 407 -292 q 394 -190 407 -211 q 365 -156 382 -168 q 333 -143 347 -143 l 333 -112 l 390 -56 z "},"T":{"ha":847,"x_min":19,"x_max":832,"o":"m 382 65 l 382 990 l 111 979 l 67 857 l 19 856 l 36 1053 l 832 1053 l 831 853 l 785 847 l 756 979 l 486 990 l 486 65 l 671 49 l 671 0 l 210 0 l 210 49 l 382 65 z "},"Ť":{"ha":829,"x_min":19,"x_max":832,"o":"m 19 0 m 260 1303 l 431 1179 l 603 1303 l 647 1275 l 483 1101 l 375 1101 l 210 1274 l 260 1303 m 382 65 l 382 990 l 111 979 l 67 857 l 19 856 l 36 1053 l 832 1053 l 831 853 l 785 847 l 756 979 l 486 990 l 486 65 l 671 49 l 671 0 l 210 0 l 210 49 l 382 65 z "},"Ț":{"ha":847,"x_min":19,"x_max":832,"o":"m 19 0 m 382 65 l 382 990 l 111 979 l 67 857 l 19 856 l 36 1053 l 832 1053 l 831 853 l 785 847 l 756 979 l 486 990 l 486 65 l 671 49 l 671 0 l 210 0 l 210 49 l 382 65 m 414 -39 q 511 -103 476 -56 q 547 -200 546 -150 q 520 -307 547 -257 q 455 -390 493 -357 q 383 -435 417 -424 l 356 -404 l 356 -386 q 412 -323 393 -371 q 431 -221 431 -275 q 418 -173 431 -194 q 388 -139 406 -151 q 357 -126 371 -126 l 357 -96 l 414 -39 z "},"U":{"ha":1067,"x_min":22,"x_max":1035,"o":"m 1035 999 l 928 988 l 928 460 q 822 97 928 214 q 536 -19 717 -19 q 223 95 318 -19 q 128 447 128 210 l 129 989 l 22 999 l 22 1053 l 354 1053 l 354 999 l 233 988 l 233 443 q 319 128 233 218 q 557 38 404 38 q 772 147 701 38 q 843 460 843 256 l 843 988 l 721 999 l 721 1053 l 1035 1053 l 1035 999 z "},"Ú":{"ha":1067,"x_min":22,"x_max":1035,"o":"m 22 0 m 1035 999 l 928 988 l 928 460 q 822 97 928 214 q 536 -19 717 -19 q 223 95 318 -19 q 128 447 128 210 l 129 989 l 22 999 l 22 1053 l 354 1053 l 354 999 l 233 988 l 233 443 q 319 128 233 218 q 557 38 404 38 q 772 147 701 38 q 843 460 843 256 l 843 988 l 721 999 l 721 1053 l 1035 1053 l 1035 999 m 713 1303 l 796 1218 q 544 1092 664 1126 l 515 1119 l 713 1303 z "},"Û":{"ha":1068,"x_min":22,"x_max":1035,"o":"m 779 1126 l 726 1099 l 546 1225 l 361 1099 l 315 1125 l 490 1303 l 601 1303 l 779 1126 m 1035 999 l 928 988 l 928 460 q 822 97 928 214 q 536 -19 717 -19 q 223 95 318 -19 q 128 447 128 210 l 129 989 l 22 999 l 22 1053 l 354 1053 l 354 999 l 233 988 l 233 443 q 319 128 233 218 q 557 38 404 38 q 772 147 701 38 q 843 460 843 256 l 843 988 l 721 999 l 721 1053 l 1035 1053 l 1035 999 z "},"Ü":{"ha":1067,"x_min":22,"x_max":1035,"o":"m 22 0 m 1035 999 l 928 988 l 928 460 q 822 97 928 214 q 536 -19 717 -19 q 223 95 318 -19 q 128 447 128 210 l 129 989 l 22 999 l 22 1053 l 354 1053 l 354 999 l 233 988 l 233 443 q 319 128 233 218 q 557 38 404 38 q 772 147 701 38 q 843 460 843 256 l 843 988 l 721 999 l 721 1053 l 1035 1053 l 1035 999 m 551 1294 q 607 1274 589 1294 q 625 1221 625 1253 q 599 1159 625 1183 q 539 1135 574 1135 l 535 1135 l 531 1135 q 479 1155 501 1135 q 457 1207 457 1175 q 484 1269 457 1243 q 544 1294 511 1294 l 549 1294 l 553 1294 l 551 1294 z "},"Ù":{"ha":1067,"x_min":22,"x_max":1035,"o":"m 22 0 m 1035 999 l 928 988 l 928 460 q 822 97 928 214 q 536 -19 717 -19 q 223 95 318 -19 q 128 447 128 210 l 129 989 l 22 999 l 22 1053 l 354 1053 l 354 999 l 233 988 l 233 443 q 319 128 233 218 q 557 38 404 38 q 772 147 701 38 q 843 460 843 256 l 843 988 l 721 999 l 721 1053 l 1035 1053 l 1035 999 m 547 1092 q 294 1218 432 1125 l 376 1303 l 576 1119 l 547 1092 z "},"Ű":{"ha":1067,"x_min":22,"x_max":1035,"o":"m 22 0 m 1035 999 l 928 988 l 928 460 q 822 97 928 214 q 536 -19 717 -19 q 223 95 318 -19 q 128 447 128 210 l 129 989 l 22 999 l 22 1053 l 354 1053 l 354 999 l 233 988 l 233 443 q 319 128 233 218 q 557 38 404 38 q 772 147 701 38 q 843 460 843 256 l 843 988 l 721 999 l 721 1053 l 1035 1053 l 1035 999 m 576 1379 l 643 1313 q 531 1196 607 1263 q 378 1071 454 1129 l 351 1101 l 576 1379 m 899 1379 l 967 1313 q 852 1197 929 1264 q 700 1071 775 1129 l 674 1101 l 899 1379 z "},"Ū":{"ha":1067,"x_min":22,"x_max":1035,"o":"m 22 0 m 1035 999 l 928 988 l 928 460 q 822 97 928 214 q 536 -19 717 -19 q 223 95 318 -19 q 128 447 128 210 l 129 989 l 22 999 l 22 1053 l 354 1053 l 354 999 l 233 988 l 233 443 q 319 128 233 218 q 557 38 404 38 q 772 147 701 38 q 843 460 843 256 l 843 988 l 721 999 l 721 1053 l 1035 1053 l 1035 999 m 717 1261 l 717 1178 l 360 1178 l 360 1261 l 717 1261 z "},"Ų":{"ha":1067,"x_min":22,"x_max":1033,"o":"m 1033 1053 l 1033 999 l 926 988 l 926 460 q 844 128 926 244 q 619 -12 763 13 q 504 -99 557 -43 q 451 -197 451 -156 q 472 -265 451 -242 q 544 -289 493 -289 q 592 -282 564 -289 q 636 -265 621 -275 l 649 -315 q 578 -347 624 -333 q 485 -360 533 -360 q 390 -323 429 -360 q 351 -228 351 -286 q 400 -117 351 -176 q 519 -19 449 -57 q 219 99 310 -15 q 128 447 128 214 l 129 989 l 22 999 l 22 1053 l 354 1053 l 354 999 l 233 988 l 233 443 q 319 128 233 218 q 557 38 404 38 q 772 147 701 38 q 843 460 843 256 l 843 988 l 721 999 l 721 1053 l 1033 1053 z "},"Ů":{"ha":1067,"x_min":22,"x_max":1035,"o":"m 22 0 m 1035 999 l 928 988 l 928 460 q 822 97 928 214 q 536 -19 717 -19 q 223 95 318 -19 q 128 447 128 210 l 129 989 l 22 999 l 22 1053 l 354 1053 l 354 999 l 233 988 l 233 443 q 319 128 233 218 q 557 38 404 38 q 772 147 701 38 q 843 460 843 256 l 843 988 l 721 999 l 721 1053 l 1035 1053 l 1035 999 m 538 1303 q 656 1258 607 1303 q 706 1147 706 1213 q 656 1038 706 1083 q 538 993 607 993 q 419 1038 468 993 q 371 1147 371 1083 q 419 1258 371 1213 q 538 1303 468 1303 m 538 1236 q 468 1210 497 1236 q 439 1147 439 1185 q 467 1083 439 1108 q 538 1057 496 1057 q 608 1083 579 1057 q 636 1146 636 1108 q 607 1210 636 1185 q 538 1236 578 1236 z "},"V":{"ha":961,"x_min":3,"x_max":961,"o":"m 3 999 l 3 1053 l 349 1053 l 349 999 l 218 989 l 474 240 l 518 106 l 556 243 l 779 989 l 667 999 l 667 1053 l 961 1053 l 961 999 l 872 989 l 539 -14 l 460 -14 l 96 989 l 3 999 z "},"W":{"ha":1411,"x_min":1,"x_max":1406,"o":"m 1 999 l 1 1053 l 346 1053 l 346 999 l 208 989 l 440 253 q 483 121 460 194 l 525 244 l 681 864 l 642 989 l 528 999 l 528 1053 l 879 1053 l 879 999 l 756 989 l 954 239 l 988 113 l 1022 264 l 1213 989 l 1090 999 l 1090 1053 l 1406 1053 l 1406 999 l 1301 989 l 1010 -14 l 928 -14 l 721 718 l 518 -14 l 431 -14 l 93 989 l 1 999 z "},"X":{"ha":953,"x_min":8,"x_max":953,"o":"m 129 64 l 426 535 l 140 989 l 38 999 l 38 1053 l 396 1053 l 396 999 l 268 989 l 499 596 l 726 989 l 615 999 l 615 1053 l 921 1053 l 921 999 l 826 989 l 538 553 l 835 64 l 953 49 l 953 0 l 581 0 l 581 49 l 715 65 l 461 481 l 229 64 l 363 49 l 363 0 l 8 0 l 8 49 l 129 64 z "},"Y":{"ha":907,"x_min":8,"x_max":897,"o":"m 418 65 l 418 444 l 89 989 l 8 999 l 8 1053 l 321 1053 l 321 999 l 208 988 l 439 568 l 475 497 l 508 569 l 719 988 l 603 999 l 603 1053 l 897 1053 l 897 999 l 807 982 l 522 439 l 522 65 l 663 49 l 663 0 l 283 0 l 283 49 l 418 65 z "},"Ý":{"ha":907,"x_min":8,"x_max":897,"o":"m 8 0 m 418 65 l 418 444 l 89 989 l 8 999 l 8 1053 l 321 1053 l 321 999 l 208 988 l 439 568 l 475 497 l 508 569 l 719 988 l 603 999 l 603 1053 l 897 1053 l 897 999 l 807 982 l 522 439 l 522 65 l 663 49 l 663 0 l 283 0 l 283 49 l 418 65 m 642 1303 l 725 1218 q 474 1092 593 1126 l 444 1119 l 642 1303 z "},"Ÿ":{"ha":907,"x_min":8,"x_max":897,"o":"m 8 0 m 418 65 l 418 444 l 89 989 l 8 999 l 8 1053 l 321 1053 l 321 999 l 208 988 l 439 568 l 475 497 l 508 569 l 719 988 l 603 999 l 603 1053 l 897 1053 l 897 999 l 807 982 l 522 439 l 522 65 l 663 49 l 663 0 l 283 0 l 283 49 l 418 65 m 482 1294 q 538 1274 519 1294 q 556 1221 556 1253 q 530 1159 556 1183 q 469 1135 504 1135 l 465 1135 l 461 1135 q 410 1155 432 1135 q 388 1207 388 1175 q 415 1269 388 1243 q 475 1294 442 1294 l 479 1294 l 483 1294 l 482 1294 z "},"Z":{"ha":914,"x_min":68,"x_max":874,"o":"m 861 1006 l 263 154 l 190 63 l 739 85 l 815 256 l 874 243 l 828 0 l 85 0 l 68 50 l 674 907 l 743 992 l 226 979 l 169 828 l 110 838 l 129 1053 l 844 1053 l 861 1006 z "},"Ź":{"ha":914,"x_min":68,"x_max":874,"o":"m 68 0 m 861 1006 l 263 154 l 190 63 l 739 85 l 815 256 l 874 243 l 828 0 l 85 0 l 68 50 l 674 907 l 743 992 l 226 979 l 169 828 l 110 838 l 129 1053 l 844 1053 l 861 1006 m 668 1303 l 751 1218 q 500 1092 619 1126 l 471 1119 l 668 1303 z "},"Ž":{"ha":914,"x_min":68,"x_max":874,"o":"m 68 0 m 861 1006 l 263 154 l 190 63 l 739 85 l 815 256 l 874 243 l 828 0 l 85 0 l 68 50 l 674 907 l 743 992 l 226 979 l 169 828 l 110 838 l 129 1053 l 844 1053 l 861 1006 m 332 1303 l 503 1179 l 675 1303 l 719 1275 l 556 1101 l 447 1101 l 282 1274 l 332 1303 z "},"Ż":{"ha":914,"x_min":68,"x_max":874,"o":"m 68 0 m 861 1006 l 263 154 l 190 63 l 739 85 l 815 256 l 874 243 l 828 0 l 85 0 l 68 50 l 674 907 l 743 992 l 226 979 l 169 828 l 110 838 l 129 1053 l 844 1053 l 861 1006 m 501 1228 q 511 1222 511 1228 q 500 1201 511 1201 q 496 1205 500 1201 q 492 1214 492 1208 q 495 1223 492 1218 q 501 1228 499 1228 z "},"a":{"ha":769,"x_min":83,"x_max":722,"o":"m 376 771 q 565 717 494 771 q 636 526 636 663 l 635 50 l 722 50 l 722 11 q 606 -14 672 -14 q 560 -6 575 -14 q 542 22 546 3 q 538 79 538 40 q 299 -15 460 -15 q 190 11 239 -15 q 112 85 140 38 q 83 192 83 132 q 157 342 83 285 q 334 424 231 400 q 535 449 438 449 l 535 514 q 483 657 535 618 q 336 696 432 696 q 235 680 294 696 q 132 640 176 664 l 113 690 q 239 749 158 728 q 376 771 319 771 m 533 389 q 294 348 404 389 q 185 211 185 307 q 361 56 185 56 q 459 78 411 56 q 532 124 507 100 l 533 389 z "},"á":{"ha":769,"x_min":83,"x_max":722,"o":"m 83 0 m 376 771 q 565 717 494 771 q 636 526 636 663 l 635 50 l 722 50 l 722 11 q 606 -14 672 -14 q 560 -6 575 -14 q 542 22 546 3 q 538 79 538 40 q 299 -15 460 -15 q 190 11 239 -15 q 112 85 140 38 q 83 192 83 132 q 157 342 83 285 q 334 424 231 400 q 535 449 438 449 l 535 514 q 483 657 535 618 q 336 696 432 696 q 235 680 294 696 q 132 640 176 664 l 113 690 q 239 749 158 728 q 376 771 319 771 m 533 389 q 294 348 404 389 q 185 211 185 307 q 361 56 185 56 q 459 78 411 56 q 532 124 507 100 l 533 389 m 507 1199 l 585 1114 q 333 910 532 1032 l 303 940 l 507 1199 z "},"ă":{"ha":769,"x_min":83,"x_max":722,"o":"m 83 0 m 376 771 q 565 717 494 771 q 636 526 636 663 l 635 50 l 722 50 l 722 11 q 606 -14 672 -14 q 560 -6 575 -14 q 542 22 546 3 q 538 79 538 40 q 299 -15 460 -15 q 190 11 239 -15 q 112 85 140 38 q 83 192 83 132 q 157 342 83 285 q 334 424 231 400 q 535 449 438 449 l 535 514 q 483 657 535 618 q 336 696 432 696 q 235 680 294 696 q 132 640 176 664 l 113 690 q 239 749 158 728 q 376 771 319 771 m 533 389 q 294 348 404 389 q 185 211 185 307 q 361 56 185 56 q 459 78 411 56 q 532 124 507 100 l 533 389 m 604 1156 q 575 1051 604 1100 q 495 972 546 1001 q 381 942 444 942 q 265 972 315 942 q 187 1051 214 1001 q 160 1154 160 1100 l 208 1154 q 222 1117 210 1151 q 278 1053 235 1082 q 383 1025 321 1025 q 483 1049 446 1025 q 528 1090 519 1074 q 558 1156 536 1106 l 604 1156 z "},"â":{"ha":769,"x_min":83,"x_max":722,"o":"m 83 0 m 376 771 q 565 717 494 771 q 636 526 636 663 l 635 50 l 722 50 l 722 11 q 606 -14 672 -14 q 560 -6 575 -14 q 542 22 546 3 q 538 79 538 40 q 299 -15 460 -15 q 190 11 239 -15 q 112 85 140 38 q 83 192 83 132 q 157 342 83 285 q 334 424 231 400 q 535 449 438 449 l 535 514 q 483 657 535 618 q 336 696 432 696 q 235 680 294 696 q 132 640 176 664 l 113 690 q 239 749 158 728 q 376 771 319 771 m 533 389 q 294 348 404 389 q 185 211 185 307 q 361 56 185 56 q 459 78 411 56 q 532 124 507 100 l 533 389 m 340 1203 l 449 1203 l 629 933 l 582 906 l 393 1106 l 196 906 l 153 931 l 340 1203 z "},"ä":{"ha":769,"x_min":83,"x_max":722,"o":"m 83 0 m 376 771 q 565 717 494 771 q 636 526 636 663 l 635 50 l 722 50 l 722 11 q 606 -14 672 -14 q 560 -6 575 -14 q 542 22 546 3 q 538 79 538 40 q 299 -15 460 -15 q 190 11 239 -15 q 112 85 140 38 q 83 192 83 132 q 157 342 83 285 q 334 424 231 400 q 535 449 438 449 l 535 514 q 483 657 535 618 q 336 696 432 696 q 235 680 294 696 q 132 640 176 664 l 113 690 q 239 749 158 728 q 376 771 319 771 m 533 389 q 294 348 404 389 q 185 211 185 307 q 361 56 185 56 q 459 78 411 56 q 532 124 507 100 l 533 389 m 229 954 q 179 973 200 954 q 158 1025 158 992 q 185 1085 158 1060 q 243 1110 211 1110 q 299 1090 281 1110 q 317 1038 317 1069 q 290 977 317 1000 q 229 954 264 954 m 538 954 q 488 973 508 954 q 467 1025 467 992 q 492 1085 467 1060 q 550 1110 518 1110 q 606 1090 588 1110 q 624 1038 624 1069 q 598 977 624 1000 q 538 954 572 954 z "},"à":{"ha":769,"x_min":83,"x_max":722,"o":"m 83 0 m 376 771 q 565 717 494 771 q 636 526 636 663 l 635 50 l 722 50 l 722 11 q 606 -14 672 -14 q 560 -6 575 -14 q 542 22 546 3 q 538 79 538 40 q 299 -15 460 -15 q 190 11 239 -15 q 112 85 140 38 q 83 192 83 132 q 157 342 83 285 q 334 424 231 400 q 535 449 438 449 l 535 514 q 483 657 535 618 q 336 696 432 696 q 235 680 294 696 q 132 640 176 664 l 113 690 q 239 749 158 728 q 376 771 319 771 m 533 389 q 294 348 404 389 q 185 211 185 307 q 361 56 185 56 q 459 78 411 56 q 532 124 507 100 l 533 389 m 436 932 q 301 1028 356 985 q 218 1114 246 1071 l 296 1199 l 500 940 l 469 910 l 436 932 z "},"ā":{"ha":769,"x_min":83,"x_max":722,"o":"m 83 0 m 376 771 q 565 717 494 771 q 636 526 636 663 l 635 50 l 722 50 l 722 11 q 606 -14 672 -14 q 560 -6 575 -14 q 542 22 546 3 q 538 79 538 40 q 299 -15 460 -15 q 190 11 239 -15 q 112 85 140 38 q 83 192 83 132 q 157 342 83 285 q 334 424 231 400 q 535 449 438 449 l 535 514 q 483 657 535 618 q 336 696 432 696 q 235 680 294 696 q 132 640 176 664 l 113 690 q 239 749 158 728 q 376 771 319 771 m 533 389 q 294 348 404 389 q 185 211 185 307 q 361 56 185 56 q 459 78 411 56 q 532 124 507 100 l 533 389 m 553 1079 l 553 996 l 196 996 l 196 1079 l 553 1079 z "},"ą":{"ha":769,"x_min":83,"x_max":731,"o":"m 375 771 q 565 717 493 771 q 636 526 636 663 l 635 50 l 722 50 l 722 6 q 582 -83 640 -31 q 524 -187 524 -135 q 551 -258 524 -236 q 622 -281 578 -281 q 731 -253 672 -281 l 731 -301 q 660 -337 703 -324 q 575 -351 618 -351 q 467 -318 511 -351 q 424 -218 424 -285 q 479 -99 424 -157 q 599 -14 535 -40 q 548 6 558 -12 q 538 79 538 25 q 299 -15 457 -15 q 190 12 239 -15 q 112 88 140 39 q 83 196 83 136 q 157 344 83 288 q 334 424 231 400 q 533 449 438 449 l 533 514 q 482 657 533 618 q 336 696 431 696 q 235 680 294 696 q 132 640 176 664 l 111 690 q 238 749 157 728 q 375 771 319 771 m 533 389 q 294 348 404 389 q 185 211 185 307 q 361 56 185 56 q 459 78 411 56 q 532 124 507 100 l 533 389 z "},"å":{"ha":769,"x_min":83,"x_max":722,"o":"m 83 0 m 376 771 q 565 717 494 771 q 636 526 636 663 l 635 50 l 722 50 l 722 11 q 606 -14 672 -14 q 560 -6 575 -14 q 542 22 546 3 q 538 79 538 40 q 299 -15 460 -15 q 190 11 239 -15 q 112 85 140 38 q 83 192 83 132 q 157 342 83 285 q 334 424 231 400 q 535 449 438 449 l 535 514 q 483 657 535 618 q 336 696 432 696 q 235 680 294 696 q 132 640 176 664 l 113 690 q 239 749 158 728 q 376 771 319 771 m 533 389 q 294 348 404 389 q 185 211 185 307 q 361 56 185 56 q 459 78 411 56 q 532 124 507 100 l 533 389 m 372 1217 q 490 1170 442 1217 q 538 1057 538 1124 q 490 945 538 992 q 372 899 442 899 q 256 945 304 899 q 207 1057 207 992 q 256 1169 207 1122 q 372 1217 304 1217 m 371 1151 q 303 1123 332 1151 q 275 1056 275 1094 q 303 988 275 1015 q 371 960 332 960 q 440 988 411 960 q 468 1056 468 1015 q 440 1124 468 1096 q 371 1151 411 1151 z "},"ã":{"ha":769,"x_min":83,"x_max":722,"o":"m 83 0 m 376 771 q 565 717 494 771 q 636 526 636 663 l 635 50 l 722 50 l 722 11 q 606 -14 672 -14 q 560 -6 575 -14 q 542 22 546 3 q 538 79 538 40 q 299 -15 460 -15 q 190 11 239 -15 q 112 85 140 38 q 83 192 83 132 q 157 342 83 285 q 334 424 231 400 q 535 449 438 449 l 535 514 q 483 657 535 618 q 336 696 432 696 q 235 680 294 696 q 132 640 176 664 l 113 690 q 239 749 158 728 q 376 771 319 771 m 533 389 q 294 348 404 389 q 185 211 185 307 q 361 56 185 56 q 459 78 411 56 q 532 124 507 100 l 533 389 m 126 1015 q 206 1094 154 1061 q 308 1128 257 1128 q 360 1114 339 1128 q 408 1074 382 1100 q 450 1039 433 1050 q 489 1028 467 1028 q 617 1097 550 1028 l 646 1056 q 568 976 619 1008 q 464 943 517 943 q 413 956 433 943 q 364 996 392 969 q 324 1031 340 1019 q 285 1042 307 1042 q 216 1022 247 1042 q 156 972 185 1003 l 126 1015 z "},"æ":{"ha":1217,"x_min":82,"x_max":1150,"o":"m 901 782 q 1084 700 1018 782 q 1150 474 1150 618 q 1147 417 1150 444 q 1142 381 1143 390 l 633 381 q 712 137 632 213 q 908 61 792 61 q 1024 76 963 61 q 1113 107 1086 90 l 1135 58 q 1022 4 1100 25 q 867 -17 943 -17 q 703 22 772 -17 q 593 131 635 60 q 478 26 560 67 q 296 -15 397 -15 q 188 11 238 -15 q 110 85 139 38 q 82 193 82 133 q 83 218 82 210 q 172 357 92 306 q 353 428 251 408 q 532 447 454 449 l 532 514 q 481 658 532 619 q 338 696 431 696 q 238 680 296 696 q 132 639 179 664 l 113 690 q 238 749 157 726 q 378 771 319 771 q 526 742 465 771 q 614 638 588 713 q 737 744 664 707 q 901 782 810 782 m 864 719 q 709 652 772 719 q 635 449 646 585 l 1039 449 q 1040 492 1040 464 q 949 711 1040 658 q 864 719 917 719 m 532 389 q 381 374 461 390 q 244 319 301 358 q 186 213 186 279 q 231 94 186 133 q 358 56 276 56 q 463 85 414 56 q 531 154 513 114 l 532 389 z "},"b":{"ha":851,"x_min":26,"x_max":781,"o":"m 26 1031 l 26 1079 l 224 1100 l 247 1089 l 247 688 q 353 756 297 729 q 483 782 410 782 q 628 744 561 782 q 738 624 696 707 q 781 410 781 540 q 733 195 781 293 q 599 39 685 97 q 401 -19 513 -19 q 285 -10 342 -19 q 191 11 229 -1 q 146 33 153 24 l 146 1011 l 26 1031 m 247 96 q 303 56 257 69 q 414 43 349 43 q 542 81 482 43 q 641 197 603 118 q 679 394 679 276 q 610 627 679 553 q 439 701 540 701 q 330 679 381 701 q 247 626 279 657 l 247 96 z "},"c":{"ha":703,"x_min":74,"x_max":649,"o":"m 454 779 q 556 770 508 779 q 626 746 603 761 l 626 596 l 576 596 l 547 679 q 492 703 525 696 q 426 711 460 711 q 299 678 357 711 q 206 578 242 644 q 171 414 171 511 q 209 215 171 293 q 307 100 247 136 q 431 64 367 64 q 541 77 482 64 q 629 110 600 90 l 649 58 q 541 6 613 25 q 394 -14 469 -14 q 221 35 293 -14 q 111 172 149 85 q 74 368 74 258 q 124 587 74 493 q 262 730 175 681 q 454 779 349 779 z "},"ć":{"ha":703,"x_min":74,"x_max":649,"o":"m 74 0 m 454 779 q 556 770 508 779 q 626 746 603 761 l 626 596 l 576 596 l 547 679 q 492 703 525 696 q 426 711 460 711 q 299 678 357 711 q 206 578 242 644 q 171 414 171 511 q 209 215 171 293 q 307 100 247 136 q 431 64 367 64 q 541 77 482 64 q 629 110 600 90 l 649 58 q 541 6 613 25 q 394 -14 469 -14 q 221 35 293 -14 q 111 172 149 85 q 74 368 74 258 q 124 587 74 493 q 262 730 175 681 q 454 779 349 779 m 538 1199 l 615 1114 q 364 910 563 1032 l 333 940 l 538 1199 z "},"č":{"ha":703,"x_min":74,"x_max":661,"o":"m 74 0 m 454 779 q 556 770 508 779 q 626 746 603 761 l 626 596 l 576 596 l 547 679 q 492 703 525 696 q 426 711 460 711 q 299 678 357 711 q 206 578 242 644 q 171 414 171 511 q 209 215 171 293 q 307 100 247 136 q 431 64 367 64 q 541 77 482 64 q 629 110 600 90 l 649 58 q 541 6 613 25 q 394 -14 469 -14 q 221 35 293 -14 q 111 172 149 85 q 74 368 74 258 q 124 587 74 493 q 262 730 175 681 q 454 779 349 779 m 233 1201 l 425 1003 l 619 1203 l 661 1176 l 479 906 l 372 906 l 185 1176 l 233 1201 z "},"ç":{"ha":703,"x_min":74,"x_max":649,"o":"m 419 -86 q 556 -123 510 -85 q 601 -214 601 -161 q 555 -316 601 -278 q 435 -358 508 -354 l 403 -360 q 333 -353 358 -360 q 301 -344 308 -346 l 303 -287 q 346 -295 324 -292 q 385 -299 368 -299 q 465 -282 435 -299 q 494 -212 494 -265 q 464 -155 494 -175 q 374 -135 433 -135 q 352 -136 363 -135 q 338 -137 342 -137 q 356 -12 338 -85 q 148 106 222 1 q 74 367 74 211 q 124 585 74 492 q 262 728 175 679 q 454 778 349 778 q 556 769 508 778 q 626 744 603 760 l 626 594 l 576 594 l 547 678 q 492 702 525 694 q 426 710 460 710 q 299 676 357 710 q 206 576 242 643 q 171 413 171 510 q 209 213 171 292 q 307 99 247 135 q 431 63 367 63 q 541 76 482 63 q 629 108 600 89 l 649 57 q 553 8 615 26 q 419 -14 490 -11 q 417 -57 417 -39 q 418 -85 417 -76 l 419 -86 z "},"d":{"ha":853,"x_min":72,"x_max":796,"o":"m 704 1086 l 704 50 l 796 50 l 796 6 q 736 -12 774 -6 q 669 -19 699 -19 q 615 -1 628 -19 q 606 69 603 17 q 514 10 575 38 q 367 -17 453 -17 q 222 24 289 -17 q 113 151 154 65 q 72 367 72 238 q 123 580 72 485 q 262 728 174 675 q 457 782 350 782 q 601 757 536 782 l 601 1008 l 461 1026 l 461 1076 l 678 1100 l 704 1086 m 443 719 q 316 687 378 719 q 213 579 254 654 q 172 385 172 504 q 205 206 172 278 q 290 99 238 133 q 406 65 343 65 q 514 83 461 65 q 601 133 567 100 l 601 660 q 443 719 554 719 z "},"ð":{"ha":828,"x_min":71,"x_max":758,"o":"m 575 1117 l 463 1018 q 682 751 606 910 q 758 414 758 592 q 711 182 758 279 q 586 34 664 85 q 415 -18 508 -17 q 235 24 313 -21 q 114 152 157 69 q 71 340 71 235 q 117 536 71 456 q 242 657 164 617 q 415 697 321 697 q 538 669 472 697 q 638 599 604 640 q 553 800 614 707 q 408 965 492 893 l 292 863 l 232 910 l 346 1014 q 221 1079 275 1061 l 236 1142 q 396 1064 315 1113 l 469 1129 l 513 1167 l 575 1117 m 414 636 q 242 560 300 636 q 183 347 183 483 q 210 194 183 264 q 292 83 238 125 q 424 42 346 42 q 541 90 490 42 q 618 213 592 138 q 644 368 644 288 q 640 458 644 438 q 603 538 631 497 q 526 608 575 579 q 414 636 478 636 z "},"ď":{"ha":976,"x_min":72,"x_max":928,"o":"m 72 0 m 704 1086 l 704 50 l 796 50 l 796 6 q 736 -12 774 -6 q 669 -19 699 -19 q 615 -1 628 -19 q 606 69 603 17 q 514 10 575 38 q 367 -17 453 -17 q 222 24 289 -17 q 113 151 154 65 q 72 367 72 238 q 123 580 72 485 q 262 728 174 675 q 457 782 350 782 q 601 757 536 782 l 601 1008 l 461 1026 l 461 1076 l 678 1100 l 704 1086 m 443 719 q 316 687 378 719 q 213 579 254 654 q 172 385 172 504 q 205 206 172 278 q 290 99 238 133 q 406 65 343 65 q 514 83 461 65 q 601 133 567 100 l 601 660 q 443 719 554 719 m 800 751 q 826 910 826 826 q 816 1019 826 968 q 792 1086 806 1071 l 801 1115 l 886 1139 q 916 1076 904 1119 q 928 986 928 1033 q 903 819 928 901 q 843 710 878 738 l 801 733 l 800 751 z "},"đ":{"ha":853,"x_min":72,"x_max":822,"o":"m 704 835 l 704 50 l 796 50 l 796 6 q 736 -12 774 -6 q 669 -19 699 -19 q 615 -1 628 -19 q 606 69 603 17 q 514 10 575 38 q 367 -17 453 -17 q 223 24 290 -17 q 114 142 156 64 q 72 331 72 221 q 122 549 72 460 q 260 683 172 639 q 457 726 347 726 q 601 701 536 726 l 601 835 l 333 835 l 333 904 l 601 904 l 601 1008 l 461 1026 l 461 1076 l 678 1100 l 704 1086 l 704 904 l 822 904 l 822 835 l 704 835 m 601 604 q 547 646 582 628 q 443 664 513 664 q 316 634 378 664 q 213 535 254 604 q 172 356 172 467 q 240 137 172 208 q 406 65 307 65 q 515 83 461 65 q 601 133 568 100 l 601 604 z "},"e":{"ha":769,"x_min":71,"x_max":700,"o":"m 440 782 q 624 709 556 785 q 697 499 693 633 q 690 381 700 450 l 172 381 q 242 147 171 233 q 446 61 314 61 q 565 75 503 61 q 654 107 628 89 l 676 58 q 563 4 640 25 q 404 -17 485 -17 q 158 90 246 -17 q 71 378 71 197 q 118 583 71 492 q 249 726 165 674 q 440 782 333 779 m 408 719 q 252 652 317 719 q 175 449 188 585 l 588 449 l 589 489 q 497 707 589 657 q 408 719 458 719 z "},"é":{"ha":769,"x_min":71,"x_max":700,"o":"m 71 0 m 440 782 q 624 709 556 785 q 697 499 693 633 q 690 381 700 450 l 172 381 q 242 147 171 233 q 446 61 314 61 q 565 75 503 61 q 654 107 628 89 l 676 58 q 563 4 640 25 q 404 -17 485 -17 q 158 90 246 -17 q 71 378 71 197 q 118 583 71 492 q 249 726 165 674 q 440 782 333 779 m 408 719 q 252 652 317 719 q 175 449 188 585 l 588 449 l 589 489 q 497 707 589 657 q 408 719 458 719 m 522 1199 l 600 1114 q 349 910 547 1032 l 318 940 l 522 1199 z "},"ě":{"ha":769,"x_min":71,"x_max":700,"o":"m 71 0 m 440 782 q 624 709 556 785 q 697 499 693 633 q 690 381 700 450 l 172 381 q 242 147 171 233 q 446 61 314 61 q 565 75 503 61 q 654 107 628 89 l 676 58 q 563 4 640 25 q 404 -17 485 -17 q 158 90 246 -17 q 71 378 71 197 q 118 583 71 492 q 249 726 165 674 q 440 782 333 779 m 408 719 q 252 652 317 719 q 175 449 188 585 l 588 449 l 589 489 q 497 707 589 657 q 408 719 458 719 m 219 1201 l 411 1003 l 606 1203 l 647 1176 l 465 906 l 358 906 l 171 1176 l 219 1201 z "},"ê":{"ha":769,"x_min":71,"x_max":700,"o":"m 71 0 m 440 782 q 624 709 556 785 q 697 499 693 633 q 690 381 700 450 l 172 381 q 242 147 171 233 q 446 61 314 61 q 565 75 503 61 q 654 107 628 89 l 676 58 q 563 4 640 25 q 404 -17 485 -17 q 158 90 246 -17 q 71 378 71 197 q 118 583 71 492 q 249 726 165 674 q 440 782 333 779 m 408 719 q 252 652 317 719 q 175 449 188 585 l 588 449 l 589 489 q 497 707 589 657 q 408 719 458 719 m 356 1203 l 464 1203 l 644 933 l 597 906 l 408 1106 l 211 906 l 168 931 l 356 1203 z "},"ë":{"ha":769,"x_min":71,"x_max":700,"o":"m 71 0 m 440 782 q 624 709 556 785 q 697 499 693 633 q 690 381 700 450 l 172 381 q 242 147 171 233 q 446 61 314 61 q 565 75 503 61 q 654 107 628 89 l 676 58 q 563 4 640 25 q 404 -17 485 -17 q 158 90 246 -17 q 71 378 71 197 q 118 583 71 492 q 249 726 165 674 q 440 782 333 779 m 408 719 q 252 652 317 719 q 175 449 188 585 l 588 449 l 589 489 q 497 707 589 657 q 408 719 458 719 m 246 954 q 196 973 217 954 q 175 1025 175 992 q 201 1085 175 1060 q 260 1110 228 1110 q 315 1090 297 1110 q 333 1038 333 1069 q 307 977 333 1000 q 246 954 281 954 m 554 954 q 504 973 525 954 q 483 1025 483 992 q 509 1085 483 1060 q 567 1110 535 1110 q 622 1090 604 1110 q 640 1038 640 1069 q 615 977 640 1000 q 554 954 589 954 z "},"ė":{"ha":769,"x_min":71,"x_max":700,"o":"m 71 0 m 440 782 q 624 709 556 785 q 697 499 693 633 q 690 381 700 450 l 172 381 q 242 147 171 233 q 446 61 314 61 q 565 75 503 61 q 654 107 628 89 l 676 58 q 563 4 640 25 q 404 -17 485 -17 q 158 90 246 -17 q 71 378 71 197 q 118 583 71 492 q 249 726 165 674 q 440 782 333 779 m 408 719 q 252 652 317 719 q 175 449 188 585 l 588 449 l 589 489 q 497 707 589 657 q 408 719 458 719 m 428 1100 q 483 1079 465 1100 q 501 1028 501 1058 q 475 965 501 990 q 414 940 449 940 q 364 961 386 940 q 342 1014 342 982 q 369 1074 342 1049 q 428 1100 396 1100 z "},"è":{"ha":769,"x_min":71,"x_max":700,"o":"m 71 0 m 440 782 q 624 709 556 785 q 697 499 693 633 q 690 381 700 450 l 172 381 q 242 147 171 233 q 446 61 314 61 q 565 75 503 61 q 654 107 628 89 l 676 58 q 563 4 640 25 q 404 -17 485 -17 q 158 90 246 -17 q 71 378 71 197 q 118 583 71 492 q 249 726 165 674 q 440 782 333 779 m 408 719 q 252 652 317 719 q 175 449 188 585 l 588 449 l 589 489 q 497 707 589 657 q 408 719 458 719 m 451 932 q 316 1028 371 985 q 233 1114 261 1071 l 311 1199 l 515 940 l 485 910 l 451 932 z "},"ē":{"ha":769,"x_min":71,"x_max":700,"o":"m 71 0 m 440 782 q 624 709 556 785 q 697 499 693 633 q 690 381 700 450 l 172 381 q 242 147 171 233 q 446 61 314 61 q 565 75 503 61 q 654 107 628 89 l 676 58 q 563 4 640 25 q 404 -17 485 -17 q 158 90 246 -17 q 71 378 71 197 q 118 583 71 492 q 249 726 165 674 q 440 782 333 779 m 408 719 q 252 652 317 719 q 175 449 188 585 l 588 449 l 589 489 q 497 707 589 657 q 408 719 458 719 m 582 1079 l 582 996 l 225 996 l 225 1079 l 582 1079 z "},"ę":{"ha":769,"x_min":71,"x_max":699,"o":"m 444 782 q 628 704 561 782 q 697 489 696 626 q 690 381 699 438 l 172 381 q 242 147 171 233 q 446 61 314 61 q 565 75 503 61 q 654 107 628 89 l 676 57 q 519 -76 568 -24 q 471 -176 471 -129 q 501 -251 471 -226 q 578 -275 532 -275 q 678 -250 635 -275 l 678 -303 q 538 -346 622 -346 q 418 -310 467 -346 q 369 -203 369 -275 q 408 -100 369 -156 q 507 -7 446 -44 q 404 -17 446 -17 q 158 90 246 -17 q 71 378 71 197 q 119 585 71 493 q 252 730 167 678 q 444 782 338 782 m 408 719 q 252 652 317 719 q 175 449 188 585 l 588 449 q 588 470 589 461 q 588 486 588 479 q 546 658 588 597 q 408 719 504 719 z "},"f":{"ha":560,"x_min":67,"x_max":581,"o":"m 222 61 l 222 676 l 67 676 l 67 721 l 222 754 l 222 815 q 265 986 222 913 q 369 1100 307 1060 q 489 1140 432 1140 q 581 1129 558 1140 l 581 1033 q 538 1047 569 1040 q 464 1053 507 1053 q 391 1040 421 1053 q 343 984 361 1026 q 325 861 325 942 l 325 753 l 536 753 l 536 676 l 325 676 l 325 60 l 482 49 l 482 0 l 81 0 l 81 49 l 222 61 z "},"g":{"ha":810,"x_min":90,"x_max":789,"o":"m 407 789 q 596 738 519 792 q 704 767 631 767 l 789 767 l 789 682 l 649 683 q 688 536 688 622 q 647 388 688 451 q 538 292 606 325 q 390 258 469 258 q 244 285 307 258 q 233 240 235 264 q 231 183 231 217 q 251 122 231 142 q 324 99 272 101 q 499 94 357 94 q 674 61 617 94 q 747 -15 732 28 q 761 -110 761 -57 q 669 -292 761 -224 q 417 -360 576 -360 q 183 -313 276 -360 q 90 -160 90 -267 q 127 -51 90 -103 q 207 28 164 1 q 155 60 171 40 q 136 96 139 79 q 133 142 133 113 q 156 219 133 171 q 215 301 178 267 q 104 511 104 369 q 147 662 104 600 q 259 755 190 724 q 407 789 328 786 m 389 728 q 256 681 306 728 q 206 531 206 635 q 257 377 206 436 q 410 318 308 318 q 540 367 497 318 q 583 518 583 415 q 535 676 583 625 q 389 728 486 728 m 246 15 q 193 -125 193 -37 q 261 -255 193 -215 q 429 -294 329 -294 q 613 -254 544 -294 q 681 -136 681 -214 q 665 -60 681 -90 q 603 -13 649 -31 q 471 4 557 4 l 375 4 q 246 15 299 4 z "},"ğ":{"ha":810,"x_min":90,"x_max":789,"o":"m 90 0 m 407 789 q 596 738 519 792 q 704 767 631 767 l 789 767 l 789 682 l 649 683 q 688 536 688 622 q 647 388 688 451 q 538 292 606 325 q 390 258 469 258 q 244 285 307 258 q 233 240 235 264 q 231 183 231 217 q 251 122 231 142 q 324 99 272 101 q 499 94 357 94 q 674 61 617 94 q 747 -15 732 28 q 761 -110 761 -57 q 669 -292 761 -224 q 417 -360 576 -360 q 183 -313 276 -360 q 90 -160 90 -267 q 127 -51 90 -103 q 207 28 164 1 q 155 60 171 40 q 136 96 139 79 q 133 142 133 113 q 156 219 133 171 q 215 301 178 267 q 104 511 104 369 q 147 662 104 600 q 259 755 190 724 q 407 789 328 786 m 389 728 q 256 681 306 728 q 206 531 206 635 q 257 377 206 436 q 410 318 308 318 q 540 367 497 318 q 583 518 583 415 q 535 676 583 625 q 389 728 486 728 m 246 15 q 193 -125 193 -37 q 261 -255 193 -215 q 429 -294 329 -294 q 613 -254 544 -294 q 681 -136 681 -214 q 665 -60 681 -90 q 603 -13 649 -31 q 471 4 557 4 l 375 4 q 246 15 299 4 m 624 1156 q 594 1051 624 1100 q 515 972 565 1001 q 400 942 464 942 q 284 972 335 942 q 206 1051 233 1001 q 179 1154 179 1100 l 228 1154 q 242 1117 229 1151 q 297 1053 254 1082 q 403 1025 340 1025 q 502 1049 465 1025 q 547 1090 539 1074 q 578 1156 556 1106 l 624 1156 z "},"ģ":{"ha":810,"x_min":90,"x_max":789,"o":"m 90 0 m 407 789 q 596 738 519 792 q 704 767 631 767 l 789 767 l 789 682 l 649 683 q 688 536 688 622 q 647 388 688 451 q 538 292 606 325 q 390 258 469 258 q 244 285 307 258 q 233 240 235 264 q 231 183 231 217 q 251 122 231 142 q 324 99 272 101 q 499 94 357 94 q 674 61 617 94 q 747 -15 732 28 q 761 -110 761 -57 q 669 -292 761 -224 q 417 -360 576 -360 q 183 -313 276 -360 q 90 -160 90 -267 q 127 -51 90 -103 q 207 28 164 1 q 155 60 171 40 q 136 96 139 79 q 133 142 133 113 q 156 219 133 171 q 215 301 178 267 q 104 511 104 369 q 147 662 104 600 q 259 755 190 724 q 407 789 328 786 m 389 728 q 256 681 306 728 q 206 531 206 635 q 257 377 206 436 q 410 318 308 318 q 540 367 497 318 q 583 518 583 415 q 535 676 583 625 q 389 728 486 728 m 246 15 q 193 -125 193 -37 q 261 -255 193 -215 q 429 -294 329 -294 q 613 -254 544 -294 q 681 -136 681 -214 q 665 -60 681 -90 q 603 -13 649 -31 q 471 4 557 4 l 375 4 q 246 15 299 4 m 417 892 q 319 956 354 908 q 283 1053 285 1003 q 310 1160 283 1110 q 376 1243 338 1210 q 447 1288 414 1276 l 475 1257 l 475 1239 q 419 1176 438 1224 q 400 1074 400 1128 q 413 1026 400 1047 q 442 992 425 1004 q 474 979 460 979 l 474 949 l 417 892 z "},"h":{"ha":951,"x_min":75,"x_max":900,"o":"m 194 61 l 194 1007 l 75 1026 l 75 1076 l 267 1100 l 296 1085 l 294 779 l 294 665 q 433 742 353 711 q 568 772 514 772 q 709 737 660 772 q 778 624 758 701 q 797 410 799 546 l 797 61 l 900 49 l 900 0 l 579 0 l 579 49 l 694 61 l 694 358 q 683 553 694 485 q 634 656 671 622 q 522 690 597 690 q 406 672 469 690 q 296 622 343 654 l 296 61 l 403 49 l 403 0 l 92 0 l 92 49 l 194 61 z "},"ħ":{"ha":951,"x_min":75,"x_max":900,"o":"m 194 61 l 194 835 l 76 835 l 76 904 l 194 904 l 194 1007 l 75 1026 l 75 1076 l 267 1100 l 296 1085 l 294 904 l 425 904 l 425 835 l 294 835 l 294 665 q 433 742 353 711 q 568 772 514 772 q 709 737 660 772 q 778 624 758 701 q 797 410 799 546 l 797 61 l 900 49 l 900 0 l 579 0 l 579 49 l 694 61 l 694 358 q 683 553 694 485 q 634 656 671 622 q 522 690 597 690 q 406 672 469 690 q 296 622 343 654 l 296 61 l 403 49 l 403 0 l 92 0 l 92 49 l 194 61 z "},"i":{"ha":457,"x_min":88,"x_max":414,"o":"m 239 1103 q 292 1083 274 1103 q 310 1032 310 1063 q 285 972 310 996 q 226 949 260 949 q 176 968 197 949 q 156 1018 156 988 q 181 1078 156 1053 q 239 1103 207 1103 m 301 757 l 301 61 l 414 49 l 414 0 l 88 0 l 88 49 l 204 61 l 204 653 l 107 690 l 107 725 l 276 769 l 301 757 z "},"ı":{"ha":457,"x_min":88,"x_max":414,"o":"m 204 61 l 204 653 l 107 690 l 107 725 l 276 769 l 301 757 l 301 61 l 414 49 l 414 0 l 88 0 l 88 49 l 204 61 z "},"í":{"ha":457,"x_min":88,"x_max":432,"o":"m 88 0 m 204 61 l 204 653 l 107 690 l 107 725 l 276 769 l 301 757 l 301 61 l 414 49 l 414 0 l 88 0 l 88 49 l 204 61 m 354 1199 l 432 1114 q 181 910 379 1032 l 150 940 l 354 1199 z "},"î":{"ha":457,"x_min":-1,"x_max":475,"o":"m 186 1203 l 294 1203 l 475 933 l 428 906 l 240 1106 l 40 906 l -1 931 l 186 1203 m 204 61 l 204 653 l 107 690 l 107 725 l 276 769 l 301 756 l 301 61 l 414 49 l 414 0 l 88 0 l 88 49 l 204 61 z "},"ï":{"ha":457,"x_min":4,"x_max":469,"o":"m 4 0 m 204 61 l 204 653 l 107 690 l 107 725 l 276 769 l 301 757 l 301 61 l 414 49 l 414 0 l 88 0 l 88 49 l 204 61 m 75 954 q 25 973 46 954 q 4 1025 4 992 q 31 1085 4 1060 q 89 1110 57 1110 q 144 1090 126 1110 q 163 1038 163 1069 q 136 977 163 1000 q 75 954 110 954 m 383 954 q 333 973 354 954 q 313 1025 313 992 q 338 1085 313 1060 q 396 1110 364 1110 q 451 1090 433 1110 q 469 1038 469 1069 q 444 977 469 1000 q 383 954 418 954 z "},"ì":{"ha":457,"x_min":65,"x_max":414,"o":"m 283 932 q 148 1028 203 985 q 65 1114 93 1071 l 143 1199 l 347 940 l 317 910 l 283 932 m 204 61 l 204 653 l 107 690 l 107 725 l 276 769 l 301 756 l 301 61 l 414 49 l 414 0 l 88 0 l 88 49 l 204 61 z "},"ĳ":{"ha":894,"x_min":88,"x_max":765,"o":"m 88 0 m 239 1103 q 292 1083 274 1103 q 310 1032 310 1063 q 285 972 310 996 q 226 949 260 949 q 176 968 197 949 q 156 1018 156 988 q 181 1078 156 1053 q 239 1103 207 1103 m 301 757 l 301 61 l 414 49 l 414 0 l 88 0 l 88 49 l 204 61 l 204 653 l 107 690 l 107 725 l 276 769 l 301 757 m 694 1113 q 748 1093 731 1113 q 765 1042 765 1074 q 740 983 765 1006 q 682 960 715 960 q 632 978 653 960 q 611 1031 611 997 q 637 1089 611 1065 q 694 1113 663 1113 m 758 757 l 758 -8 q 694 -257 758 -168 q 519 -346 631 -346 q 481 -344 504 -346 q 454 -339 458 -343 l 454 -260 q 526 -267 474 -267 q 602 -243 574 -267 q 645 -162 631 -219 q 660 -1 660 -104 l 660 653 l 558 690 l 558 725 l 733 769 l 758 757 z "},"ī":{"ha":457,"x_min":47,"x_max":414,"o":"m 47 0 m 204 61 l 204 653 l 107 690 l 107 725 l 276 769 l 301 757 l 301 61 l 414 49 l 414 0 l 88 0 l 88 49 l 204 61 m 404 1079 l 404 996 l 47 996 l 47 1079 l 404 1079 z "},"į":{"ha":457,"x_min":67,"x_max":417,"o":"m 226 949 q 176 968 197 949 q 156 1018 156 988 q 181 1078 156 1053 q 239 1103 207 1103 q 292 1083 274 1103 q 310 1032 310 1063 q 285 972 310 996 q 226 949 260 949 m 417 -287 q 333 -338 376 -318 q 218 -358 290 -358 q 104 -321 142 -358 q 67 -229 67 -283 q 127 -101 67 -168 q 267 0 188 -35 l 88 0 l 88 49 l 204 61 l 204 653 l 107 690 l 107 725 l 276 769 l 301 757 l 301 61 l 414 49 l 414 0 l 367 0 q 277 -49 325 -14 q 196 -124 229 -83 q 163 -199 163 -165 q 185 -266 163 -247 q 258 -287 207 -285 q 404 -237 314 -292 l 417 -287 z "},"ĩ":{"ha":457,"x_min":-28,"x_max":492,"o":"m 0 0 m 204 61 l 204 653 l 107 690 l 107 725 l 276 769 l 301 757 l 301 61 l 414 49 l 414 0 l 88 0 l 88 49 l 204 61 m -28 1015 q 51 1094 0 1061 q 154 1128 103 1128 q 206 1114 185 1128 q 254 1074 228 1100 q 296 1039 279 1050 q 335 1028 313 1028 q 463 1097 396 1028 l 492 1056 q 414 976 465 1008 q 310 943 363 943 q 258 956 279 943 q 210 996 238 969 q 169 1031 186 1019 q 131 1042 153 1042 q 62 1022 93 1042 q 1 972 31 1003 l -28 1015 z "},"j":{"ha":438,"x_min":-3,"x_max":308,"o":"m 238 1113 q 291 1093 274 1113 q 308 1042 308 1074 q 283 983 308 1006 q 225 960 258 960 q 175 978 196 960 q 154 1031 154 997 q 180 1089 154 1065 q 238 1113 206 1113 m 301 757 l 301 -8 q 238 -257 301 -168 q 63 -346 174 -346 q 24 -344 47 -346 q -3 -339 1 -343 l -3 -260 q 69 -267 17 -267 q 145 -243 117 -267 q 188 -162 174 -219 q 203 -1 203 -104 l 203 653 l 101 690 l 101 725 l 276 769 l 301 757 z "},"ȷ":{"ha":438,"x_min":-3,"x_max":301,"o":"m 101 690 l 101 725 l 276 769 l 301 757 l 301 -8 q 238 -257 301 -168 q 63 -346 174 -346 q 24 -344 47 -346 q -3 -339 1 -343 l -3 -260 q 69 -267 17 -267 q 145 -243 117 -267 q 188 -162 174 -219 q 203 -1 203 -104 l 203 653 l 101 690 z "},"ĵ":{"ha":438,"x_min":-3,"x_max":486,"o":"m 197 1199 l 306 1199 l 486 928 l 439 901 l 251 1100 l 53 901 l 10 926 l 197 1199 m 101 690 l 101 725 l 276 769 l 301 757 l 301 -8 q 238 -257 301 -168 q 63 -346 174 -346 q 24 -344 47 -346 q -3 -339 1 -343 l -3 -260 q 69 -267 17 -267 q 145 -243 117 -267 q 188 -162 174 -219 q 203 -1 203 -104 l 203 653 l 101 690 z "},"k":{"ha":857,"x_min":72,"x_max":875,"o":"m 194 61 l 194 1010 l 72 1028 l 72 1076 l 274 1100 l 297 1086 l 297 497 l 294 369 l 625 700 l 526 708 l 526 767 l 822 767 l 822 708 l 724 699 l 475 454 l 775 61 l 875 49 l 875 0 l 563 0 l 563 49 l 664 63 l 414 404 l 294 290 l 297 136 l 297 60 l 400 49 l 400 0 l 82 0 l 82 49 l 194 61 z "},"ķ":{"ha":857,"x_min":72,"x_max":875,"o":"m 72 0 m 194 61 l 194 1010 l 72 1028 l 72 1076 l 274 1100 l 297 1086 l 297 497 l 294 369 l 625 700 l 526 708 l 526 767 l 822 767 l 822 708 l 724 699 l 475 454 l 775 61 l 875 49 l 875 0 l 563 0 l 563 49 l 664 63 l 414 404 l 294 290 l 297 136 l 297 60 l 400 49 l 400 0 l 82 0 l 82 49 l 194 61 m 471 -39 q 568 -103 533 -56 q 604 -200 603 -150 q 577 -307 604 -257 q 512 -390 550 -357 q 440 -435 474 -424 l 413 -404 l 413 -386 q 469 -323 450 -371 q 488 -221 488 -275 q 475 -173 488 -194 q 445 -139 463 -151 q 414 -126 428 -126 l 414 -96 l 471 -39 z "},"ĸ":{"ha":857,"x_min":69,"x_max":874,"o":"m 194 61 l 194 689 l 69 706 l 69 756 l 276 775 l 296 761 l 296 478 l 293 369 l 625 700 l 526 708 l 526 767 l 822 767 l 822 708 l 722 699 l 474 454 l 775 61 l 874 49 l 874 0 l 563 0 l 563 49 l 664 63 l 413 404 l 293 290 l 297 136 l 297 60 l 400 49 l 400 0 l 81 0 l 81 49 l 194 61 z "},"l":{"ha":471,"x_min":86,"x_max":428,"o":"m 204 61 l 204 1007 l 93 1026 l 93 1076 l 282 1100 l 307 1085 l 307 60 l 428 49 l 428 0 l 86 0 l 86 49 l 204 61 z "},"ĺ":{"ha":471,"x_min":86,"x_max":444,"o":"m 86 0 m 204 61 l 204 1007 l 93 1026 l 93 1076 l 282 1100 l 307 1085 l 307 60 l 428 49 l 428 0 l 86 0 l 86 49 l 204 61 m 367 1450 l 444 1365 q 193 1161 392 1283 l 163 1192 l 367 1450 z "},"ľ":{"ha":471,"x_min":86,"x_max":529,"o":"m 86 0 m 204 61 l 204 1007 l 93 1026 l 93 1076 l 282 1100 l 307 1085 l 307 60 l 428 49 l 428 0 l 86 0 l 86 49 l 204 61 m 401 751 q 428 910 428 826 q 417 1019 428 968 q 393 1086 407 1071 l 403 1115 l 488 1139 q 517 1076 506 1119 q 529 986 529 1033 q 504 819 529 901 q 444 710 479 738 l 403 733 l 401 751 z "},"ļ":{"ha":471,"x_min":86,"x_max":428,"o":"m 86 0 m 204 61 l 204 1007 l 93 1026 l 93 1076 l 282 1100 l 307 1085 l 307 60 l 428 49 l 428 0 l 86 0 l 86 49 l 204 61 m 235 -39 q 332 -103 297 -56 q 368 -200 367 -150 q 341 -307 368 -257 q 276 -390 314 -357 q 204 -435 238 -424 l 176 -404 l 176 -386 q 233 -323 214 -371 q 251 -221 251 -275 q 239 -173 251 -194 q 209 -139 226 -151 q 178 -126 192 -126 l 178 -96 l 235 -39 z "},"ŀ":{"ha":701,"x_min":86,"x_max":664,"o":"m 307 1085 l 307 60 l 428 49 l 428 0 l 86 0 l 86 49 l 204 61 l 204 1007 l 93 1026 l 93 1076 l 282 1100 l 307 1085 m 599 619 q 649 599 633 619 q 661 550 664 579 q 637 498 660 518 q 583 478 614 478 q 537 495 556 478 q 518 542 518 513 q 543 597 518 575 q 599 619 568 619 z "},"ł":{"ha":471,"x_min":86,"x_max":436,"o":"m 204 61 l 204 539 l 88 492 l 88 565 l 204 614 l 204 1007 l 93 1026 l 93 1076 l 282 1100 l 307 1085 l 307 657 l 436 711 l 436 632 l 307 579 l 307 60 l 428 49 l 428 0 l 86 0 l 86 49 l 204 61 z "},"m":{"ha":1396,"x_min":93,"x_max":1358,"o":"m 192 61 l 192 647 l 93 690 l 93 725 l 257 769 l 282 756 l 282 663 q 414 736 333 703 q 561 771 494 769 q 676 752 633 774 q 744 678 719 731 q 874 741 792 713 q 1019 771 956 769 q 1153 744 1104 775 q 1222 642 1201 713 q 1243 447 1243 571 l 1243 61 l 1358 49 l 1358 0 l 1044 0 l 1044 49 l 1140 61 l 1140 428 q 1128 581 1140 525 q 1081 664 1115 636 q 979 692 1046 692 q 763 626 881 692 q 779 453 779 558 l 779 60 l 886 49 l 886 0 l 575 0 l 575 49 l 678 61 l 678 440 q 665 586 678 533 q 619 665 653 639 q 522 690 586 690 q 415 669 475 690 q 296 610 354 649 l 296 61 l 400 49 l 400 0 l 97 0 l 97 49 l 192 61 z "},"n":{"ha":942,"x_min":93,"x_max":899,"o":"m 192 60 l 192 647 l 93 690 l 93 725 l 256 769 l 282 756 l 282 663 q 413 737 332 703 q 560 772 494 771 q 694 745 644 776 q 767 642 744 714 q 789 450 789 571 l 789 60 l 899 49 l 899 0 l 582 0 l 582 49 l 686 61 l 686 432 q 672 581 686 525 q 624 665 658 638 q 525 692 589 692 q 413 671 472 692 q 296 610 354 650 l 296 61 l 401 49 l 401 0 l 96 0 l 96 49 l 192 60 z "},"ń":{"ha":942,"x_min":93,"x_max":899,"o":"m 617 1199 l 694 1114 q 443 910 639 1031 l 413 940 l 617 1199 m 192 60 l 192 647 l 93 690 l 93 725 l 256 769 l 282 756 l 282 663 q 413 737 332 703 q 560 772 494 771 q 694 745 644 776 q 767 642 744 714 q 789 450 789 571 l 789 60 l 899 49 l 899 0 l 582 0 l 582 49 l 686 61 l 686 432 q 672 581 686 525 q 624 665 658 638 q 525 692 589 692 q 413 671 472 692 q 296 610 354 650 l 296 61 l 401 49 l 401 0 l 96 0 l 96 49 l 192 60 z "},"ň":{"ha":942,"x_min":93,"x_max":899,"o":"m 93 0 m 192 60 l 192 647 l 93 690 l 93 725 l 256 769 l 282 756 l 282 663 q 413 737 332 703 q 560 772 494 771 q 694 745 644 776 q 767 642 744 714 q 789 450 789 571 l 789 60 l 899 49 l 899 0 l 582 0 l 582 49 l 686 61 l 686 432 q 672 581 686 525 q 624 665 658 638 q 525 692 589 692 q 413 671 472 692 q 296 610 354 650 l 296 61 l 401 49 l 401 0 l 96 0 l 96 49 l 192 60 m 292 1201 l 483 1003 l 678 1203 l 719 1176 l 538 906 l 431 906 l 243 1176 l 292 1201 z "},"ņ":{"ha":942,"x_min":93,"x_max":899,"o":"m 93 0 m 192 60 l 192 647 l 93 690 l 93 725 l 256 769 l 282 756 l 282 663 q 413 737 332 703 q 560 772 494 771 q 694 745 644 776 q 767 642 744 714 q 789 450 789 571 l 789 60 l 899 49 l 899 0 l 582 0 l 582 49 l 686 61 l 686 432 q 672 581 686 525 q 624 665 658 638 q 525 692 589 692 q 413 671 472 692 q 296 610 354 650 l 296 61 l 401 49 l 401 0 l 96 0 l 96 49 l 192 60 m 472 -39 q 569 -103 535 -56 q 606 -200 604 -150 q 578 -307 606 -257 q 513 -390 551 -357 q 442 -435 475 -424 l 414 -404 l 414 -386 q 470 -323 451 -371 q 489 -221 489 -275 q 476 -173 489 -194 q 447 -139 464 -151 q 415 -126 429 -126 l 415 -96 l 472 -39 z "},"ñ":{"ha":942,"x_min":93,"x_max":899,"o":"m 93 0 m 192 60 l 192 647 l 93 690 l 93 725 l 256 769 l 282 756 l 282 663 q 413 737 332 703 q 560 772 494 771 q 694 745 644 776 q 767 642 744 714 q 789 450 789 571 l 789 60 l 899 49 l 899 0 l 582 0 l 582 49 l 686 61 l 686 432 q 672 581 686 525 q 624 665 658 638 q 525 692 589 692 q 413 671 472 692 q 296 610 354 650 l 296 61 l 401 49 l 401 0 l 96 0 l 96 49 l 192 60 m 238 1015 q 317 1094 265 1061 q 419 1128 368 1128 q 472 1114 450 1128 q 519 1074 493 1100 q 561 1039 544 1050 q 600 1028 578 1028 q 728 1097 661 1028 l 757 1056 q 679 976 731 1008 q 575 943 628 943 q 524 956 544 943 q 475 996 503 969 q 435 1031 451 1019 q 396 1042 418 1042 q 327 1022 358 1042 q 267 972 296 1003 l 238 1015 z "},"o":{"ha":826,"x_min":72,"x_max":757,"o":"m 431 782 q 614 728 540 782 q 722 586 688 675 q 757 389 757 497 q 709 180 756 272 q 583 35 663 88 q 410 -17 504 -17 q 217 39 293 -17 q 107 186 142 94 q 72 388 72 278 q 122 595 72 506 q 255 733 172 685 q 431 782 338 782 m 413 721 q 239 638 297 721 q 181 401 181 554 q 242 149 181 249 q 421 49 303 49 q 592 133 536 49 q 647 382 647 217 q 588 627 647 533 q 413 721 529 721 z "},"ó":{"ha":826,"x_min":72,"x_max":757,"o":"m 72 0 m 431 782 q 614 728 540 782 q 722 586 688 675 q 757 389 757 497 q 709 180 756 272 q 583 35 663 88 q 410 -17 504 -17 q 217 39 293 -17 q 107 186 142 94 q 72 388 72 278 q 122 595 72 506 q 255 733 172 685 q 431 782 338 782 m 413 721 q 239 638 297 721 q 181 401 181 554 q 242 149 181 249 q 421 49 303 49 q 592 133 536 49 q 647 382 647 217 q 588 627 647 533 q 413 721 529 721 m 538 1199 l 615 1114 q 364 910 563 1032 l 333 940 l 538 1199 z "},"ô":{"ha":826,"x_min":72,"x_max":757,"o":"m 72 0 m 431 782 q 614 728 540 782 q 722 586 688 675 q 757 389 757 497 q 709 180 756 272 q 583 35 663 88 q 410 -17 504 -17 q 217 39 293 -17 q 107 186 142 94 q 72 388 72 278 q 122 595 72 506 q 255 733 172 685 q 431 782 338 782 m 413 721 q 239 638 297 721 q 181 401 181 554 q 242 149 181 249 q 421 49 303 49 q 592 133 536 49 q 647 382 647 217 q 588 627 647 533 q 413 721 529 721 m 371 1203 l 479 1203 l 660 933 l 613 906 l 424 1106 l 226 906 l 183 931 l 371 1203 z "},"ö":{"ha":826,"x_min":72,"x_max":757,"o":"m 72 0 m 431 782 q 614 728 540 782 q 722 586 688 675 q 757 389 757 497 q 709 180 756 272 q 583 35 663 88 q 410 -17 504 -17 q 217 39 293 -17 q 107 186 142 94 q 72 388 72 278 q 122 595 72 506 q 255 733 172 685 q 431 782 338 782 m 413 721 q 239 638 297 721 q 181 401 181 554 q 242 149 181 249 q 421 49 303 49 q 592 133 536 49 q 647 382 647 217 q 588 627 647 533 q 413 721 529 721 m 261 954 q 211 973 232 954 q 190 1025 190 992 q 217 1085 190 1060 q 275 1110 243 1110 q 331 1090 313 1110 q 349 1038 349 1069 q 322 977 349 1000 q 261 954 296 954 m 569 954 q 519 973 540 954 q 499 1025 499 992 q 524 1085 499 1060 q 582 1110 550 1110 q 638 1090 619 1110 q 656 1038 656 1069 q 630 977 656 1000 q 569 954 604 954 z "},"ò":{"ha":826,"x_min":72,"x_max":757,"o":"m 72 0 m 431 782 q 614 728 540 782 q 722 586 688 675 q 757 389 757 497 q 709 180 756 272 q 583 35 663 88 q 410 -17 504 -17 q 217 39 293 -17 q 107 186 142 94 q 72 388 72 278 q 122 595 72 506 q 255 733 172 685 q 431 782 338 782 m 413 721 q 239 638 297 721 q 181 401 181 554 q 242 149 181 249 q 421 49 303 49 q 592 133 536 49 q 647 382 647 217 q 588 627 647 533 q 413 721 529 721 m 468 932 q 333 1028 388 985 q 250 1114 278 1071 l 328 1199 l 532 940 l 501 910 l 468 932 z "},"ő":{"ha":826,"x_min":72,"x_max":804,"o":"m 72 0 m 431 782 q 614 728 540 782 q 722 586 688 675 q 757 389 757 497 q 709 180 756 272 q 583 35 663 88 q 410 -17 504 -17 q 217 39 293 -17 q 107 186 142 94 q 72 388 72 278 q 122 595 72 506 q 255 733 172 685 q 431 782 338 782 m 413 721 q 239 638 297 721 q 181 401 181 554 q 242 149 181 249 q 421 49 303 49 q 592 133 536 49 q 647 382 647 217 q 588 627 647 533 q 413 721 529 721 m 414 1219 l 481 1153 q 368 1036 444 1103 q 215 911 292 969 l 189 942 l 414 1219 m 736 1219 l 804 1153 q 690 1037 767 1104 q 538 911 613 969 l 511 942 l 736 1219 z "},"ō":{"ha":825,"x_min":72,"x_max":757,"o":"m 72 0 m 569 1079 l 569 996 l 213 996 l 213 1079 l 569 1079 m 431 782 q 614 728 540 782 q 722 586 688 675 q 757 389 757 497 q 709 180 756 272 q 583 35 663 88 q 410 -17 504 -17 q 217 39 293 -17 q 107 186 142 94 q 72 388 72 278 q 122 595 72 506 q 255 733 172 685 q 431 782 338 782 m 413 721 q 239 638 297 721 q 181 401 181 554 q 242 149 181 249 q 421 49 303 49 q 592 133 536 49 q 647 382 647 217 q 588 627 647 533 q 413 721 529 721 z "},"ø":{"ha":826,"x_min":72,"x_max":756,"o":"m 264 13 q 119 156 167 56 q 72 385 72 256 q 121 592 72 503 q 251 731 169 682 q 426 782 332 781 q 526 768 485 782 l 567 882 l 614 863 l 575 750 q 710 611 664 707 q 756 394 756 515 q 709 183 756 276 q 583 36 663 89 q 408 -17 504 -17 q 314 -6 361 -17 l 272 -131 l 221 -110 l 264 13 m 501 703 q 413 721 464 721 q 239 638 297 721 q 181 401 181 556 q 208 217 181 299 q 293 90 236 135 l 501 703 m 340 64 q 421 49 378 49 q 647 382 647 49 q 622 556 647 481 q 547 675 597 632 l 340 64 z "},"õ":{"ha":826,"x_min":72,"x_max":757,"o":"m 72 0 m 431 782 q 614 728 540 782 q 722 586 688 675 q 757 389 757 497 q 709 180 756 272 q 583 35 663 88 q 410 -17 504 -17 q 217 39 293 -17 q 107 186 142 94 q 72 388 72 278 q 122 595 72 506 q 255 733 172 685 q 431 782 338 782 m 413 721 q 239 638 297 721 q 181 401 181 554 q 242 149 181 249 q 421 49 303 49 q 592 133 536 49 q 647 382 647 217 q 588 627 647 533 q 413 721 529 721 m 157 1015 q 236 1094 185 1061 q 339 1128 288 1128 q 391 1114 369 1128 q 439 1074 413 1100 q 481 1039 464 1050 q 519 1028 497 1028 q 647 1097 581 1028 l 676 1056 q 599 976 650 1008 q 494 943 547 943 q 443 956 464 943 q 394 996 422 969 q 354 1031 371 1019 q 315 1042 338 1042 q 247 1022 278 1042 q 186 972 215 1003 l 157 1015 z "},"œ":{"ha":1375,"x_min":72,"x_max":1306,"o":"m 1053 782 q 1233 706 1165 782 q 1303 499 1300 631 q 1296 381 1306 450 l 778 381 q 848 147 776 233 q 1053 61 919 61 q 1172 75 1110 61 q 1261 107 1233 89 l 1282 58 q 1168 4 1246 25 q 1011 -17 1090 -17 q 825 35 901 -17 q 711 182 749 86 q 586 36 665 89 q 410 -17 507 -17 q 219 39 294 -17 q 108 186 143 94 q 72 386 72 278 q 122 594 72 504 q 254 733 172 685 q 431 782 336 782 q 613 728 539 782 q 722 583 686 675 q 857 729 771 676 q 1053 782 943 782 m 413 721 q 240 638 299 721 q 181 401 181 556 q 242 149 181 249 q 419 49 303 49 q 591 132 535 49 q 647 382 647 215 q 589 627 647 533 q 413 721 531 721 m 1015 719 q 858 652 922 719 q 781 449 793 585 l 1193 449 q 1194 493 1194 464 q 1103 707 1194 657 q 1015 719 1065 719 z "},"p":{"ha":896,"x_min":89,"x_max":825,"o":"m 526 782 q 673 744 606 782 q 783 622 740 706 q 825 404 825 538 q 776 193 825 289 q 641 41 728 97 q 443 -15 554 -15 q 289 13 365 -15 l 292 -183 l 292 -286 l 433 -299 l 433 -347 l 89 -347 l 89 -299 l 189 -285 l 189 647 l 92 690 l 92 725 l 253 769 l 279 756 l 279 679 q 385 751 321 721 q 526 782 449 782 m 485 708 q 374 685 419 708 q 289 629 329 663 l 290 106 q 349 60 308 78 q 451 42 389 43 q 583 78 522 42 q 683 197 644 115 q 721 403 721 278 q 653 634 721 560 q 485 708 585 708 z "},"þ":{"ha":853,"x_min":26,"x_max":781,"o":"m 247 1089 l 247 688 q 482 782 357 782 q 628 744 561 782 q 738 624 696 707 q 781 410 781 540 q 733 194 781 293 q 599 38 685 96 q 401 -19 513 -19 q 244 -3 324 -19 l 246 -69 l 247 -286 l 390 -299 l 390 -347 l 47 -347 l 47 -299 l 146 -285 l 146 1011 l 26 1031 l 26 1079 l 224 1100 l 247 1089 m 440 701 q 330 679 382 701 q 249 626 278 657 l 249 96 q 304 56 258 69 q 415 43 350 43 q 544 81 483 43 q 642 197 604 118 q 681 394 681 276 q 611 627 681 553 q 440 701 542 701 z "},"q":{"ha":835,"x_min":71,"x_max":800,"o":"m 464 782 q 544 774 504 782 q 610 756 583 767 l 679 771 l 704 760 l 704 -279 l 800 -292 l 800 -347 l 456 -347 l 456 -292 l 601 -278 l 601 -32 l 604 74 q 363 -19 507 -19 q 238 10 303 -19 q 122 125 172 39 q 71 369 71 211 q 121 578 71 485 q 260 727 171 672 q 464 782 350 782 m 443 721 q 309 683 371 721 q 209 567 247 644 q 171 376 171 489 q 233 141 171 222 q 400 60 296 60 q 523 81 471 60 q 601 132 575 103 l 601 664 q 535 708 574 696 q 443 721 496 721 z "},"r":{"ha":624,"x_min":75,"x_max":594,"o":"m 193 61 l 193 647 l 93 690 l 93 725 l 254 769 l 282 756 l 282 660 q 389 734 313 697 q 528 771 465 771 q 594 768 572 771 l 594 654 q 571 662 589 656 q 531 671 553 668 q 479 674 508 674 q 296 617 385 674 l 296 61 l 499 49 l 499 0 l 75 0 l 75 49 l 193 61 z "},"ŕ":{"ha":624,"x_min":75,"x_max":594,"o":"m 75 0 m 193 61 l 193 647 l 93 690 l 93 725 l 254 769 l 282 756 l 282 660 q 389 734 313 697 q 528 771 465 771 q 594 768 572 771 l 594 654 q 571 662 589 656 q 531 671 553 668 q 479 674 508 674 q 296 617 385 674 l 296 61 l 499 49 l 499 0 l 75 0 l 75 49 l 193 61 m 413 1199 l 490 1114 q 239 910 438 1032 l 208 940 l 413 1199 z "},"ř":{"ha":624,"x_min":75,"x_max":633,"o":"m 75 0 m 193 61 l 193 647 l 93 690 l 93 725 l 254 769 l 282 756 l 282 660 q 389 734 313 697 q 528 771 465 771 q 594 768 572 771 l 594 654 q 571 662 589 656 q 531 671 553 668 q 479 674 508 674 q 296 617 385 674 l 296 61 l 499 49 l 499 0 l 75 0 l 75 49 l 193 61 m 206 1201 l 397 1003 l 592 1203 l 633 1176 l 451 906 l 344 906 l 157 1176 l 206 1201 z "},"ŗ":{"ha":624,"x_min":75,"x_max":594,"o":"m 75 0 m 193 61 l 193 647 l 93 690 l 93 725 l 254 769 l 282 756 l 282 660 q 389 734 313 697 q 528 771 465 771 q 594 768 572 771 l 594 654 q 571 662 589 656 q 531 671 553 668 q 479 674 508 674 q 296 617 385 674 l 296 61 l 499 49 l 499 0 l 75 0 l 75 49 l 193 61 m 238 -39 q 335 -103 300 -56 q 371 -200 369 -150 q 344 -307 371 -257 q 278 -390 317 -357 q 207 -435 240 -424 l 179 -404 l 179 -386 q 235 -323 217 -371 q 254 -221 254 -275 q 242 -173 254 -194 q 212 -139 229 -151 q 181 -126 194 -126 l 181 -96 l 238 -39 z "},"s":{"ha":707,"x_min":117,"x_max":635,"o":"m 165 190 l 188 101 q 264 60 224 72 q 356 47 304 47 q 487 82 438 47 q 536 186 536 117 q 516 247 536 222 q 465 290 496 272 q 382 331 435 307 l 333 353 q 182 448 238 397 q 126 576 126 499 q 167 690 126 644 q 269 759 207 736 q 396 782 331 782 q 510 767 457 782 q 593 732 563 753 l 593 596 l 549 596 l 524 675 q 393 722 476 722 q 269 689 314 722 q 224 592 224 656 q 261 514 224 543 q 378 446 299 485 l 413 429 q 492 394 424 424 q 597 317 560 364 q 635 208 635 269 q 555 42 635 101 q 349 -17 475 -17 q 117 42 219 -17 l 117 190 l 165 190 z "},"š":{"ha":688,"x_min":111,"x_max":631,"o":"m 160 1201 l 353 1003 l 546 1203 l 588 1176 l 406 906 l 299 906 l 111 1176 l 160 1201 m 161 190 l 185 101 q 261 60 221 72 q 353 47 301 47 q 484 82 435 47 q 533 186 533 117 q 513 247 533 222 q 463 290 493 272 q 378 331 432 307 l 329 353 q 178 447 233 396 q 122 578 122 499 q 163 691 122 644 q 265 760 203 738 q 390 782 326 782 q 506 767 453 782 q 590 732 560 753 l 590 596 l 544 596 l 519 675 q 390 722 475 722 q 266 688 311 722 q 221 590 221 654 q 246 525 221 553 q 301 481 271 497 q 410 429 332 465 q 488 394 421 424 q 593 317 556 364 q 631 208 631 269 q 551 42 631 101 q 346 -17 472 -17 q 114 42 217 -17 l 114 190 l 161 190 z "},"ş":{"ha":707,"x_min":117,"x_max":635,"o":"m 633 207 q 556 43 633 101 q 356 -18 479 -15 q 353 -58 353 -43 q 354 -85 353 -76 q 490 -122 444 -83 q 536 -212 536 -160 q 490 -315 536 -276 q 369 -357 443 -353 l 338 -358 q 268 -351 293 -358 q 236 -343 243 -344 l 238 -286 q 281 -294 258 -290 q 319 -297 303 -297 q 399 -281 369 -297 q 429 -211 429 -264 q 399 -153 429 -174 q 308 -133 368 -133 q 287 -135 297 -133 q 272 -136 276 -136 q 289 -12 272 -78 q 117 42 193 -1 l 117 190 l 165 190 l 188 101 q 264 60 224 72 q 356 47 304 47 q 487 82 438 47 q 536 186 536 117 q 516 247 536 222 q 465 290 496 272 q 382 331 435 307 l 333 353 q 182 448 238 397 q 126 576 126 499 q 167 690 126 644 q 269 759 207 736 q 396 782 331 782 q 510 767 457 782 q 593 732 563 753 l 593 596 l 549 596 l 524 675 q 393 722 476 722 q 269 689 314 722 q 224 592 224 656 q 261 514 224 543 q 378 446 299 485 l 413 429 q 492 394 424 424 q 597 317 560 364 q 635 208 635 269 l 633 207 z "},"ș":{"ha":707,"x_min":117,"x_max":635,"o":"m 117 0 m 165 190 l 188 101 q 264 60 224 72 q 356 47 304 47 q 487 82 438 47 q 536 186 536 117 q 516 247 536 222 q 465 290 496 272 q 382 331 435 307 l 333 353 q 182 448 238 397 q 126 576 126 499 q 167 690 126 644 q 269 759 207 736 q 396 782 331 782 q 510 767 457 782 q 593 732 563 753 l 593 596 l 549 596 l 524 675 q 393 722 476 722 q 269 689 314 722 q 224 592 224 656 q 261 514 224 543 q 378 446 299 485 l 413 429 q 492 394 424 424 q 597 317 560 364 q 635 208 635 269 q 555 42 635 101 q 349 -17 475 -17 q 117 42 219 -17 l 117 190 l 165 190 m 333 -57 q 431 -121 396 -74 q 467 -218 465 -168 q 440 -325 467 -275 q 374 -408 413 -375 q 303 -453 336 -442 l 275 -422 l 275 -404 q 331 -341 313 -389 q 350 -239 350 -293 q 338 -191 350 -212 q 308 -157 325 -169 q 276 -144 290 -144 l 276 -114 l 333 -57 z "},"ß":{"ha":893,"x_min":47,"x_max":876,"o":"m 154 65 l 154 594 q 205 863 154 754 q 337 1024 256 972 q 513 1076 418 1076 q 658 1031 599 1076 q 718 876 718 985 q 700 776 718 818 q 647 685 682 735 q 603 613 618 644 q 589 542 589 581 q 618 474 589 500 q 710 414 647 447 q 796 362 763 386 q 853 299 829 338 q 876 204 876 260 q 797 40 876 94 q 600 -14 718 -14 q 524 -12 553 -14 q 457 -3 494 -11 l 457 99 q 614 50 563 50 q 733 81 688 50 q 779 188 779 113 q 744 268 779 236 q 636 340 708 300 q 524 414 561 381 q 488 500 488 447 q 503 560 488 528 q 549 639 518 592 q 606 744 586 699 q 626 835 626 789 q 590 958 626 910 q 483 1007 554 1007 q 355 969 404 1007 q 281 838 306 931 q 257 586 257 746 l 257 0 l 47 0 l 47 47 l 154 65 z "},"t":{"ha":581,"x_min":83,"x_max":539,"o":"m 290 758 l 531 758 l 531 686 l 289 686 l 289 304 q 294 147 289 194 q 317 81 300 99 q 374 63 335 63 q 458 76 413 63 q 521 103 503 90 l 539 50 q 450 2 513 21 q 338 -17 388 -17 q 227 28 265 -17 q 189 169 189 72 l 189 686 l 83 686 l 83 729 l 125 739 q 178 754 164 747 q 203 785 192 761 q 224 870 213 817 q 236 940 235 924 l 290 940 l 290 758 z "},"ť":{"ha":581,"x_min":83,"x_max":539,"o":"m 83 0 m 290 758 l 531 758 l 531 686 l 289 686 l 289 304 q 294 147 289 194 q 317 81 300 99 q 374 63 335 63 q 458 76 413 63 q 521 103 503 90 l 539 50 q 450 2 513 21 q 338 -17 388 -17 q 227 28 265 -17 q 189 169 189 72 l 189 686 l 83 686 l 83 729 l 125 739 q 178 754 164 747 q 203 785 192 761 q 224 870 213 817 q 236 940 235 924 l 290 940 l 290 758 m 399 932 q 425 1090 425 1007 q 415 1200 425 1149 q 390 1267 404 1251 l 400 1296 l 485 1319 q 515 1257 503 1300 q 526 1167 526 1214 q 501 1000 526 1082 q 442 890 476 918 l 400 914 l 399 932 z "},"ț":{"ha":581,"x_min":83,"x_max":539,"o":"m 83 0 m 290 758 l 531 758 l 531 686 l 289 686 l 289 304 q 294 147 289 194 q 317 81 300 99 q 374 63 335 63 q 458 76 413 63 q 521 103 503 90 l 539 50 q 450 2 513 21 q 338 -17 388 -17 q 227 28 265 -17 q 189 169 189 72 l 189 686 l 83 686 l 83 729 l 125 739 q 178 754 164 747 q 203 785 192 761 q 224 870 213 817 q 236 940 235 924 l 290 940 l 290 758 m 308 -39 q 406 -103 371 -56 q 442 -200 440 -150 q 415 -307 442 -257 q 349 -390 388 -357 q 278 -435 311 -424 l 250 -404 l 250 -386 q 306 -323 288 -371 q 325 -221 325 -275 q 313 -173 325 -194 q 283 -139 300 -151 q 251 -126 265 -126 l 251 -96 l 308 -39 z "},"u":{"ha":874,"x_min":79,"x_max":808,"o":"m 79 699 l 79 742 l 231 771 l 251 758 l 251 293 q 264 159 251 207 q 310 88 276 111 q 410 64 344 64 q 535 94 474 64 q 624 153 596 125 l 624 679 l 539 693 l 539 739 l 707 771 l 724 760 l 724 50 l 808 50 l 808 4 q 755 -13 788 -6 q 697 -21 722 -21 q 633 32 633 -21 l 633 94 q 368 -14 503 -14 q 219 27 267 -14 q 161 133 172 68 q 149 318 150 197 l 149 685 l 79 699 z "},"ú":{"ha":874,"x_min":79,"x_max":808,"o":"m 532 1199 l 610 1114 q 506 1010 578 1065 q 358 910 433 954 l 328 940 l 532 1199 m 79 699 l 79 742 l 231 771 l 251 758 l 251 293 q 264 159 251 207 q 310 88 276 111 q 410 64 344 64 q 535 94 474 64 q 624 153 596 125 l 624 679 l 539 693 l 539 739 l 707 771 l 724 760 l 724 50 l 808 50 l 808 4 q 755 -13 788 -6 q 697 -21 722 -21 q 633 32 633 -21 l 633 94 q 368 -14 503 -14 q 219 27 267 -14 q 161 133 172 68 q 149 318 150 197 l 149 685 l 79 699 z "},"û":{"ha":874,"x_min":79,"x_max":808,"o":"m 365 1203 l 472 1203 l 653 933 l 606 906 l 418 1106 l 219 906 l 176 931 l 365 1203 m 79 699 l 79 742 l 231 771 l 251 758 l 251 293 q 264 159 251 207 q 310 88 276 111 q 410 64 344 64 q 535 94 474 64 q 624 153 596 125 l 624 679 l 539 693 l 539 739 l 707 771 l 724 760 l 724 50 l 808 50 l 808 4 q 755 -13 788 -6 q 697 -21 722 -21 q 633 32 633 -21 l 633 94 q 368 -14 503 -14 q 219 27 267 -14 q 161 133 172 68 q 149 318 150 197 l 149 685 l 79 699 z "},"ü":{"ha":874,"x_min":79,"x_max":808,"o":"m 79 0 m 79 699 l 79 742 l 231 771 l 251 758 l 251 293 q 264 159 251 207 q 310 88 276 111 q 410 64 344 64 q 535 94 474 64 q 624 153 596 125 l 624 679 l 539 693 l 539 739 l 707 771 l 724 760 l 724 50 l 808 50 l 808 4 q 755 -13 788 -6 q 697 -21 722 -21 q 633 32 633 -21 l 633 94 q 368 -14 503 -14 q 219 27 267 -14 q 161 133 172 68 q 149 318 150 197 l 149 685 l 79 699 m 256 954 q 206 973 226 954 q 185 1025 185 992 q 211 1085 185 1060 q 269 1110 238 1110 q 325 1090 307 1110 q 343 1038 343 1069 q 317 977 343 1000 q 256 954 290 954 m 564 954 q 514 973 535 954 q 493 1025 493 992 q 519 1085 493 1060 q 576 1110 544 1110 q 632 1090 614 1110 q 650 1038 650 1069 q 624 977 650 1000 q 564 954 599 954 z "},"ù":{"ha":874,"x_min":79,"x_max":808,"o":"m 461 932 q 326 1028 381 985 q 243 1114 271 1071 l 321 1199 l 525 940 l 494 910 l 461 932 m 79 699 l 79 742 l 231 771 l 251 758 l 251 293 q 264 159 251 207 q 310 88 276 111 q 410 64 344 64 q 535 94 474 64 q 624 153 596 125 l 624 679 l 539 693 l 539 739 l 707 771 l 724 760 l 724 50 l 808 50 l 808 4 q 755 -13 788 -6 q 697 -21 722 -21 q 633 32 633 -21 l 633 94 q 368 -14 503 -14 q 219 27 267 -14 q 161 133 172 68 q 149 318 150 197 l 149 685 l 79 699 z "},"ű":{"ha":874,"x_min":79,"x_max":847,"o":"m 79 0 m 79 699 l 79 742 l 231 771 l 251 758 l 251 293 q 264 159 251 207 q 310 88 276 111 q 410 64 344 64 q 535 94 474 64 q 624 153 596 125 l 624 679 l 539 693 l 539 739 l 707 771 l 724 760 l 724 50 l 808 50 l 808 4 q 755 -13 788 -6 q 697 -21 722 -21 q 633 32 633 -21 l 633 94 q 368 -14 503 -14 q 219 27 267 -14 q 161 133 172 68 q 149 318 150 197 l 149 685 l 79 699 m 457 1219 l 524 1153 q 411 1036 488 1103 q 258 911 335 969 l 232 942 l 457 1219 m 779 1219 l 847 1153 q 733 1037 810 1104 q 581 911 656 969 l 554 942 l 779 1219 z "},"ū":{"ha":874,"x_min":79,"x_max":808,"o":"m 79 0 m 79 699 l 79 742 l 231 771 l 251 758 l 251 293 q 264 159 251 207 q 310 88 276 111 q 410 64 344 64 q 535 94 474 64 q 624 153 596 125 l 624 679 l 539 693 l 539 739 l 707 771 l 724 760 l 724 50 l 808 50 l 808 4 q 755 -13 788 -6 q 697 -21 722 -21 q 633 32 633 -21 l 633 94 q 368 -14 503 -14 q 219 27 267 -14 q 161 133 172 68 q 149 318 150 197 l 149 685 l 79 699 m 613 1079 l 613 996 l 256 996 l 256 1079 l 613 1079 z "},"ų":{"ha":874,"x_min":81,"x_max":810,"o":"m 701 -18 q 592 -103 640 -53 q 543 -196 543 -154 q 565 -263 543 -244 q 639 -285 588 -282 q 785 -235 694 -289 l 797 -285 q 714 -335 757 -315 q 599 -356 671 -356 q 485 -318 522 -356 q 447 -226 447 -281 q 507 -101 447 -165 q 644 0 567 -36 q 635 33 635 11 l 635 96 q 369 -12 504 -12 q 221 28 268 -12 q 163 134 174 69 q 150 319 151 199 l 150 686 l 81 700 l 81 743 l 232 772 l 253 760 l 253 294 q 265 160 253 208 q 312 89 278 113 q 411 65 346 65 q 536 96 475 65 q 625 154 597 126 l 625 681 l 540 694 l 540 740 l 708 772 l 725 761 l 725 51 l 810 51 l 810 6 q 757 -12 789 -4 q 700 -21 725 -19 l 701 -18 z "},"ů":{"ha":874,"x_min":79,"x_max":808,"o":"m 79 0 m 79 699 l 79 742 l 231 771 l 251 758 l 251 293 q 264 159 251 207 q 310 88 276 111 q 410 64 344 64 q 535 94 474 64 q 624 153 596 125 l 624 679 l 539 693 l 539 739 l 707 771 l 724 760 l 724 50 l 808 50 l 808 4 q 755 -13 788 -6 q 697 -21 722 -21 q 633 32 633 -21 l 633 94 q 368 -14 503 -14 q 219 27 267 -14 q 161 133 172 68 q 149 318 150 197 l 149 685 l 79 699 m 426 1217 q 544 1170 496 1217 q 592 1057 592 1124 q 544 945 592 992 q 426 899 496 899 q 310 945 358 899 q 261 1057 261 992 q 310 1169 261 1122 q 426 1217 358 1217 m 425 1151 q 358 1123 386 1151 q 329 1056 329 1094 q 358 988 329 1015 q 425 960 386 960 q 494 988 465 960 q 522 1056 522 1015 q 494 1124 522 1096 q 425 1151 465 1151 z "},"v":{"ha":799,"x_min":1,"x_max":799,"o":"m 1 701 l 1 758 l 282 758 l 282 701 l 189 689 l 354 292 l 421 94 l 488 283 l 632 689 l 540 700 l 540 758 l 799 758 l 799 701 l 722 689 l 444 -18 l 374 -18 l 71 690 l 1 701 z "},"w":{"ha":1136,"x_min":1,"x_max":1135,"o":"m 1 700 l 1 758 l 282 758 l 282 700 l 179 688 l 325 222 l 360 89 l 389 224 l 531 758 l 622 758 l 768 224 l 804 88 l 839 218 l 961 689 l 874 700 l 874 758 l 1135 758 l 1135 701 l 1049 688 l 843 -18 l 749 -18 l 590 533 l 574 633 l 547 533 l 397 -18 l 311 -18 l 75 690 l 1 700 z "},"x":{"ha":782,"x_min":3,"x_max":778,"o":"m 110 61 l 340 369 l 101 690 l 3 700 l 3 758 l 326 758 l 326 700 l 222 690 l 375 465 l 404 419 l 436 472 l 583 690 l 485 700 l 485 758 l 771 758 l 771 700 l 671 689 l 440 381 l 682 60 l 778 49 l 778 0 l 457 0 l 457 49 l 561 60 l 376 325 l 343 271 l 197 60 l 324 49 l 324 0 l 8 0 l 8 49 l 110 61 z "},"y":{"ha":774,"x_min":1,"x_max":783,"o":"m 101 -249 q 154 -256 129 -256 q 277 -202 215 -256 q 382 -8 339 -149 l 358 -8 l 81 690 l 1 700 l 1 758 l 301 758 l 301 700 l 194 689 l 364 214 l 421 51 l 465 208 l 613 690 l 501 700 l 501 758 l 783 758 l 783 700 l 703 692 q 608 411 651 539 q 532 186 565 283 q 460 -24 476 19 q 340 -253 401 -175 q 194 -350 279 -332 q 150 -346 153 -346 q 122 -343 136 -346 q 101 -337 108 -340 l 101 -249 z "},"ý":{"ha":774,"x_min":1,"x_max":783,"o":"m 1 0 m 101 -249 q 154 -256 129 -256 q 277 -202 215 -256 q 382 -8 339 -149 l 358 -8 l 81 690 l 1 700 l 1 758 l 301 758 l 301 700 l 194 689 l 364 214 l 421 51 l 465 208 l 613 690 l 501 700 l 501 758 l 783 758 l 783 700 l 703 692 q 608 411 651 539 q 532 186 565 283 q 460 -24 476 19 q 340 -253 401 -175 q 194 -350 279 -332 q 150 -346 153 -346 q 122 -343 136 -346 q 101 -337 108 -340 l 101 -249 m 524 1199 l 601 1114 q 350 910 549 1032 l 319 940 l 524 1199 z "},"ÿ":{"ha":774,"x_min":1,"x_max":783,"o":"m 1 0 m 101 -249 q 154 -256 129 -256 q 277 -202 215 -256 q 382 -8 339 -149 l 358 -8 l 81 690 l 1 700 l 1 758 l 301 758 l 301 700 l 194 689 l 364 214 l 421 51 l 465 208 l 613 690 l 501 700 l 501 758 l 783 758 l 783 700 l 703 692 q 608 411 651 539 q 532 186 565 283 q 460 -24 476 19 q 340 -253 401 -175 q 194 -350 279 -332 q 150 -346 153 -346 q 122 -343 136 -346 q 101 -337 108 -340 l 101 -249 m 247 954 q 197 973 218 954 q 176 1025 176 992 q 203 1085 176 1060 q 261 1110 229 1110 q 317 1090 299 1110 q 335 1038 335 1069 q 308 977 335 1000 q 247 954 282 954 m 556 954 q 506 973 526 954 q 485 1025 485 992 q 510 1085 485 1060 q 568 1110 536 1110 q 624 1090 606 1110 q 642 1038 642 1069 q 616 977 642 1000 q 556 954 590 954 z "},"z":{"ha":725,"x_min":63,"x_max":685,"o":"m 674 711 l 251 140 l 185 56 l 588 69 l 629 186 l 685 186 l 672 0 l 82 0 l 63 50 l 108 110 l 494 638 l 551 706 l 181 696 l 143 571 l 94 571 l 96 758 l 660 758 l 674 711 z "},"ź":{"ha":725,"x_min":63,"x_max":685,"o":"m 63 0 m 674 711 l 251 140 l 185 56 l 588 69 l 629 186 l 685 186 l 672 0 l 82 0 l 63 50 l 108 110 l 494 638 l 551 706 l 181 696 l 143 571 l 94 571 l 96 758 l 660 758 l 674 711 m 469 1199 l 547 1114 q 296 910 494 1032 l 265 940 l 469 1199 z "},"ž":{"ha":725,"x_min":63,"x_max":685,"o":"m 63 0 m 674 711 l 251 140 l 185 56 l 588 69 l 629 186 l 685 186 l 672 0 l 82 0 l 63 50 l 108 110 l 494 638 l 551 706 l 181 696 l 143 571 l 94 571 l 96 758 l 660 758 l 674 711 m 186 1201 l 378 1003 l 572 1203 l 614 1176 l 432 906 l 325 906 l 138 1176 l 186 1201 z "},"ż":{"ha":725,"x_min":63,"x_max":685,"o":"m 63 0 m 674 711 l 251 140 l 185 56 l 588 69 l 629 186 l 685 186 l 672 0 l 82 0 l 63 50 l 108 110 l 494 638 l 551 706 l 181 696 l 143 571 l 94 571 l 96 758 l 660 758 l 674 711 m 374 1100 q 429 1079 411 1100 q 447 1028 447 1058 q 421 965 447 990 q 360 940 394 940 q 310 961 332 940 q 288 1014 288 982 q 315 1074 288 1049 q 374 1100 342 1100 z "},"ﬁ":{"ha":1017,"x_min":67,"x_max":974,"o":"m 489 1140 q 581 1129 558 1140 l 581 1033 q 538 1047 569 1040 q 464 1053 507 1053 q 391 1040 421 1053 q 343 984 361 1026 q 325 861 325 942 l 325 753 l 536 753 l 536 676 l 325 676 l 325 60 l 482 49 l 482 0 l 81 0 l 81 49 l 222 61 l 222 676 l 67 676 l 67 721 l 222 754 l 222 815 q 265 986 222 913 q 369 1100 307 1060 q 489 1140 432 1140 m 800 1103 q 853 1083 835 1103 q 871 1032 871 1063 q 845 972 871 996 q 786 949 819 949 q 736 968 757 949 q 715 1018 715 988 q 742 1078 715 1053 q 800 1103 768 1103 m 860 757 l 860 61 l 974 49 l 974 0 l 647 0 l 647 49 l 764 61 l 764 653 l 668 690 l 668 725 l 835 769 l 860 757 z "},"ﬂ":{"ha":1031,"x_min":67,"x_max":986,"o":"m 222 61 l 222 676 l 67 676 l 67 721 l 222 754 l 222 815 q 265 986 222 913 q 369 1100 307 1060 q 489 1140 432 1140 q 581 1129 558 1140 l 581 1033 q 538 1047 569 1040 q 464 1053 507 1053 q 391 1040 421 1053 q 343 984 361 1026 q 325 861 325 942 l 325 753 l 536 753 l 536 676 l 325 676 l 325 60 l 482 49 l 482 0 l 81 0 l 81 49 l 222 61 m 763 61 l 763 1007 l 651 1026 l 651 1076 l 842 1100 l 865 1085 l 865 60 l 986 49 l 986 0 l 644 0 l 644 49 l 763 61 z "},"ª":{"ha":639,"x_min":51,"x_max":585,"o":"m 306 1081 q 424 1066 378 1081 q 499 1007 471 1051 q 526 878 526 963 l 525 558 l 585 558 l 585 515 q 540 501 571 508 q 488 494 510 494 q 442 511 451 494 q 435 574 433 528 q 349 521 399 543 q 218 499 300 499 q 146 517 185 499 q 79 571 107 535 q 51 660 51 607 q 154 811 51 772 q 432 850 257 850 l 432 872 q 414 962 432 932 q 363 1001 396 992 q 276 1011 331 1011 q 174 999 222 1011 q 100 965 125 986 l 78 1014 q 174 1061 107 1042 q 306 1081 240 1081 m 431 797 q 228 772 303 797 q 154 679 154 746 q 182 597 154 628 q 256 567 210 567 q 356 583 306 567 q 431 624 406 599 l 431 797 z "},"º":{"ha":663,"x_min":63,"x_max":604,"o":"m 340 1081 q 534 1002 464 1081 q 604 788 604 924 q 562 625 604 690 q 456 529 519 560 q 326 499 392 499 q 192 532 253 499 q 97 629 132 565 q 63 782 63 693 q 104 949 63 882 q 210 1049 146 1017 q 340 1081 274 1081 m 336 1021 q 213 965 256 1021 q 169 797 169 910 q 213 624 169 689 q 324 558 257 558 q 453 606 410 558 q 496 775 496 654 q 454 955 496 889 q 336 1021 413 1021 z "},"Ω":{"ha":1307,"x_min":94,"x_max":1194,"o":"m 150 228 l 171 100 l 408 100 q 290 207 346 140 q 200 362 235 274 q 167 547 165 450 q 238 827 169 714 q 413 996 306 940 q 643 1051 519 1051 q 874 997 774 1051 q 1032 837 975 942 q 1089 585 1089 732 q 1054 405 1089 499 q 964 230 1019 311 q 849 100 908 149 l 1094 100 l 1139 247 l 1194 242 l 1165 0 l 718 0 l 718 92 q 902 281 833 158 q 971 568 971 403 q 925 810 971 711 q 802 957 879 908 q 633 1006 725 1006 q 453 953 532 1006 q 328 797 374 901 q 283 546 283 693 q 323 347 283 439 q 424 191 363 256 q 549 94 485 126 l 549 0 l 94 0 l 94 222 l 150 228 z "},"μ":{"ha":971,"x_min":114,"x_max":842,"o":"m 183 -264 l 183 683 l 114 697 l 114 740 l 264 771 l 285 758 l 285 296 q 298 162 285 211 q 346 88 311 113 q 444 64 381 64 q 569 94 508 64 q 657 153 629 125 l 657 679 l 572 693 l 572 739 l 742 771 l 758 760 l 758 50 l 842 50 l 842 4 q 789 -13 821 -6 q 731 -21 757 -21 q 667 32 667 -21 l 667 94 q 403 -14 540 -14 q 285 8 333 -14 l 285 -264 l 183 -264 z "},"π":{"ha":1075,"x_min":111,"x_max":964,"o":"m 964 833 q 897 699 956 749 q 749 650 838 650 l 725 168 q 735 111 725 128 q 758 94 744 94 q 820 117 789 94 q 864 172 851 139 l 925 172 q 888 92 917 136 q 816 15 858 47 q 725 -17 774 -17 q 669 19 685 -17 q 654 114 654 54 q 657 183 654 139 q 679 583 664 342 l 683 650 l 408 650 l 392 285 q 365 124 382 174 q 303 32 347 74 q 214 -17 265 0 l 136 67 q 179 82 151 71 q 231 110 207 93 q 303 194 282 146 q 328 318 324 242 q 343 650 333 415 l 300 650 q 222 631 258 650 q 171 579 185 611 l 111 586 q 126 650 111 625 q 208 731 157 704 q 325 758 258 758 l 767 757 q 904 833 867 757 l 964 833 z "},"ऄ":{"ha":1096,"x_min":4,"x_max":1096,"o":"m 1096 813 l 936 813 l 936 -37 l 918 -37 l 843 6 l 843 381 l 842 381 q 736 350 792 350 q 571 408 657 350 l 567 406 q 619 246 619 332 q 560 103 619 158 q 407 47 501 47 q 167 142 263 47 q 4 365 72 236 l 49 392 q 191 211 104 292 q 368 131 278 131 q 487 176 440 131 q 533 288 533 221 q 508 381 533 335 q 444 456 483 426 q 286 426 374 433 l 250 494 l 260 522 q 435 564 374 528 q 494 619 472 588 q 515 696 515 650 q 494 760 515 729 q 438 810 472 790 q 369 829 404 829 q 176 743 279 829 l 126 838 q 232 890 164 863 q 331 918 300 918 q 449 878 389 917 q 550 777 510 839 q 590 649 590 715 q 567 558 590 603 q 500 479 544 513 q 688 432 604 432 q 843 485 768 432 l 844 811 l 654 811 l 622 872 l 622 889 l 853 889 q 865 938 865 910 q 830 1049 865 1004 q 711 1094 794 1094 q 603 1086 686 1094 q 543 1081 589 1085 q 465 1076 497 1076 q 324 1101 388 1076 q 223 1162 260 1125 q 186 1231 186 1199 q 214 1353 186 1278 l 274 1343 q 253 1251 253 1285 q 287 1189 253 1210 q 375 1168 321 1168 q 522 1178 410 1168 q 614 1183 554 1179 q 693 1188 674 1188 q 790 1165 744 1188 q 867 1104 836 1142 q 931 960 931 1025 q 919 889 931 933 l 1064 889 l 1096 829 l 1096 813 z "},"ॲ":{"ha":1096,"x_min":4,"x_max":1181,"o":"m 4 0 m 1096 813 l 936 813 l 936 -37 l 918 -37 l 843 6 l 843 381 l 842 381 q 736 350 792 350 q 571 408 657 350 l 567 406 q 619 246 619 332 q 560 103 619 158 q 407 47 501 47 q 167 142 263 47 q 4 365 72 236 l 49 392 q 191 211 104 292 q 368 131 278 131 q 487 176 440 131 q 533 288 533 221 q 508 381 533 335 q 444 456 483 426 q 286 426 374 433 l 250 494 l 260 522 q 435 564 374 528 q 494 619 472 588 q 515 696 515 650 q 494 760 515 729 q 438 810 472 790 q 369 829 404 829 q 176 743 279 829 l 126 838 q 232 890 164 863 q 331 918 300 918 q 449 878 389 917 q 550 777 510 839 q 590 649 590 715 q 567 558 590 603 q 500 479 544 513 q 688 432 604 432 q 843 485 768 432 l 844 811 l 647 811 l 615 872 l 615 889 l 1064 889 l 1096 829 l 1096 813 m 1181 1178 q 1065 1073 1128 1110 q 913 1036 1003 1036 q 733 1095 811 1036 q 604 1235 656 1154 l 643 1256 q 864 1111 747 1113 q 1012 1151 947 1111 q 1114 1242 1076 1190 l 1181 1178 z "},"अ":{"ha":1096,"x_min":4,"x_max":1096,"o":"m 1096 813 l 936 813 l 936 -37 l 918 -37 l 843 6 l 843 381 l 842 381 q 736 350 792 350 q 571 408 657 350 l 567 406 q 619 246 619 332 q 560 103 619 158 q 407 47 501 47 q 167 142 263 47 q 4 365 72 236 l 49 392 q 191 211 104 292 q 368 131 278 131 q 487 176 440 131 q 533 288 533 221 q 508 381 533 335 q 444 456 483 426 q 286 426 374 433 l 250 494 l 260 522 q 435 564 374 528 q 494 619 472 588 q 515 696 515 650 q 494 760 515 729 q 438 810 472 790 q 369 829 404 829 q 176 743 279 829 l 126 838 q 232 890 164 863 q 331 918 300 918 q 449 878 389 917 q 550 777 510 839 q 590 649 590 715 q 567 558 590 603 q 500 479 544 513 q 688 432 604 432 q 843 485 768 432 l 844 811 l 647 811 l 615 872 l 615 889 l 1064 889 l 1096 829 l 1096 813 z "},"आ":{"ha":1508,"x_min":4,"x_max":1508,"o":"m 1508 813 l 1350 813 l 1350 -37 l 1331 -37 l 1256 6 l 1256 813 l 936 813 l 936 -37 l 918 -37 l 843 6 l 843 381 l 842 381 q 736 350 792 350 q 571 408 657 350 l 567 406 q 619 246 619 332 q 560 103 619 158 q 407 47 501 47 q 167 142 263 47 q 4 365 72 236 l 49 392 q 191 211 104 292 q 368 131 278 131 q 487 176 440 131 q 533 288 533 221 q 508 381 533 335 q 444 456 483 426 q 286 426 374 433 l 250 494 l 260 522 q 435 564 374 528 q 494 619 472 588 q 515 696 515 650 q 494 760 515 729 q 438 810 472 790 q 369 829 404 829 q 176 743 279 829 l 126 838 q 232 890 164 863 q 331 918 300 918 q 449 878 389 917 q 550 777 510 839 q 590 649 590 715 q 567 558 590 603 q 500 479 544 513 q 688 432 604 432 q 843 485 768 432 l 844 811 l 647 811 l 615 872 l 615 889 l 1475 889 l 1508 829 l 1508 813 z "},"इ":{"ha":688,"x_min":-37,"x_max":697,"o":"m 263 597 q 201 567 219 597 q 182 496 182 536 q 205 432 182 461 q 250 403 228 403 q 303 409 272 403 q 361 424 333 415 q 451 442 424 442 q 523 407 490 442 q 575 321 556 372 q 594 222 594 269 q 558 137 594 178 q 461 68 522 96 q 329 35 400 40 l 467 -149 l 389 -229 l 253 36 q 140 66 190 44 q 89 122 89 88 q 119 192 89 164 q 182 219 149 219 q 201 217 196 219 l 272 111 q 459 154 388 118 q 531 260 531 190 q 517 326 531 294 q 488 364 504 357 q 443 356 469 364 q 410 347 417 349 q 364 335 401 344 q 293 325 326 325 q 215 359 258 325 q 140 442 171 393 q 110 529 110 490 q 142 638 110 596 q 233 679 175 679 l 444 679 l 444 811 l -7 811 l -37 872 l -37 889 l 664 889 l 697 829 l 697 811 l 538 811 l 538 597 l 263 597 z "},"ई":{"ha":688,"x_min":-37,"x_max":704,"o":"m 664 889 l 697 829 l 697 811 l 538 811 l 538 597 l 263 597 q 201 567 219 597 q 182 496 182 536 q 205 432 182 461 q 250 403 228 403 q 303 409 272 403 q 361 424 333 415 q 451 442 424 442 q 523 407 490 442 q 575 321 556 372 q 594 222 594 269 q 558 137 594 178 q 461 68 522 96 q 329 35 400 40 l 467 -149 l 389 -229 l 253 36 q 140 66 190 44 q 89 122 89 88 q 119 192 89 164 q 182 219 149 219 q 201 217 196 219 l 272 111 q 459 154 388 118 q 531 260 531 190 q 517 326 531 294 q 488 364 504 357 q 443 356 469 364 q 410 347 417 349 q 364 335 401 344 q 293 325 326 325 q 215 359 258 325 q 140 442 171 393 q 110 529 110 490 q 142 638 110 596 q 233 679 175 679 l 444 679 l 444 811 l -7 811 l -37 872 l -37 889 l 433 889 l 433 894 q 326 1017 367 951 q 285 1150 285 1082 q 315 1249 285 1206 q 397 1317 346 1293 q 506 1342 447 1342 q 610 1319 558 1342 q 704 1258 661 1296 l 671 1206 q 597 1244 638 1228 q 517 1261 557 1261 q 419 1226 458 1261 q 379 1125 379 1190 q 421 1001 379 1065 q 518 892 463 938 l 514 889 l 664 889 z "},"उ":{"ha":803,"x_min":-37,"x_max":803,"o":"m 801 813 l 521 813 q 605 707 574 760 q 636 610 636 654 q 613 527 636 564 q 549 465 589 490 q 664 351 617 414 q 711 218 711 289 q 684 119 711 168 q 608 40 657 71 q 496 8 560 8 q 229 122 347 8 q 35 369 111 236 l 81 400 q 178 263 115 335 q 314 141 240 190 q 454 92 388 92 q 578 138 531 92 q 626 250 626 185 q 485 435 626 342 q 399 422 443 422 q 288 438 335 422 l 253 508 l 263 528 q 369 518 333 518 q 508 552 456 518 q 560 644 560 586 q 522 733 560 688 q 432 811 485 778 l -7 811 l -37 872 l -37 889 l 771 889 l 803 829 l 801 813 z "},"ऊ":{"ha":1147,"x_min":-37,"x_max":1149,"o":"m 1149 810 l 524 810 q 608 704 576 757 q 639 607 639 651 q 615 524 639 561 q 551 463 592 488 q 624 400 593 431 q 764 501 703 464 q 885 538 825 538 q 972 508 929 538 q 1041 428 1014 479 q 1068 314 1068 376 q 1042 183 1068 260 q 986 54 1017 106 l 889 108 q 972 227 938 171 q 1007 342 1007 283 q 977 424 1007 396 q 901 453 947 453 q 799 419 851 453 q 682 324 746 385 q 711 215 711 269 q 684 118 711 167 q 608 39 657 69 q 496 8 558 8 q 229 122 347 8 q 35 369 111 236 l 81 400 q 178 263 115 335 q 314 141 240 190 q 454 92 388 92 q 578 138 531 92 q 626 250 626 185 q 485 435 626 342 q 399 422 443 422 q 288 438 335 422 l 253 508 l 263 528 q 369 518 333 518 q 508 552 456 518 q 560 644 560 586 q 522 733 560 688 q 432 811 485 778 l -7 811 l -37 872 l -37 889 l 1115 889 l 1147 829 l 1149 810 z "},"ऋ":{"ha":1172,"x_min":-37,"x_max":1172,"o":"m 1172 829 l 1172 811 l 639 811 l 639 457 q 674 456 650 456 q 832 500 769 456 l 783 607 q 814 626 792 617 q 856 635 836 635 q 927 610 899 635 q 956 546 956 586 q 919 467 956 500 l 1026 233 q 919 160 953 193 q 885 89 885 128 q 911 31 885 57 q 983 4 938 4 q 1049 13 1011 4 q 1114 38 1086 22 l 1171 -40 q 1107 -66 1142 -56 q 1044 -76 1072 -76 q 934 -49 989 -76 q 844 23 879 -22 q 808 119 808 68 q 841 203 808 161 q 936 283 874 246 l 868 429 q 779 394 828 407 q 686 381 731 381 q 639 385 661 381 l 639 -39 l 619 -39 l 543 4 l 547 331 l 544 333 l 175 47 l 107 122 l 543 429 q 415 518 476 493 q 290 543 353 543 q 202 531 246 543 q 99 496 158 518 l 49 588 q 147 617 83 601 q 251 633 210 633 q 397 599 326 632 q 546 506 468 567 l 546 811 l -7 811 l -37 872 l -37 889 l 1139 889 l 1172 829 z "},"ॠ":{"ha":1172,"x_min":-37,"x_max":1258,"o":"m 1172 829 l 1172 811 l 639 811 l 639 457 q 674 456 650 456 q 831 503 769 456 l 783 607 q 814 626 792 617 q 856 635 836 635 q 926 611 899 635 q 953 547 953 588 q 919 467 953 503 l 1026 233 q 919 160 953 193 q 885 89 885 128 q 903 38 885 58 q 968 17 922 17 q 1033 26 996 17 q 1099 51 1071 36 l 1157 -28 q 1092 -53 1128 -43 q 1026 -64 1057 -62 q 979 -161 976 -106 q 1002 -215 979 -190 q 1071 -240 1025 -240 q 1136 -231 1099 -240 q 1201 -204 1174 -221 l 1258 -285 q 1195 -310 1231 -300 q 1131 -319 1160 -319 q 1022 -294 1074 -319 q 939 -227 971 -269 q 907 -136 907 -185 q 932 -42 907 -81 q 842 24 876 -19 q 808 119 808 67 q 841 203 808 161 q 936 283 874 246 l 868 429 q 780 393 828 406 q 685 381 732 381 q 639 385 660 381 l 639 -39 l 619 -39 l 543 4 l 547 332 l 544 333 l 175 47 l 107 122 l 543 429 q 415 518 476 493 q 290 543 353 543 q 202 531 246 543 q 99 496 158 518 l 49 588 q 147 617 83 601 q 251 633 210 633 q 397 599 326 632 q 546 506 468 567 l 546 811 l -7 811 l -37 872 l -37 889 l 1139 889 l 1172 829 z "},"ऌ":{"ha":1001,"x_min":-37,"x_max":1013,"o":"m 1001 829 l 1001 811 l 739 811 l 739 588 q 863 511 808 567 q 917 386 917 456 q 880 267 915 321 q 778 144 844 214 q 706 63 728 92 q 685 3 685 33 q 710 -54 685 -32 q 779 -76 736 -76 q 863 -50 822 -76 q 946 21 903 -24 l 1013 -46 q 910 -117 960 -94 q 808 -139 860 -139 q 718 -115 769 -139 q 631 -51 667 -92 q 596 40 596 -10 q 619 106 596 74 q 690 185 643 138 q 791 306 756 251 q 826 428 826 360 q 807 488 826 463 q 762 524 788 513 q 717 536 736 536 q 575 444 626 536 q 496 232 524 351 l 400 278 q 465 444 421 368 q 384 509 431 483 q 297 535 338 535 q 195 491 235 535 q 156 378 156 447 q 198 185 156 271 q 304 11 240 99 l 258 -15 q 126 200 181 93 q 72 419 72 307 q 97 522 72 475 q 165 594 122 568 q 258 621 207 621 q 387 583 322 621 q 499 492 451 546 q 646 594 561 576 l 647 811 l -7 811 l -37 872 l -37 889 l 969 889 l 1001 829 z "},"ॡ":{"ha":1001,"x_min":-37,"x_max":1183,"o":"m 1001 829 l 1001 811 l 739 811 l 739 588 q 863 511 808 567 q 917 386 917 456 q 880 267 915 321 q 778 144 844 214 q 706 63 728 92 q 685 3 685 33 q 710 -54 685 -32 q 779 -76 736 -76 q 863 -50 822 -76 q 946 21 903 -24 l 1013 -46 q 901 -121 957 -96 q 858 -199 858 -161 q 883 -255 858 -233 q 950 -276 908 -276 q 1033 -251 993 -276 q 1117 -181 1074 -225 l 1183 -247 q 1080 -318 1129 -296 q 981 -340 1031 -340 q 889 -324 938 -340 q 806 -273 840 -307 q 772 -190 772 -239 q 788 -137 772 -164 q 701 -106 746 -131 q 626 -44 656 -82 q 596 40 596 -6 q 619 106 596 74 q 690 185 643 138 q 791 306 756 251 q 826 428 826 360 q 807 488 826 463 q 762 524 788 513 q 717 536 736 536 q 575 444 626 536 q 496 232 524 351 l 400 278 q 465 444 422 372 q 384 509 431 483 q 297 535 338 535 q 195 491 235 535 q 156 378 156 447 q 198 185 156 271 q 304 11 240 99 l 258 -15 q 126 200 181 93 q 72 419 72 307 q 97 522 72 475 q 165 594 122 568 q 258 621 207 621 q 386 583 321 621 q 499 493 451 546 q 646 594 561 576 l 647 811 l -7 811 l -37 872 l -37 889 l 969 889 l 1001 829 z "},"ऍ":{"ha":796,"x_min":-37,"x_max":890,"o":"m 0 0 m 735 -24 q 858 -119 826 -85 q 890 -187 890 -153 q 864 -248 890 -226 q 797 -269 838 -269 q 747 -251 768 -269 q 717 -210 726 -233 l 717 -207 l 785 -132 l 274 211 q 167 302 193 267 q 142 388 142 338 l 142 811 l -7 811 l -37 872 l -37 889 l 763 889 l 796 829 l 796 811 l 658 811 l 658 472 q 618 340 658 386 q 524 274 578 293 l 456 319 l 456 333 q 538 385 510 358 q 567 454 567 411 l 567 811 l 235 811 l 235 372 q 250 319 235 342 q 307 267 265 296 l 735 -24 m 688 1178 q 572 1073 635 1110 q 419 1036 510 1036 q 240 1095 318 1036 q 111 1235 163 1154 l 150 1256 q 371 1111 254 1113 q 519 1151 454 1111 q 621 1242 583 1190 l 688 1178 z "},"ऎ":{"ha":796,"x_min":-87,"x_max":892,"o":"m 0 1343 q -21 1251 -21 1278 q 13 1189 -21 1210 q 101 1168 47 1168 q 251 1178 138 1168 q 341 1183 282 1179 q 419 1188 400 1188 q 517 1165 471 1188 q 593 1104 563 1142 q 658 960 658 1026 q 646 889 658 936 l 763 889 l 796 829 l 796 811 l 658 811 l 658 472 q 619 340 658 386 q 524 274 579 293 l 456 319 l 456 333 q 538 385 510 358 q 567 454 567 411 l 567 811 l 236 811 l 236 372 q 251 319 236 342 q 308 267 267 296 l 735 -24 q 859 -119 826 -85 q 892 -187 892 -153 q 865 -248 892 -226 q 799 -269 838 -269 q 748 -251 769 -269 q 717 -210 726 -233 l 717 -207 l 786 -132 l 275 211 q 191 276 219 249 q 153 329 163 304 q 143 388 143 354 l 143 811 l -6 811 l -37 872 l -37 889 l 581 889 q 592 938 592 911 q 556 1049 592 1004 q 438 1094 521 1094 q 331 1086 414 1094 q 192 1076 221 1076 q 50 1101 114 1076 q -51 1162 -14 1125 q -87 1231 -87 1199 q -75 1310 -87 1271 q -61 1353 -62 1349 l 0 1343 z "},"ए":{"ha":796,"x_min":-37,"x_max":890,"o":"m 735 -24 q 858 -119 826 -85 q 890 -187 890 -153 q 864 -248 890 -226 q 797 -269 838 -269 q 747 -251 768 -269 q 717 -210 726 -233 l 717 -207 l 785 -132 l 274 211 q 167 302 193 267 q 142 388 142 338 l 142 811 l -7 811 l -37 872 l -37 889 l 763 889 l 796 829 l 796 811 l 658 811 l 658 472 q 618 340 658 386 q 524 274 578 293 l 456 319 l 456 333 q 538 385 510 358 q 567 454 567 411 l 567 811 l 235 811 l 235 372 q 250 319 235 342 q 307 267 265 296 l 735 -24 z "},"ऐ":{"ha":796,"x_min":-37,"x_max":890,"o":"m 0 0 m 735 -24 q 858 -119 826 -85 q 890 -187 890 -153 q 864 -248 890 -226 q 797 -269 838 -269 q 747 -251 768 -269 q 717 -210 726 -233 l 717 -207 l 785 -132 l 274 211 q 167 302 193 267 q 142 388 142 338 l 142 811 l -7 811 l -37 872 l -37 889 l 763 889 l 796 829 l 796 811 l 658 811 l 658 472 q 618 340 658 386 q 524 274 578 293 l 456 319 l 456 333 q 538 385 510 358 q 567 454 567 411 l 567 811 l 235 811 l 235 372 q 250 319 235 342 q 307 267 265 296 l 735 -24 m 221 1413 q 385 1336 314 1413 q 532 1113 456 1260 q 558 1061 553 1071 q 639 897 626 926 l 565 897 q 494 1049 506 1029 q 335 1299 372 1279 l 175 1251 q 145 1289 158 1265 q 132 1338 132 1313 q 156 1393 132 1374 q 221 1413 179 1413 z "},"ऑ":{"ha":1508,"x_min":4,"x_max":1581,"o":"m 4 0 m 1508 813 l 1350 813 l 1350 -37 l 1331 -37 l 1256 6 l 1256 813 l 936 813 l 936 -37 l 918 -37 l 843 6 l 843 381 l 842 381 q 736 350 792 350 q 571 408 657 350 l 567 406 q 619 246 619 332 q 560 103 619 158 q 407 47 501 47 q 167 142 263 47 q 4 365 72 236 l 49 392 q 191 211 104 292 q 368 131 278 131 q 487 176 440 131 q 533 288 533 221 q 508 381 533 335 q 444 456 483 426 q 286 426 374 433 l 250 494 l 260 522 q 435 564 374 528 q 494 619 472 588 q 515 696 515 650 q 494 760 515 729 q 438 810 472 790 q 369 829 404 829 q 176 743 279 829 l 126 838 q 232 890 164 863 q 331 918 300 918 q 449 878 389 917 q 550 777 510 839 q 590 649 590 715 q 567 558 590 603 q 500 479 544 513 q 688 432 604 432 q 843 485 768 432 l 844 811 l 647 811 l 615 872 l 615 889 l 1475 889 l 1508 829 l 1508 813 m 1581 1178 q 1465 1073 1528 1110 q 1313 1036 1403 1036 q 1133 1095 1211 1036 q 1004 1235 1056 1154 l 1043 1256 q 1264 1111 1147 1113 q 1412 1151 1347 1111 q 1514 1242 1476 1190 l 1581 1178 z "},"ऒ":{"ha":1508,"x_min":4,"x_max":1508,"o":"m 685 1343 q 665 1251 665 1282 q 699 1189 665 1210 q 786 1168 733 1168 q 936 1178 822 1168 q 1026 1183 967 1179 q 1104 1188 1085 1188 q 1202 1165 1157 1188 q 1278 1104 1247 1142 q 1343 960 1343 1024 q 1331 889 1343 936 l 1475 889 l 1508 829 l 1508 811 l 1349 811 l 1349 -39 l 1331 -39 l 1256 4 l 1257 811 l 936 811 l 936 -39 l 917 -39 l 843 4 l 843 379 l 840 379 q 735 349 792 349 q 571 407 657 349 l 565 403 q 619 244 619 326 q 560 101 619 157 q 407 46 501 46 q 167 140 263 46 q 4 364 72 235 l 49 390 q 191 210 104 290 q 368 129 278 129 q 487 174 440 129 q 533 286 533 219 q 508 378 533 332 q 444 454 483 424 q 367 435 413 443 q 286 425 322 428 l 249 493 l 260 521 q 435 563 374 528 q 494 617 472 586 q 515 694 515 649 q 493 758 515 728 q 437 808 471 789 q 368 828 403 828 q 271 803 321 828 q 176 742 221 779 l 125 836 q 231 889 163 861 q 331 917 300 917 q 449 876 389 915 q 549 776 510 838 q 589 647 589 714 q 564 553 589 599 q 499 479 539 508 q 688 432 603 432 q 771 446 733 432 q 843 486 808 460 l 843 811 l 647 811 l 615 872 l 615 889 l 1265 889 q 1276 938 1276 911 q 1241 1049 1276 1004 q 1122 1094 1206 1094 q 1015 1086 1099 1094 q 876 1076 906 1076 q 735 1101 799 1076 q 634 1162 671 1125 q 597 1231 597 1199 q 625 1353 597 1278 l 685 1343 z "},"ओ":{"ha":1508,"x_min":4,"x_max":1508,"o":"m 4 0 m 1508 813 l 1350 813 l 1350 -37 l 1331 -37 l 1256 6 l 1256 813 l 936 813 l 936 -37 l 918 -37 l 843 6 l 843 381 l 842 381 q 736 350 792 350 q 571 408 657 350 l 567 406 q 619 246 619 332 q 560 103 619 158 q 407 47 501 47 q 167 142 263 47 q 4 365 72 236 l 49 392 q 191 211 104 292 q 368 131 278 131 q 487 176 440 131 q 533 288 533 221 q 508 381 533 335 q 444 456 483 426 q 286 426 374 433 l 250 494 l 260 522 q 435 564 374 528 q 494 619 472 588 q 515 696 515 650 q 494 760 515 729 q 438 810 472 790 q 369 829 404 829 q 176 743 279 829 l 126 838 q 232 890 164 863 q 331 918 300 918 q 449 878 389 917 q 550 777 510 839 q 590 649 590 715 q 567 558 590 603 q 500 479 544 513 q 688 432 604 432 q 843 485 768 432 l 844 811 l 647 811 l 615 872 l 615 889 l 1475 889 l 1508 829 l 1508 813 m 897 1410 q 1061 1333 990 1410 q 1208 1110 1132 1257 q 1235 1058 1229 1068 q 1315 894 1303 924 l 1242 894 q 1171 1046 1182 1026 q 1011 1296 1049 1276 l 851 1249 q 822 1286 835 1263 q 808 1335 808 1310 q 832 1390 808 1371 q 897 1410 856 1410 z "},"औ":{"ha":1508,"x_min":4,"x_max":1508,"o":"m 4 0 m 1508 813 l 1350 813 l 1350 -37 l 1331 -37 l 1256 6 l 1256 813 l 936 813 l 936 -37 l 918 -37 l 843 6 l 843 381 l 842 381 q 736 350 792 350 q 571 408 657 350 l 567 406 q 619 246 619 332 q 560 103 619 158 q 407 47 501 47 q 167 142 263 47 q 4 365 72 236 l 49 392 q 191 211 104 292 q 368 131 278 131 q 487 176 440 131 q 533 288 533 221 q 508 381 533 335 q 444 456 483 426 q 286 426 374 433 l 250 494 l 260 522 q 435 564 374 528 q 494 619 472 588 q 515 696 515 650 q 494 760 515 729 q 438 810 472 790 q 369 829 404 829 q 176 743 279 829 l 126 838 q 232 890 164 863 q 331 918 300 918 q 449 878 389 917 q 550 777 510 839 q 590 649 590 715 q 567 558 590 603 q 500 479 544 513 q 688 432 604 432 q 843 485 768 432 l 844 811 l 647 811 l 615 872 l 615 889 l 1475 889 l 1508 829 l 1508 813 m 925 1433 q 1100 1353 1026 1433 q 1242 1126 1174 1272 q 1292 1007 1264 1075 q 1344 876 1321 939 l 1301 876 q 1260 975 1282 925 q 1222 1057 1238 1025 q 1123 1230 1168 1158 q 1056 1318 1078 1301 l 885 1267 l 883 1267 q 849 1306 864 1281 q 835 1358 835 1332 q 859 1413 835 1393 q 925 1433 883 1433 m 906 1196 q 1263 876 1061 1196 l 1221 875 q 1107 1014 1158 956 q 1040 1078 1056 1072 l 864 1053 l 861 1053 q 834 1085 844 1065 q 824 1126 824 1106 q 846 1177 824 1158 q 906 1196 868 1196 z "},"ॳ":{"ha":1096,"x_min":4,"x_max":1096,"o":"m 4 0 m 1096 813 l 936 813 l 936 -37 l 918 -37 l 843 6 l 843 381 l 842 381 q 736 350 792 350 q 571 408 657 350 l 567 406 q 619 246 619 332 q 560 103 619 158 q 407 47 501 47 q 167 142 263 47 q 4 365 72 236 l 49 392 q 191 211 104 292 q 368 131 278 131 q 487 176 440 131 q 533 288 533 221 q 508 381 533 335 q 444 456 483 426 q 286 426 374 433 l 250 494 l 260 522 q 435 564 374 528 q 494 619 472 588 q 515 696 515 650 q 494 760 515 729 q 438 810 472 790 q 369 829 404 829 q 176 743 279 829 l 126 838 q 232 890 164 863 q 331 918 300 918 q 449 878 389 917 q 550 777 510 839 q 590 649 590 715 q 567 558 590 603 q 500 479 544 513 q 688 432 604 432 q 843 485 768 432 l 844 811 l 647 811 l 615 872 l 615 889 l 1064 889 l 1096 829 l 1096 813 m 936 1261 l 936 871 l 843 871 l 843 1261 l 936 1261 z "},"ॴ":{"ha":1508,"x_min":4,"x_max":1508,"o":"m 4 0 m 1508 813 l 1350 813 l 1350 -37 l 1331 -37 l 1256 6 l 1256 813 l 936 813 l 936 -37 l 918 -37 l 843 6 l 843 381 l 842 381 q 736 350 792 350 q 571 408 657 350 l 567 406 q 619 246 619 332 q 560 103 619 158 q 407 47 501 47 q 167 142 263 47 q 4 365 72 236 l 49 392 q 191 211 104 292 q 368 131 278 131 q 487 176 440 131 q 533 288 533 221 q 508 381 533 335 q 444 456 483 426 q 286 426 374 433 l 250 494 l 260 522 q 435 564 374 528 q 494 619 472 588 q 515 696 515 650 q 494 760 515 729 q 438 810 472 790 q 369 829 404 829 q 176 743 279 829 l 126 838 q 232 890 164 863 q 331 918 300 918 q 449 878 389 917 q 550 777 510 839 q 590 649 590 715 q 567 558 590 603 q 500 479 544 513 q 688 432 604 432 q 843 485 768 432 l 844 811 l 647 811 l 615 872 l 615 889 l 1475 889 l 1508 829 l 1508 813 m 1350 1261 l 1350 871 l 1257 871 l 1257 1261 l 1350 1261 z "},"ॶ":{"ha":1096,"x_min":4,"x_max":1096,"o":"m 4 0 m 1096 813 l 936 813 l 936 -37 l 918 -37 l 843 6 l 843 381 l 842 381 q 736 350 792 350 q 571 408 657 350 l 567 406 q 619 246 619 332 q 560 103 619 158 q 407 47 501 47 q 167 142 263 47 q 4 365 72 236 l 49 392 q 191 211 104 292 q 368 131 278 131 q 487 176 440 131 q 533 288 533 221 q 508 381 533 335 q 444 456 483 426 q 286 426 374 433 l 250 494 l 260 522 q 435 564 374 528 q 494 619 472 588 q 515 696 515 650 q 494 760 515 729 q 438 810 472 790 q 369 829 404 829 q 176 743 279 829 l 126 838 q 232 890 164 863 q 331 918 300 918 q 449 878 389 917 q 550 777 510 839 q 590 649 590 715 q 567 558 590 603 q 500 479 544 513 q 688 432 604 432 q 843 485 768 432 l 844 811 l 647 811 l 615 872 l 615 889 l 1064 889 l 1096 829 l 1096 813 m 483 -214 q 733 -85 642 -212 l 782 -125 q 658 -244 740 -197 q 483 -292 576 -292 q 308 -244 389 -292 q 183 -125 226 -197 l 233 -85 q 483 -214 325 -212 z "},"ॷ":{"ha":1096,"x_min":4,"x_max":1096,"o":"m 4 0 m 1096 813 l 936 813 l 936 -37 l 918 -37 l 843 6 l 843 381 l 842 381 q 736 350 792 350 q 571 408 657 350 l 567 406 q 619 246 619 332 q 560 103 619 158 q 407 47 501 47 q 167 142 263 47 q 4 365 72 236 l 49 392 q 191 211 104 292 q 368 131 278 131 q 487 176 440 131 q 533 288 533 221 q 508 381 533 335 q 444 456 483 426 q 286 426 374 433 l 250 494 l 260 522 q 435 564 374 528 q 494 619 472 588 q 515 696 515 650 q 494 760 515 729 q 438 810 472 790 q 369 829 404 829 q 176 743 279 829 l 126 838 q 232 890 164 863 q 331 918 300 918 q 449 878 389 917 q 550 777 510 839 q 590 649 590 715 q 567 558 590 603 q 500 479 544 513 q 688 432 604 432 q 843 485 768 432 l 844 811 l 647 811 l 615 872 l 615 889 l 1064 889 l 1096 829 l 1096 813 m 483 -214 q 733 -85 642 -212 l 782 -125 q 658 -244 740 -197 q 483 -292 576 -292 q 308 -244 389 -292 q 183 -125 226 -197 l 233 -85 q 483 -214 325 -212 m 483 -444 q 733 -315 642 -443 l 782 -356 q 658 -475 740 -428 q 483 -522 576 -522 q 308 -475 389 -522 q 183 -356 226 -428 l 233 -315 q 483 -444 325 -443 z "},"ा":{"ha":413,"x_min":-37,"x_max":413,"o":"m 413 829 l 413 811 l 253 811 l 253 -39 l 235 -39 l 158 4 l 160 811 l -7 811 l -37 872 l -37 889 l 379 889 l 413 829 z "},"ि":{"ha":413,"x_min":-37,"x_max":989,"o":"m 378 1279 q 217 1233 279 1279 q 156 1100 156 1188 q 180 984 156 1044 q 229 889 204 924 l 379 889 l 413 829 l 413 811 l 253 811 l 253 -39 l 235 -39 l 158 4 l 160 811 l -7 811 l -37 872 l -37 889 l 164 889 q 61 1147 61 1040 q 96 1259 61 1210 q 194 1336 131 1308 q 339 1364 257 1364 q 638 1260 479 1364 q 989 985 797 1156 l 956 943 q 738 1119 831 1050 q 553 1234 646 1189 q 378 1279 460 1279 z "},"ी":{"ha":413,"x_min":-376,"x_max":413,"o":"m 413 829 l 413 811 l 253 811 l 253 -39 l 235 -39 l 158 4 l 160 811 l -7 811 l -37 872 l -37 889 l 169 889 q 18 1201 94 1075 q -149 1326 -58 1326 q -241 1283 -207 1326 q -275 1188 -275 1240 q -249 1089 -275 1139 q -192 1007 -224 1039 l -192 1004 l -250 975 q -339 1085 -301 1019 q -376 1225 -376 1151 q -351 1317 -376 1274 q -281 1385 -326 1360 q -176 1411 -235 1411 q -1 1331 -78 1411 q 125 1149 76 1250 q 236 889 174 1047 l 379 889 l 413 829 z "},"ॉ":{"ha":413,"x_min":-90,"x_max":486,"o":"m 0 0 m 413 829 l 413 811 l 253 811 l 253 -39 l 235 -39 l 158 4 l 160 811 l -7 811 l -37 872 l -37 889 l 379 889 l 413 829 m 486 1178 q 371 1073 433 1110 q 218 1036 308 1036 q 39 1095 117 1036 q -90 1235 -39 1154 l -51 1256 q 169 1111 53 1113 q 317 1151 253 1111 q 419 1242 382 1190 l 486 1178 z "},"ॊ":{"ha":413,"x_min":-492,"x_max":411,"o":"m -404 1343 q -425 1251 -425 1285 q -391 1189 -425 1210 q -303 1168 -357 1168 q -157 1176 -282 1168 q 17 1188 -15 1188 q 113 1165 68 1188 q 189 1104 158 1142 q 253 960 253 1025 q 242 889 253 931 l 378 889 l 411 829 l 411 811 l 253 811 l 253 -39 l 233 -39 l 158 4 l 160 811 l -7 811 l -39 872 l -39 889 l 176 889 q 188 938 188 911 q 152 1049 188 1004 q 33 1094 117 1094 q -74 1086 10 1094 q -212 1076 -183 1076 q -354 1101 -290 1076 q -455 1162 -418 1125 q -492 1231 -492 1199 q -479 1310 -492 1271 q -465 1353 -467 1349 l -404 1343 z "},"ो":{"ha":413,"x_min":-267,"x_max":413,"o":"m 413 828 l 413 810 l 253 810 l 253 -40 l 235 -40 l 158 3 l 160 810 l -7 810 l -37 871 l -37 888 l 169 888 q 96 1047 113 1017 q -64 1297 -26 1278 l -224 1250 q -253 1288 -240 1264 q -267 1336 -267 1311 q -243 1392 -267 1372 q -178 1411 -219 1411 q -14 1335 -85 1411 q 133 1111 57 1258 q 142 1094 138 1103 q 151 1076 147 1085 q 242 889 224 931 l 379 889 l 413 828 z "},"ौ":{"ha":413,"x_min":-269,"x_max":413,"o":"m 413 829 l 413 811 l 253 811 l 253 -39 l 235 -39 l 158 4 l 160 811 l -7 811 l -37 872 l -37 889 l 119 889 q 11 1021 60 967 q -53 1081 -37 1075 l -229 1056 l -232 1056 q -258 1090 -247 1069 q -269 1129 -269 1110 q -247 1180 -269 1161 q -187 1199 -225 1199 q 164 889 -35 1199 l 206 889 q 165 984 185 938 q 129 1060 144 1031 q 31 1232 76 1160 q -36 1321 -14 1304 l -206 1269 l -208 1269 q -241 1309 -226 1283 q -256 1361 -256 1335 q -233 1417 -256 1397 q -167 1436 -210 1436 q 6 1357 -65 1436 q 149 1131 78 1278 q 197 1019 168 1090 q 247 889 226 947 l 379 889 l 413 829 z "},"ऻ":{"ha":413,"x_min":-37,"x_max":413,"o":"m 413 829 l 413 811 l 253 811 l 253 -39 l 235 -39 l 158 4 l 160 811 l -7 811 l -37 872 l -37 889 l 160 889 l 160 1261 l 253 1261 l 253 889 l 379 889 l 413 829 z "},"क":{"ha":1156,"x_min":-37,"x_max":1156,"o":"m 649 811 l 649 481 q 753 560 699 528 q 860 592 808 592 q 1022 520 965 592 q 1078 328 1078 449 q 1044 184 1078 268 q 976 53 1011 100 l 908 135 q 981 235 946 174 q 1017 358 1017 297 q 978 465 1017 422 q 885 508 939 508 q 773 473 831 508 q 649 371 715 438 l 649 -39 l 631 -39 l 554 4 l 560 286 l 558 288 q 479 225 511 247 q 405 187 447 203 q 311 171 363 171 q 194 199 247 171 q 108 279 140 226 q 76 407 76 332 q 103 516 76 465 q 180 598 131 567 q 292 629 229 629 q 443 585 379 629 q 558 471 507 540 l 560 811 l -7 811 l -37 872 l -37 889 l 1124 889 l 1156 829 l 1156 811 l 649 811 m 274 253 q 557 392 415 253 l 557 397 q 454 494 517 454 q 329 535 392 535 q 199 490 256 533 q 142 375 142 447 q 181 286 142 319 q 274 253 221 253 z "},"ख":{"ha":1144,"x_min":-37,"x_max":1156,"o":"m 1156 829 l 1156 811 l 986 811 l 986 -39 l 967 -39 l 892 4 l 894 107 q 751 42 835 69 q 596 15 668 15 q 190 263 417 15 q 114 360 136 322 q 92 433 92 397 q 112 485 92 461 q 154 521 132 510 l 225 461 q 255 531 244 489 q 265 615 265 572 q 260 715 265 658 q 247 811 256 771 l -6 811 l -37 872 l -37 889 l 1124 889 l 1156 829 m 225 313 q 390 162 293 232 q 594 92 488 92 q 749 123 667 92 q 894 204 831 154 l 893 356 q 778 272 825 300 q 674 243 731 243 q 558 272 610 243 q 476 349 506 300 q 447 454 447 397 q 508 611 447 551 q 663 671 569 671 q 789 638 731 671 q 890 558 847 604 l 893 558 l 893 811 l 326 811 q 344 683 338 754 q 350 565 350 613 q 318 421 350 476 q 226 313 286 365 l 225 313 m 893 472 q 802 555 857 525 q 692 585 747 585 q 600 563 642 585 q 534 503 558 540 q 510 421 510 465 q 544 351 510 381 q 638 322 579 322 q 769 366 699 322 q 892 472 839 410 l 892 474 l 893 472 z "},"ग":{"ha":832,"x_min":-37,"x_max":829,"o":"m 829 831 l 829 813 l 669 813 l 669 -37 l 651 -37 l 576 6 l 576 813 l 288 813 q 303 408 303 568 q 283 315 303 357 q 207 274 263 274 q 127 299 160 274 q 79 360 94 325 q 64 425 64 396 q 71 471 64 450 l 206 453 l 214 811 l -7 811 l -37 872 l -37 889 l 799 889 l 829 831 z "},"घ":{"ha":899,"x_min":-37,"x_max":922,"o":"m 922 831 l 922 813 l 764 813 l 764 -37 l 744 -37 l 669 6 l 672 279 l 669 281 q 404 150 517 150 q 246 196 306 150 q 174 269 203 226 q 144 360 144 311 q 174 469 144 417 q 254 553 204 521 q 171 599 201 578 q 121 651 140 619 q 101 729 101 682 q 119 811 101 765 l -7 811 l -37 872 l -37 889 l 890 889 l 922 831 m 351 229 q 519 285 428 229 q 671 424 610 342 l 671 811 l 231 811 q 199 766 211 793 q 188 707 188 739 q 215 646 188 674 q 280 603 242 618 q 346 589 318 588 l 353 589 q 479 574 440 589 l 503 529 l 493 503 q 403 513 457 513 q 306 483 346 513 q 247 411 267 454 q 228 325 228 368 q 265 254 228 276 q 351 232 303 232 l 351 229 z "},"ङ":{"ha":951,"x_min":-37,"x_max":951,"o":"m 951 829 l 951 811 l 618 811 l 618 564 l 324 564 q 219 451 219 564 q 244 391 219 419 q 294 363 269 363 q 349 369 321 363 q 421 390 378 376 q 500 413 472 406 q 557 419 528 419 q 630 385 594 419 q 688 301 665 351 q 710 204 710 250 q 656 55 711 114 q 504 -4 601 -4 q 280 54 390 -4 q 44 253 169 113 l 88 292 q 463 78 282 78 q 588 117 538 78 q 639 231 639 156 q 623 296 639 265 q 589 335 607 326 q 524 329 553 336 q 451 307 494 322 q 393 288 415 293 q 344 282 371 282 q 256 314 304 282 q 174 394 207 346 q 140 489 140 443 q 181 603 140 560 q 285 646 222 646 l 524 646 l 524 811 l -7 811 l -37 872 l -37 889 l 919 889 l 951 829 m 929 489 l 836 394 l 744 488 l 836 582 l 929 489 z "},"च":{"ha":907,"x_min":-37,"x_max":904,"o":"m 904 829 l 904 811 l 746 811 l 746 -39 l 728 -39 l 651 3 l 653 257 l 651 258 q 534 183 596 214 q 415 153 472 153 q 323 169 365 153 q 251 213 281 185 q 174 378 174 290 q 192 457 174 419 q 236 519 210 494 l 236 522 l 88 522 l 56 583 l 56 599 l 519 599 l 551 540 l 551 522 l 421 522 l 421 519 q 297 467 342 518 q 251 344 253 415 q 292 253 253 292 q 379 215 331 215 q 525 271 446 215 q 654 390 604 326 l 654 811 l -7 811 l -37 872 l -37 889 l 874 889 l 904 829 z "},"छ":{"ha":1069,"x_min":-37,"x_max":1069,"o":"m 776 811 l 776 654 q 894 574 846 631 q 943 428 942 517 q 897 256 943 340 q 1006 171 967 217 q 1046 56 1044 125 q 1015 -72 1046 3 q 946 -204 985 -147 l 875 -128 q 982 69 982 -11 q 950 138 981 108 q 860 199 919 167 q 676 47 788 104 q 449 -11 565 -11 q 322 24 389 -11 q 211 110 256 58 q 167 204 167 161 q 219 325 167 272 q 115 406 147 369 q 83 496 83 442 q 106 570 83 533 q 169 630 129 607 q 258 653 210 653 q 324 647 293 653 q 372 633 356 642 l 411 543 q 282 576 346 576 q 197 549 235 576 q 160 474 160 521 q 181 422 160 444 q 232 385 201 399 q 288 369 263 371 q 363 385 325 385 q 471 374 424 385 l 494 325 l 485 300 q 399 308 447 308 q 324 288 356 308 q 275 235 292 267 q 258 169 258 203 q 299 99 258 129 q 397 68 340 68 q 614 115 514 69 q 779 239 714 161 q 742 258 767 244 q 543 524 543 368 q 583 628 543 593 q 682 668 624 664 l 682 811 l -7 811 l -37 872 l -37 889 l 1036 889 l 1069 829 l 1069 811 l 776 811 m 863 463 q 820 562 863 526 q 722 599 778 597 q 653 573 681 597 q 625 500 625 549 q 670 394 625 443 q 786 311 715 346 l 818 294 q 864 463 864 375 l 863 463 z "},"ज":{"ha":1007,"x_min":-37,"x_max":1006,"o":"m 1006 811 l 846 811 l 846 -39 l 828 -39 l 753 4 l 753 522 l 449 522 q 555 406 514 469 q 596 288 596 342 q 553 172 596 219 q 446 125 510 125 q 273 189 349 125 q 150 335 197 253 q 51 532 103 418 l 35 569 l 86 593 q 180 416 139 488 q 285 279 221 344 q 421 214 350 214 q 484 242 461 214 q 507 311 507 271 q 442 446 507 378 q 301 556 376 514 l 319 599 l 753 599 l 753 811 l -7 811 l -37 872 l -37 889 l 974 889 l 1006 829 l 1006 811 z "},"झ":{"ha":1056,"x_min":-37,"x_max":1054,"o":"m 1054 829 l 1054 811 l 894 811 l 894 -39 l 876 -39 l 803 3 l 803 324 l 800 324 q 763 313 786 318 q 719 307 739 307 q 648 316 679 307 q 572 342 617 325 l 568 342 q 596 225 596 283 q 560 138 596 179 q 462 68 524 96 q 329 35 400 40 l 467 -149 l 389 -229 l 253 36 q 140 66 190 44 q 89 122 89 88 q 119 192 89 164 q 182 219 149 219 q 203 217 194 219 l 272 111 q 459 156 386 118 q 532 264 532 193 q 520 327 532 297 q 493 364 508 357 q 446 356 475 364 q 411 347 417 349 q 293 325 333 325 q 216 359 260 325 q 141 442 172 393 q 110 529 110 490 q 142 638 110 596 q 233 679 175 679 l 446 679 l 446 811 l -7 811 l -37 872 l -37 889 l 1022 889 l 1054 829 m 667 390 q 740 401 704 390 q 801 428 776 411 l 801 811 l 538 811 l 538 597 l 261 597 q 199 567 218 597 q 181 496 181 536 q 203 431 181 461 q 249 401 226 401 q 364 424 286 401 q 451 442 426 442 q 517 415 486 442 q 594 397 558 404 q 668 390 629 390 l 667 390 z "},"ञ":{"ha":1001,"x_min":-37,"x_max":1001,"o":"m 1001 811 l 843 811 l 843 -37 l 825 -37 l 750 6 l 750 361 l 749 363 q 697 346 725 346 q 655 355 679 346 q 622 367 631 364 l 618 367 q 552 237 611 289 q 411 185 493 185 q 215 254 311 185 q 15 451 118 324 l 56 489 q 233 328 156 381 q 379 275 310 275 q 499 318 453 276 q 544 417 544 360 q 513 495 544 458 q 439 532 482 532 q 372 515 410 532 q 301 476 335 499 l 238 557 q 378 617 331 617 q 469 592 418 617 q 561 524 521 567 q 614 428 601 481 l 633 426 q 749 461 697 426 l 750 811 l -7 811 l -37 872 l -37 889 l 968 889 l 1000 829 l 1001 811 z "},"ट":{"ha":732,"x_min":-37,"x_max":746,"o":"m 746 829 l 746 811 l 526 811 l 526 535 q 268 465 375 524 q 161 303 161 407 q 192 209 161 246 q 267 155 222 172 q 353 138 311 138 q 490 158 414 138 q 651 226 567 178 l 696 139 q 386 56 547 56 q 236 94 303 56 q 131 199 169 133 q 93 340 93 265 q 192 540 93 478 q 433 621 292 601 l 433 811 l -7 811 l -37 872 l -37 889 l 714 889 l 746 829 z "},"ठ":{"ha":803,"x_min":-37,"x_max":801,"o":"m 800 814 l 522 814 q 567 696 567 744 q 532 583 567 647 q 706 311 706 458 q 667 172 706 236 q 555 69 628 107 q 385 31 482 31 q 228 74 297 31 q 121 188 160 117 q 82 342 82 260 q 188 544 82 479 q 453 624 293 610 q 472 715 472 668 q 435 811 472 753 l -7 811 l -37 872 l -37 889 l 769 889 l 801 829 l 800 814 m 618 354 q 578 465 618 413 q 494 535 538 517 q 252 467 356 524 q 149 307 149 410 q 180 199 149 243 q 258 134 211 156 q 351 113 304 113 q 498 146 438 113 q 588 235 558 179 q 618 354 618 290 z "},"ड":{"ha":797,"x_min":-37,"x_max":797,"o":"m 797 829 l 797 811 l 643 811 l 643 564 l 325 564 q 221 451 221 564 q 244 391 221 419 q 294 363 268 363 q 358 369 325 363 q 436 390 390 376 q 517 412 483 404 q 583 419 550 419 q 656 385 619 419 q 714 301 692 351 q 736 204 736 250 q 677 54 736 113 q 513 -4 618 -4 q 282 53 392 -4 q 46 253 172 111 l 89 292 q 289 126 194 175 q 471 78 383 78 q 606 117 547 78 q 665 231 665 157 q 650 296 665 265 q 618 335 635 326 q 543 328 576 336 q 465 307 510 321 q 400 288 425 294 q 344 282 375 282 q 256 314 304 282 q 175 394 208 346 q 142 489 142 442 q 183 603 142 560 q 286 646 224 646 l 550 646 l 550 811 l -7 811 l -37 872 l -37 889 l 765 889 l 797 829 z "},"ढ":{"ha":765,"x_min":-37,"x_max":765,"o":"m 367 551 q 198 500 258 551 q 138 356 138 449 q 174 230 138 286 q 265 138 211 174 q 369 89 318 103 q 317 239 317 164 q 369 362 318 321 q 488 403 421 403 q 585 376 540 403 q 657 300 631 349 q 683 193 683 251 q 647 91 683 135 q 555 24 610 47 q 449 1 500 1 q 277 49 365 1 q 130 185 189 96 q 71 392 71 274 q 144 576 71 515 q 342 636 217 636 l 483 636 l 483 811 l -7 811 l -37 872 l -37 889 l 731 889 l 765 829 l 765 811 l 575 811 l 575 551 l 367 551 m 522 331 q 461 313 493 331 q 408 263 429 296 q 386 183 386 229 q 419 82 388 135 q 563 124 504 86 q 622 221 622 163 q 592 301 622 271 q 524 332 561 332 l 522 331 z "},"ण":{"ha":1057,"x_min":-39,"x_max":1057,"o":"m 1057 811 l 896 811 l 896 -39 l 878 -39 l 803 4 l 803 811 l 565 811 l 565 444 q 537 344 565 389 q 460 272 508 299 q 358 246 413 246 q 279 265 315 246 q 200 322 243 283 q 129 457 129 386 l 129 811 l -7 811 l -39 872 l -39 889 l 1024 889 l 1057 829 l 1057 811 m 474 811 l 222 811 l 222 443 q 256 351 222 372 q 349 329 289 329 q 442 373 410 329 q 474 468 474 417 l 474 811 z "},"त":{"ha":826,"x_min":-37,"x_max":826,"o":"m 826 811 l 667 811 l 667 -39 l 649 -39 l 575 4 l 575 518 l 356 518 q 216 479 260 518 q 174 360 172 440 q 226 197 174 285 q 371 18 279 108 l 340 -15 q 161 190 232 86 q 89 403 90 294 q 142 548 89 496 q 321 600 194 600 l 575 600 l 575 811 l -7 811 l -37 872 l -37 889 l 794 889 l 826 829 l 826 811 z "},"थ":{"ha":917,"x_min":68,"x_max":918,"o":"m 918 829 l 918 811 l 758 811 l 758 -39 l 740 -39 l 663 4 l 668 253 l 663 256 q 439 168 544 168 q 260 230 329 168 q 144 415 192 292 q 296 486 236 435 q 132 601 196 531 q 68 758 68 672 q 110 867 68 829 q 215 906 153 906 q 333 878 275 906 q 429 798 392 851 q 467 669 467 744 q 402 486 467 571 q 240 353 338 401 q 296 283 254 311 q 399 254 338 254 q 546 292 471 254 q 665 381 621 329 l 665 811 l 531 811 l 499 872 l 499 889 l 885 889 l 918 829 m 149 735 q 208 618 149 674 q 344 538 268 563 q 389 696 389 604 q 349 791 388 750 q 246 832 311 832 q 175 808 201 832 q 149 735 149 783 z "},"द":{"ha":776,"x_min":-37,"x_max":776,"o":"m 776 829 l 776 811 l 565 811 l 565 560 l 383 560 q 207 506 263 560 q 151 361 151 453 q 198 237 151 285 q 303 169 244 189 q 404 149 363 149 q 500 158 449 149 l 436 307 q 546 356 483 356 q 633 320 603 356 q 664 235 664 285 q 642 164 664 197 q 579 107 621 131 l 699 -117 l 631 -151 l 531 83 q 403 65 478 65 q 260 105 333 65 q 137 218 186 144 q 88 390 88 292 q 153 581 88 519 q 358 643 218 643 l 472 643 l 472 811 l -7 811 l -37 872 l -37 889 l 743 889 l 776 829 z "},"ध":{"ha":910,"x_min":69,"x_max":913,"o":"m 913 811 l 754 811 l 754 -39 l 735 -39 l 660 4 l 661 279 l 657 282 q 418 175 519 175 q 321 189 364 175 q 240 238 278 203 q 181 310 206 269 q 157 383 157 350 q 177 464 157 424 q 232 535 197 504 q 115 648 160 581 q 69 788 69 715 q 112 892 69 856 q 218 929 154 929 q 282 918 249 929 q 340 889 315 907 q 394 840 375 865 q 414 785 414 815 q 399 749 414 765 q 349 732 383 732 q 317 739 326 732 l 317 832 q 249 857 296 857 q 176 834 204 857 q 147 763 147 811 q 192 651 147 706 q 293 574 238 597 q 364 588 325 588 q 472 572 440 588 l 497 529 l 488 503 q 400 513 444 513 q 317 488 354 513 q 260 426 281 464 q 239 346 239 388 q 277 278 239 301 q 364 256 315 256 q 519 304 438 256 q 657 418 601 353 l 657 811 l 510 811 l 478 872 l 478 889 l 875 889 l 908 829 l 913 811 z "},"न":{"ha":794,"x_min":-37,"x_max":794,"o":"m 794 829 l 794 811 l 636 811 l 636 -39 l 617 -39 l 543 4 l 543 442 l 235 438 l 254 299 q 208 292 239 292 q 142 307 178 292 q 81 354 107 322 q 56 433 56 386 q 97 510 56 492 q 192 528 138 528 q 543 519 351 528 l 543 811 l -7 811 l -37 872 l -37 889 l 763 889 l 794 829 z "},"ऩ":{"ha":794,"x_min":-37,"x_max":794,"o":"m 794 829 l 794 811 l 636 811 l 636 -39 l 617 -39 l 543 4 l 543 442 l 235 438 l 254 299 q 208 292 239 292 q 142 307 178 292 q 81 354 107 322 q 56 433 56 386 q 97 510 56 492 q 192 528 138 528 q 543 519 351 528 l 543 811 l -7 811 l -37 872 l -37 889 l 763 889 l 794 829 m 314 185 l 407 92 l 315 -3 l 222 90 l 314 185 z "},"प":{"ha":793,"x_min":-37,"x_max":793,"o":"m 793 829 l 793 811 l 635 811 l 635 -39 l 615 -39 l 542 4 l 542 317 l 539 317 q 453 272 494 288 q 357 256 411 256 q 274 274 313 256 q 194 332 235 292 q 146 394 163 361 q 129 472 129 428 l 129 811 l -7 811 l -37 872 l -37 889 l 761 889 l 793 829 m 342 343 q 448 367 396 343 q 542 425 500 390 l 542 811 l 222 811 l 222 469 q 342 343 222 343 z "},"फ":{"ha":1129,"x_min":-37,"x_max":1129,"o":"m 626 811 l 626 506 q 732 587 681 556 q 838 618 783 618 q 999 547 942 618 q 1056 356 1056 476 q 1022 213 1056 297 q 954 81 989 129 l 883 161 q 957 263 921 200 q 993 385 993 325 q 954 492 993 449 q 861 536 915 536 q 749 499 801 536 q 626 392 696 461 l 626 -39 l 608 -39 l 532 4 l 532 310 l 528 310 q 445 270 485 285 q 357 256 406 256 q 274 274 313 256 q 194 332 235 292 q 146 394 163 361 q 129 472 129 428 l 129 811 l -7 811 l -37 872 l -37 889 l 1096 889 l 1129 829 l 1129 811 l 626 811 m 342 343 q 533 419 435 343 l 533 811 l 222 811 l 222 469 q 343 343 222 343 l 342 343 z "},"ब":{"ha":900,"x_min":-37,"x_max":901,"o":"m 901 829 l 901 811 l 740 811 l 740 -39 l 722 -39 l 649 3 l 651 281 l 646 283 q 506 182 574 219 q 371 144 439 144 q 238 173 301 144 q 134 256 174 201 q 94 386 94 311 q 133 531 94 469 q 229 624 171 592 q 346 656 288 656 q 515 606 439 656 q 644 486 592 556 l 649 486 l 649 811 l -7 811 l -37 872 l -37 889 l 868 889 l 901 829 m 494 275 q 581 335 540 300 q 650 404 622 369 q 536 515 608 467 q 399 564 464 564 q 313 549 354 564 l 493 274 l 494 275 m 332 226 q 450 253 386 226 l 268 528 q 191 454 219 500 q 163 358 163 408 q 210 263 163 301 q 332 225 258 225 l 332 226 z "},"भ":{"ha":983,"x_min":67,"x_max":983,"o":"m 983 828 l 983 810 l 824 810 l 824 -40 l 804 -40 l 731 3 l 731 326 l 414 326 q 392 244 411 278 q 332 210 374 210 q 274 228 303 210 q 226 282 246 247 q 203 382 203 326 q 204 404 203 397 l 321 404 l 321 521 q 134 620 201 564 q 67 765 67 676 q 107 868 67 831 q 208 906 147 906 q 351 859 288 906 q 414 697 414 813 l 414 406 l 731 406 l 731 811 l 510 811 l 478 872 l 478 889 l 950 889 l 983 828 m 146 739 q 195 647 146 682 q 328 588 244 613 q 333 717 333 671 q 306 802 333 769 q 238 835 278 835 q 172 810 197 835 q 147 739 147 785 l 146 739 z "},"म":{"ha":851,"x_min":-37,"x_max":853,"o":"m 853 829 l 853 811 l 693 811 l 693 -39 l 675 -39 l 600 4 l 600 351 l 257 351 q 235 269 254 303 q 175 235 217 235 q 120 251 147 235 q 74 300 93 268 q 46 410 46 351 l 47 429 l 165 429 l 165 811 l -6 811 l -37 872 l -37 889 l 818 889 l 853 829 m 601 429 l 601 811 l 258 811 l 258 429 l 601 429 z "},"य":{"ha":847,"x_min":-37,"x_max":847,"o":"m 847 811 l 689 811 l 689 -39 l 669 -39 l 594 4 l 599 249 l 593 251 q 374 168 475 168 q 192 243 267 168 q 75 451 118 318 q 213 524 151 474 q 275 636 275 575 q 244 718 275 678 q 157 811 214 758 l -7 811 l -37 872 l -37 889 l 817 889 l 847 829 l 847 811 m 332 254 q 476 290 403 254 q 596 375 549 325 l 597 811 l 242 811 l 242 810 q 331 706 297 754 q 365 607 365 658 q 301 478 365 536 q 171 390 238 421 q 219 296 174 338 q 332 254 265 254 z "},"र":{"ha":554,"x_min":-37,"x_max":554,"o":"m 554 810 l 332 810 q 349 680 343 751 q 356 564 356 608 q 322 419 356 479 q 231 311 288 360 l 521 -3 l 463 -46 l 182 276 q 115 365 135 332 q 96 432 96 399 q 117 483 96 458 q 160 519 138 507 l 231 460 q 260 530 249 489 q 271 614 271 571 q 265 712 271 654 q 251 811 260 769 l -7 811 l -37 872 l -37 889 l 522 889 l 554 829 l 554 810 z "},"ऱ":{"ha":554,"x_min":-37,"x_max":554,"o":"m 554 810 l 332 810 q 349 680 343 751 q 356 564 356 608 q 322 419 356 479 q 231 311 288 360 l 521 -3 l 463 -46 l 182 276 q 115 365 135 332 q 96 432 96 399 q 117 483 96 458 q 160 519 138 507 l 231 460 q 260 530 249 489 q 271 614 271 571 q 265 712 271 654 q 251 811 260 769 l -7 811 l -37 872 l -37 889 l 522 889 l 554 829 l 554 810 m 163 129 l 256 36 l 164 -58 l 71 35 l 163 129 z "},"ल":{"ha":996,"x_min":-37,"x_max":997,"o":"m 997 811 l 838 811 l 838 -39 l 819 -39 l 744 4 l 744 482 q 669 526 706 526 q 558 440 604 526 q 488 243 513 353 l 403 292 q 457 446 421 376 q 382 510 425 485 q 297 536 339 536 q 195 492 235 536 q 156 374 156 447 q 371 -18 156 178 l 332 -60 q 145 163 218 47 q 72 424 72 278 q 97 525 72 479 q 165 597 122 571 q 258 622 207 622 q 383 587 324 622 q 486 497 442 551 q 640 594 556 594 q 743 543 694 594 l 743 811 l -7 811 l -37 872 l -37 889 l 963 889 l 996 829 l 997 811 z "},"ळ":{"ha":1089,"x_min":-37,"x_max":1089,"o":"m 856 811 l 856 633 q 972 535 928 606 q 1015 367 1015 465 q 985 239 1015 293 q 908 156 956 185 q 810 128 861 128 q 669 172 735 128 q 557 269 604 215 q 463 145 515 186 q 332 104 410 104 q 205 140 264 104 q 111 237 146 175 q 76 371 76 299 q 109 513 76 453 q 193 605 142 574 q 297 636 244 636 q 393 615 347 636 q 469 570 439 594 q 553 499 500 546 q 642 612 594 575 q 761 650 690 649 l 761 811 l -7 811 l -37 872 l -37 889 l 1057 889 l 1089 829 l 1089 811 l 856 811 m 944 418 q 905 528 944 482 q 804 574 865 574 q 709 542 747 574 q 646 465 671 511 q 582 325 621 418 q 667 244 617 276 q 771 211 717 211 q 856 241 815 211 q 920 319 896 271 q 944 418 944 367 m 292 182 q 394 214 353 182 q 461 296 435 246 q 526 439 488 346 q 441 522 488 490 q 344 553 394 553 q 240 521 283 553 q 174 437 196 489 q 153 326 153 385 q 190 223 153 264 q 293 182 226 182 l 292 182 z "},"ऴ":{"ha":1089,"x_min":-37,"x_max":1089,"o":"m 856 811 l 856 633 q 972 535 928 606 q 1015 367 1015 465 q 985 239 1015 293 q 908 156 956 185 q 810 128 861 128 q 669 172 735 128 q 557 269 604 215 q 463 145 515 186 q 332 104 410 104 q 205 140 264 104 q 111 237 146 175 q 76 371 76 299 q 109 513 76 453 q 193 605 142 574 q 297 636 244 636 q 393 615 347 636 q 469 570 439 594 q 553 499 500 546 q 642 612 594 575 q 761 650 690 649 l 761 811 l -7 811 l -37 872 l -37 889 l 1057 889 l 1089 829 l 1089 811 l 856 811 m 944 418 q 905 528 944 482 q 804 574 865 574 q 709 542 747 574 q 646 465 671 511 q 582 325 621 418 q 667 244 617 276 q 771 211 717 211 q 856 241 815 211 q 920 319 896 271 q 944 418 944 367 m 292 182 q 394 214 353 182 q 461 296 435 246 q 526 439 488 346 q 441 522 488 490 q 344 553 394 553 q 240 521 283 553 q 174 437 196 489 q 153 326 153 385 q 190 223 153 264 q 293 182 226 182 l 292 182 m 564 93 l 657 1 l 565 -93 l 472 0 l 564 93 z "},"व":{"ha":894,"x_min":-37,"x_max":894,"o":"m 894 829 l 894 811 l 733 811 l 733 -39 l 717 -39 l 642 4 l 644 272 l 642 274 q 368 144 489 144 q 235 173 299 144 q 133 256 172 201 q 94 386 94 311 q 132 531 94 469 q 226 624 169 592 q 342 656 283 656 q 509 605 431 656 q 640 485 588 554 l 643 485 l 643 811 l -7 811 l -37 872 l -37 889 l 861 889 l 894 829 m 326 224 q 495 276 406 224 q 643 400 585 329 q 528 513 600 463 q 393 563 456 563 q 273 533 326 563 q 190 456 219 503 q 160 357 160 408 q 208 262 160 300 q 326 224 256 224 z "},"श":{"ha":996,"x_min":-37,"x_max":996,"o":"m 835 811 l 835 -39 l 817 -39 l 742 4 l 743 811 l 481 811 q 538 731 518 778 q 557 631 557 685 q 518 474 557 553 q 417 335 479 396 q 288 253 354 275 l 457 -3 l 381 -53 l 231 240 l 218 240 q 147 254 185 240 q 84 290 110 268 q 58 336 58 313 q 88 404 58 378 q 150 431 117 431 l 169 429 l 242 319 q 406 450 343 361 q 226 566 299 492 q 154 732 154 640 q 175 811 154 776 l -7 811 l -37 872 l -37 889 l 963 889 l 996 829 l 996 811 l 835 811 m 478 658 q 460 731 478 696 q 409 789 442 767 q 333 811 376 811 q 264 785 292 811 q 236 710 236 758 q 299 590 236 647 q 440 508 363 533 q 478 658 478 582 z "},"ष":{"ha":819,"x_min":-37,"x_max":818,"o":"m 818 829 l 818 811 l 658 811 l 658 -39 l 640 -39 l 567 4 l 567 281 l 564 281 q 465 226 510 246 q 369 206 419 206 q 193 290 288 206 q 145 352 161 321 q 129 428 129 383 l 129 811 l -6 811 l -37 872 l -37 889 l 786 889 l 818 829 m 222 811 l 567 454 l 567 811 l 222 811 m 354 292 q 458 319 404 292 q 563 386 513 346 l 222 740 l 222 426 q 260 325 222 357 q 353 293 299 293 l 354 292 z "},"स":{"ha":929,"x_min":-37,"x_max":928,"o":"m 928 829 l 928 811 l 768 811 l 768 -39 l 750 -39 l 675 4 l 675 335 l 672 335 q 528 301 606 301 q 408 329 460 301 q 308 394 356 357 l 306 394 q 231 313 279 354 l 507 -1 l 450 -44 l 182 278 q 113 369 129 343 q 96 433 96 396 q 117 484 96 460 q 160 521 138 508 l 231 461 q 260 531 249 490 q 271 615 271 572 q 265 715 271 657 q 251 811 260 772 l -7 811 l -37 872 l -37 889 l 896 889 l 928 829 m 503 388 q 676 440 601 388 l 676 813 l 332 813 q 349 689 342 758 q 356 567 356 619 q 333 444 356 500 q 501 386 415 386 l 503 388 z "},"ह":{"ha":772,"x_min":-37,"x_max":772,"o":"m 244 581 q 182 559 201 581 q 163 507 163 538 q 181 444 163 478 q 229 381 199 411 q 400 435 299 435 q 531 400 467 435 q 634 314 594 365 q 674 217 674 263 q 634 109 674 160 q 539 26 594 58 l 465 93 l 465 96 q 554 172 521 132 q 588 258 588 211 q 567 311 588 285 q 511 355 547 338 q 431 372 475 372 q 342 349 386 372 q 268 283 297 326 q 239 186 239 240 q 272 74 239 125 q 372 -28 306 22 q 551 -143 438 -78 l 525 -183 q 249 1 353 -93 q 146 217 146 94 q 189 339 146 283 q 117 442 147 385 q 86 544 86 500 q 215 663 86 663 l 497 663 l 497 811 l -7 811 l -37 872 l -37 889 l 739 889 l 772 829 l 772 811 l 590 811 l 590 582 l 244 582 l 244 581 z "},"क़":{"ha":1156,"x_min":-37,"x_max":1156,"o":"m 0 0 m 649 811 l 649 481 q 753 560 699 528 q 860 592 808 592 q 1022 520 965 592 q 1078 328 1078 449 q 1044 184 1078 268 q 976 53 1011 100 l 908 135 q 981 235 946 174 q 1017 358 1017 297 q 978 465 1017 422 q 885 508 939 508 q 773 473 831 508 q 649 371 715 438 l 649 -39 l 631 -39 l 554 4 l 560 286 l 558 288 q 479 225 511 247 q 405 187 447 203 q 311 171 363 171 q 194 199 247 171 q 108 279 140 226 q 76 407 76 332 q 103 516 76 465 q 180 598 131 567 q 292 629 229 629 q 443 585 379 629 q 558 471 507 540 l 560 811 l -7 811 l -37 872 l -37 889 l 1124 889 l 1156 829 l 1156 811 l 649 811 m 274 253 q 557 392 415 253 l 557 397 q 454 494 517 454 q 329 535 392 535 q 199 490 256 533 q 142 375 142 447 q 181 286 142 319 q 274 253 221 253 m 399 8 l 306 -87 l 213 7 l 306 100 l 399 8 z "},"ख़":{"ha":1144,"x_min":-37,"x_max":1156,"o":"m 0 0 m 1156 829 l 1156 811 l 986 811 l 986 -39 l 967 -39 l 892 4 l 894 107 q 751 42 835 69 q 596 15 668 15 q 190 263 417 15 q 114 360 136 322 q 92 433 92 397 q 112 485 92 461 q 154 521 132 510 l 225 461 q 255 531 244 489 q 265 615 265 572 q 260 715 265 658 q 247 811 256 771 l -6 811 l -37 872 l -37 889 l 1124 889 l 1156 829 m 225 313 q 390 162 293 232 q 594 92 488 92 q 749 123 667 92 q 894 204 831 154 l 893 356 q 778 272 825 300 q 674 243 731 243 q 558 272 610 243 q 476 349 506 300 q 447 454 447 397 q 508 611 447 551 q 663 671 569 671 q 789 638 731 671 q 890 558 847 604 l 893 558 l 893 811 l 326 811 q 344 683 338 754 q 350 565 350 613 q 318 421 350 476 q 226 313 286 365 l 225 313 m 893 472 q 802 555 857 525 q 692 585 747 585 q 600 563 642 585 q 534 503 558 540 q 510 421 510 465 q 544 351 510 381 q 638 322 579 322 q 769 366 699 322 q 892 472 839 410 l 892 474 l 893 472 m 278 1 l 185 -94 l 92 0 l 185 93 l 278 1 z "},"ग़":{"ha":832,"x_min":-37,"x_max":829,"o":"m 0 0 m 829 831 l 829 813 l 669 813 l 669 -37 l 651 -37 l 576 6 l 576 813 l 288 813 q 303 408 303 568 q 283 315 303 357 q 207 274 263 274 q 127 299 160 274 q 79 360 94 325 q 64 425 64 396 q 71 471 64 450 l 206 453 l 214 811 l -7 811 l -37 872 l -37 889 l 799 889 l 829 831 m 308 92 l 215 -4 l 122 90 l 215 183 l 308 92 z "},"ज़":{"ha":1007,"x_min":-37,"x_max":1006,"o":"m 0 0 m 1006 811 l 846 811 l 846 -39 l 828 -39 l 753 4 l 753 522 l 449 522 q 555 406 514 469 q 596 288 596 342 q 553 172 596 219 q 446 125 510 125 q 273 189 349 125 q 150 335 197 253 q 51 532 103 418 l 35 569 l 86 593 q 180 416 139 488 q 285 279 221 344 q 421 214 350 214 q 484 242 461 214 q 507 311 507 271 q 442 446 507 378 q 301 556 376 514 l 319 599 l 753 599 l 753 811 l -7 811 l -37 872 l -37 889 l 974 889 l 1006 829 l 1006 811 m 185 46 l 92 -50 l -1 44 l 92 138 l 185 46 z "},"ड़":{"ha":797,"x_min":-37,"x_max":797,"o":"m 0 0 m 797 829 l 797 811 l 643 811 l 643 564 l 325 564 q 221 451 221 564 q 244 391 221 419 q 294 363 268 363 q 358 369 325 363 q 436 390 390 376 q 517 412 483 404 q 583 419 550 419 q 656 385 619 419 q 714 301 692 351 q 736 204 736 250 q 677 54 736 113 q 513 -4 618 -4 q 282 53 392 -4 q 46 253 172 111 l 89 292 q 289 126 194 175 q 471 78 383 78 q 606 117 547 78 q 665 231 665 157 q 650 296 665 265 q 618 335 635 326 q 543 328 576 336 q 465 307 510 321 q 400 288 425 294 q 344 282 375 282 q 256 314 304 282 q 175 394 208 346 q 142 489 142 442 q 183 603 142 560 q 286 646 224 646 l 550 646 l 550 811 l -7 811 l -37 872 l -37 889 l 765 889 l 797 829 m 593 -181 l 500 -276 l 407 -182 l 500 -89 l 593 -181 z "},"ढ़":{"ha":765,"x_min":-37,"x_max":765,"o":"m 0 0 m 367 551 q 198 500 258 551 q 138 356 138 449 q 174 230 138 286 q 265 138 211 174 q 369 89 318 103 q 317 239 317 164 q 369 362 318 321 q 488 403 421 403 q 585 376 540 403 q 657 300 631 349 q 683 193 683 251 q 647 91 683 135 q 555 24 610 47 q 449 1 500 1 q 277 49 365 1 q 130 185 189 96 q 71 392 71 274 q 144 576 71 515 q 342 636 217 636 l 483 636 l 483 811 l -7 811 l -37 872 l -37 889 l 731 889 l 765 829 l 765 811 l 575 811 l 575 551 l 367 551 m 522 331 q 461 313 493 331 q 408 263 429 296 q 386 183 386 229 q 419 82 388 135 q 563 124 504 86 q 622 221 622 163 q 592 301 622 271 q 524 332 561 332 l 522 331 m 533 -171 l 440 -267 l 347 -172 l 440 -79 l 533 -171 z "},"फ़":{"ha":1129,"x_min":-37,"x_max":1129,"o":"m 0 0 m 626 811 l 626 506 q 732 587 681 556 q 838 618 783 618 q 999 547 942 618 q 1056 356 1056 476 q 1022 213 1056 297 q 954 81 989 129 l 883 161 q 957 263 921 200 q 993 385 993 325 q 954 492 993 449 q 861 536 915 536 q 749 499 801 536 q 626 392 696 461 l 626 -39 l 608 -39 l 532 4 l 532 310 l 528 310 q 445 270 485 285 q 357 256 406 256 q 274 274 313 256 q 194 332 235 292 q 146 394 163 361 q 129 472 129 428 l 129 811 l -7 811 l -37 872 l -37 889 l 1096 889 l 1129 829 l 1129 811 l 626 811 m 342 343 q 533 419 435 343 l 533 811 l 222 811 l 222 469 q 343 343 222 343 l 342 343 m 275 103 l 182 7 l 89 101 l 182 194 l 275 103 z "},"य़":{"ha":847,"x_min":-37,"x_max":847,"o":"m 0 0 m 847 811 l 689 811 l 689 -39 l 669 -39 l 594 4 l 599 249 l 593 251 q 374 168 475 168 q 192 243 267 168 q 75 451 118 318 q 213 524 151 474 q 275 636 275 575 q 244 718 275 678 q 157 811 214 758 l -7 811 l -37 872 l -37 889 l 817 889 l 847 829 l 847 811 m 332 254 q 476 290 403 254 q 596 375 549 325 l 597 811 l 242 811 l 242 810 q 331 706 297 754 q 365 607 365 658 q 301 478 365 536 q 171 390 238 421 q 219 296 174 338 q 332 254 265 254 m 194 93 l 101 -3 l 8 92 l 101 185 l 194 93 z "},"ॹ":{"ha":1007,"x_min":-37,"x_max":1006,"o":"m 1006 811 l 846 811 l 846 -39 l 828 -39 l 753 4 l 753 522 l 449 522 q 555 406 514 469 q 596 288 596 342 q 553 172 596 219 q 446 125 510 125 q 273 189 349 125 q 150 335 197 253 q 51 532 103 418 l 35 569 l 86 593 q 180 416 139 488 q 285 279 221 344 q 421 214 350 214 q 484 242 461 214 q 507 311 507 271 q 442 446 507 378 q 301 556 376 514 l 319 599 l 753 599 l 753 811 l -7 811 l -37 872 l -37 889 l 974 889 l 1006 829 l 1006 811 m 375 -36 l 278 -136 l 181 -37 l 276 60 l 375 -36 m 560 60 l 658 -36 l 561 -136 l 464 -37 l 560 60 m 419 -86 l 518 -182 l 421 -282 l 324 -183 l 419 -86 z "},"ॺ":{"ha":847,"x_min":-37,"x_max":847,"o":"m 847 829 l 847 811 l 689 811 l 689 -39 l 669 -39 l 594 4 l 599 249 l 593 251 q 374 168 475 168 q 192 243 267 168 q 75 451 118 318 q 213 524 151 474 q 275 636 275 575 q 244 718 275 678 q 157 811 214 758 l -7 811 l -37 872 l -37 889 l 817 889 l 847 829 m 242 810 q 304 743 283 768 l 596 407 l 597 811 l 242 811 l 242 810 m 331 254 q 461 284 394 254 q 576 357 528 314 l 365 600 q 298 476 361 532 q 171 390 235 419 q 219 296 174 338 q 332 254 265 254 l 331 254 z "},"ॻ":{"ha":832,"x_min":-37,"x_max":831,"o":"m 831 829 l 831 811 l 671 811 l 671 -49 l 74 -49 l 44 4 l 44 21 l 578 21 l 578 811 l 290 811 q 307 410 307 607 q 286 316 307 358 q 207 274 265 274 q 127 299 160 274 q 79 360 94 325 q 64 425 64 396 q 71 471 64 450 l 206 453 l 206 811 l -7 811 l -37 872 l -37 889 l 799 889 l 831 829 z "},"ॼ":{"ha":1007,"x_min":-37,"x_max":1006,"o":"m 1006 829 l 1006 811 l 846 811 l 846 -36 l 74 -36 l 44 17 l 44 33 l 753 33 l 754 522 l 449 522 q 554 407 513 469 q 596 288 596 344 q 552 172 596 219 q 444 125 508 125 q 272 189 347 125 q 150 335 197 253 q 51 532 103 418 l 35 569 l 85 593 q 178 417 136 490 q 285 279 221 344 q 421 214 350 214 q 484 242 461 214 q 507 311 507 271 q 442 446 507 378 q 301 556 376 514 l 319 599 l 754 599 l 754 811 l -7 811 l -37 872 l -37 889 l 974 889 l 1006 829 z "},"ॾ":{"ha":797,"x_min":-37,"x_max":797,"o":"m 797 829 l 797 811 l 643 811 l 643 564 l 325 564 q 221 451 221 564 q 244 391 221 419 q 294 363 268 363 q 358 369 325 363 q 436 390 390 376 q 517 412 483 404 q 583 419 550 419 q 656 385 619 419 q 714 301 692 351 q 736 204 736 250 q 677 54 736 113 q 513 -4 618 -4 q 282 53 392 -4 q 46 253 172 111 l 89 292 q 289 126 194 175 q 471 78 383 78 q 606 117 547 78 q 665 231 665 157 q 650 296 665 265 q 618 335 635 326 q 543 328 576 336 q 465 307 510 321 q 400 288 425 294 q 344 282 375 282 q 256 314 304 282 q 175 394 208 346 q 142 489 142 442 q 183 603 142 560 q 286 646 224 646 l 550 646 l 550 811 l -7 811 l -37 872 l -37 889 l 765 889 l 797 829 m 753 -189 l 753 -207 l 74 -207 l 46 -154 l 46 -139 l 724 -139 l 753 -189 z "},"ॿ":{"ha":900,"x_min":-37,"x_max":900,"o":"m 900 829 l 900 811 l 739 811 l 739 -49 l 74 -49 l 44 4 l 44 21 l 647 21 l 650 281 l 646 283 q 505 181 571 218 q 371 144 439 144 q 238 173 301 144 q 134 256 174 201 q 94 386 94 311 q 133 531 94 469 q 229 624 171 592 q 347 656 288 656 q 522 602 444 656 q 646 486 600 549 l 649 486 l 649 811 l -7 811 l -37 872 l -37 889 l 868 889 l 900 829 m 397 563 q 311 549 356 563 l 492 274 q 579 333 539 300 q 647 401 619 367 l 647 404 q 538 511 613 460 q 397 563 464 563 m 265 528 q 189 452 217 499 q 161 357 161 406 q 209 262 161 300 q 329 224 257 224 q 449 251 382 224 l 265 528 z "},"⁄":{"ha":586,"x_min":-10,"x_max":571,"o":"m 571 1256 l 64 -232 l -10 -218 l 499 1275 l 571 1256 z "},"½":{"ha":1772,"x_min":149,"x_max":1625,"o":"m 1117 1256 l 610 -232 l 536 -218 l 1044 1275 l 1117 1256 m 354 551 l 354 1032 q 160 981 224 994 l 149 1036 q 308 1102 211 1056 q 428 1169 406 1149 l 460 1158 l 458 551 l 642 536 l 642 488 l 163 488 l 163 536 l 354 551 m 981 65 q 1163 171 1060 104 q 1344 315 1265 238 q 1422 458 1422 393 q 1377 565 1422 531 q 1261 599 1332 599 q 1128 567 1197 599 q 1021 482 1060 535 l 976 532 q 1045 603 999 568 q 1154 660 1092 638 q 1285 683 1217 683 q 1439 653 1381 683 q 1521 580 1497 622 q 1544 497 1544 538 q 1435 278 1544 376 q 1115 69 1325 179 l 1490 89 l 1568 193 l 1625 168 l 1586 -1 l 1004 -1 l 981 65 z "},"¼":{"ha":1772,"x_min":149,"x_max":1644,"o":"m 1121 1251 l 614 -232 l 540 -210 l 1049 1275 l 1121 1251 m 354 551 l 354 1032 q 160 981 224 994 l 149 1036 q 308 1102 211 1056 q 428 1169 406 1149 l 460 1158 l 458 551 l 642 536 l 642 488 l 163 488 l 163 536 l 354 551 m 1372 761 l 1436 706 l 1081 246 l 1040 190 l 1347 210 l 1349 397 l 1447 411 l 1447 217 l 1640 229 l 1644 133 l 1447 133 l 1447 -121 l 1347 -121 l 1349 133 l 975 133 l 943 186 l 1335 760 l 1372 761 z "},"¾":{"ha":1776,"x_min":119,"x_max":1643,"o":"m 1124 1256 l 617 -232 l 543 -218 l 1051 1275 l 1124 1256 m 144 528 q 241 500 188 510 q 342 490 294 490 q 495 535 443 492 q 547 646 547 579 q 505 737 547 706 q 389 768 463 768 l 350 763 l 253 743 l 253 813 q 426 878 363 831 q 490 996 490 926 q 452 1066 490 1043 q 357 1089 414 1089 q 244 1069 307 1089 q 147 1022 181 1049 l 119 1075 q 244 1136 165 1110 q 394 1163 324 1163 q 547 1115 492 1163 q 601 999 601 1067 q 561 891 601 938 q 440 817 521 844 q 568 793 519 822 q 636 721 617 764 q 656 639 656 678 q 619 526 656 576 q 511 447 582 475 q 344 418 440 418 q 247 430 303 418 q 144 463 192 442 l 144 528 m 1372 761 l 1435 706 l 1081 246 l 1040 190 l 1347 210 l 1349 397 l 1447 411 l 1447 217 l 1640 229 l 1643 133 l 1447 133 l 1447 -121 l 1347 -121 l 1349 133 l 975 133 l 943 186 l 1335 760 l 1372 761 z "},"¹":{"ha":733,"x_min":133,"x_max":626,"o":"m 339 551 l 339 1032 q 144 981 218 997 l 133 1036 q 293 1102 196 1056 q 413 1169 390 1149 l 446 1158 l 443 551 l 626 536 l 626 488 l 147 488 l 147 536 l 339 551 z "},"²":{"ha":853,"x_min":96,"x_max":744,"o":"m 99 554 q 281 660 178 593 q 462 805 383 726 q 540 949 540 883 q 495 1053 540 1019 q 381 1088 450 1088 q 248 1056 317 1088 q 140 971 179 1024 l 96 1022 q 165 1092 118 1057 q 274 1149 211 1126 q 404 1172 336 1172 q 557 1142 499 1172 q 639 1071 615 1113 q 663 989 663 1029 q 553 768 663 868 q 233 558 444 668 l 610 578 l 688 682 l 744 657 l 706 489 l 124 489 l 99 554 z "},"³":{"ha":776,"x_min":131,"x_max":667,"o":"m 156 528 q 252 500 199 510 q 353 490 306 490 q 506 535 454 492 q 558 646 558 579 q 516 737 558 706 q 400 768 474 768 l 361 763 l 264 743 l 264 813 q 438 878 374 831 q 501 996 501 926 q 463 1066 501 1043 q 368 1089 425 1089 q 255 1069 318 1089 q 158 1022 192 1049 l 131 1075 q 256 1136 176 1110 q 406 1163 335 1163 q 558 1115 503 1163 q 613 999 613 1067 q 572 891 613 938 q 451 817 532 844 q 579 793 531 822 q 647 721 628 764 q 667 639 667 678 q 630 526 667 576 q 522 447 593 475 q 356 418 451 418 q 258 430 314 418 q 156 463 203 442 l 156 528 z "},"०":{"ha":876,"x_min":156,"x_max":722,"o":"m 156 386 q 199 534 156 463 q 312 649 243 606 q 449 693 381 693 q 583 654 521 693 q 684 546 646 615 q 722 389 722 476 q 677 234 722 307 q 564 118 632 161 q 429 75 496 75 q 289 117 351 75 q 191 229 226 158 q 156 386 156 300 m 247 432 q 283 288 247 349 q 369 194 318 226 q 463 163 419 163 q 543 185 504 163 q 606 248 582 208 q 629 336 629 288 q 599 469 629 407 q 518 569 568 532 q 415 606 468 606 q 333 583 372 606 q 271 521 294 561 q 247 432 247 481 z "},"१":{"ha":876,"x_min":210,"x_max":710,"o":"m 419 935 q 535 903 478 935 q 629 816 593 871 q 665 694 665 761 q 615 541 665 621 q 485 368 564 461 l 382 251 l 574 53 l 597 26 q 681 -74 654 -36 q 708 -144 708 -111 q 683 -206 710 -183 q 621 -229 657 -229 q 563 -208 586 -229 q 526 -157 539 -186 l 526 -154 l 600 -90 q 476 53 549 -21 q 289 233 403 126 l 258 263 l 258 264 l 440 468 q 322 543 368 510 q 243 623 276 576 q 210 728 210 669 q 238 833 210 786 q 315 908 267 881 q 419 935 363 935 m 449 861 q 349 814 390 861 q 307 703 307 767 q 361 601 307 653 q 482 522 415 550 q 548 633 524 579 q 572 729 572 688 q 537 821 572 781 q 449 861 501 861 z "},"२":{"ha":876,"x_min":142,"x_max":721,"o":"m 428 924 q 572 874 504 924 q 681 747 640 824 q 721 596 721 671 q 676 436 721 513 q 555 310 631 360 q 392 254 479 260 l 653 -140 l 560 -199 l 325 257 q 206 290 257 267 q 156 349 156 314 q 185 415 156 389 q 249 442 215 442 q 268 439 263 442 l 339 332 q 547 440 464 360 q 629 640 629 519 q 587 773 629 718 q 469 828 544 828 q 344 801 418 828 q 210 739 271 774 l 142 842 q 297 902 228 881 q 428 924 365 924 z "},"३":{"ha":876,"x_min":104,"x_max":789,"o":"m 785 314 q 731 189 785 254 q 592 80 678 124 q 413 36 506 36 l 482 -21 l 558 -168 l 457 -106 l 397 38 q 283 62 339 42 q 228 118 228 82 q 257 188 226 160 q 321 215 288 215 q 340 213 335 215 l 411 107 q 614 208 532 139 q 696 360 696 278 q 652 449 696 417 q 547 482 608 482 q 513 481 522 482 q 390 440 456 454 q 271 425 324 425 q 230 449 247 425 q 213 508 213 472 q 249 535 213 521 q 349 561 285 550 q 489 575 413 572 q 548 628 528 599 q 568 701 568 658 q 528 792 568 756 q 426 828 489 828 q 333 818 385 828 q 213 790 282 808 q 188 784 201 788 q 161 778 175 781 l 104 889 q 383 919 257 919 q 513 876 449 919 q 617 769 576 832 q 658 657 658 707 q 604 540 658 592 q 789 315 789 444 l 785 314 z "},"४":{"ha":876,"x_min":26,"x_max":838,"o":"m 503 524 q 665 351 615 418 q 714 225 714 283 q 675 125 714 168 q 576 60 636 82 q 457 38 517 38 q 340 64 397 38 q 245 139 282 90 q 208 251 208 188 q 249 377 208 314 q 390 543 289 440 q 124 750 297 628 l 26 821 l 85 889 l 168 818 q 435 588 360 656 q 532 681 485 638 q 793 939 685 831 l 838 832 q 743 747 778 778 q 646 659 725 731 q 503 524 567 588 m 415 113 q 504 135 461 113 q 574 196 547 158 q 600 278 600 233 q 568 357 600 313 q 474 463 536 401 l 458 478 q 328 322 363 375 q 294 218 294 268 q 330 144 294 175 q 415 113 365 113 z "},"५":{"ha":876,"x_min":168,"x_max":889,"o":"m 815 -200 l 611 229 q 528 181 572 199 q 442 163 483 163 q 313 191 376 163 q 209 273 250 219 q 168 396 168 326 q 210 628 168 486 q 308 900 251 771 l 404 822 q 253 365 253 507 q 288 274 253 315 q 374 233 324 233 q 464 258 411 233 q 567 325 517 283 l 506 450 q 582 472 536 472 q 670 447 632 472 q 708 381 708 421 q 656 269 708 329 l 889 -162 l 815 -200 z "},"६":{"ha":876,"x_min":68,"x_max":861,"o":"m 374 918 q 435 915 407 918 l 486 818 q 417 825 449 825 q 222 791 288 825 q 156 658 156 757 q 194 566 156 608 q 278 506 232 524 q 408 562 335 542 q 542 582 482 582 q 581 558 564 582 q 599 497 599 533 q 563 471 599 485 q 469 447 528 457 q 347 435 411 436 q 254 292 254 381 q 281 210 254 250 q 351 146 308 171 q 438 121 393 121 q 611 158 513 121 l 565 243 q 646 268 604 268 q 713 249 685 268 q 742 196 742 229 q 692 103 742 146 l 861 -151 l 796 -183 l 656 76 q 479 31 575 31 q 336 80 410 31 q 214 201 263 129 q 165 336 165 274 q 229 469 165 410 q 114 575 160 511 q 68 703 68 639 q 149 862 68 806 q 374 918 229 918 z "},"७":{"ha":876,"x_min":50,"x_max":833,"o":"m 110 915 q 204 450 139 629 q 351 193 269 271 q 517 115 432 115 q 702 203 644 115 q 764 431 760 290 q 696 394 728 406 q 628 382 664 382 q 527 401 575 382 q 444 456 479 421 q 377 551 399 497 q 356 675 356 604 q 383 773 356 726 q 455 849 411 819 q 544 878 499 878 q 647 856 604 878 q 726 789 690 835 q 806 622 779 728 q 833 411 833 517 q 790 202 833 289 q 678 71 747 115 q 536 26 610 26 q 307 130 408 26 q 140 429 206 233 q 50 897 74 625 l 110 915 m 596 794 q 485 744 529 794 q 440 625 440 694 q 478 510 440 556 q 594 465 515 465 q 678 485 632 465 q 757 540 724 506 q 697 724 742 653 q 596 794 653 794 z "},"८":{"ha":876,"x_min":110,"x_max":792,"o":"m 688 890 l 388 551 q 237 349 275 424 q 199 208 199 274 q 221 133 199 174 q 286 65 243 93 q 389 36 329 36 q 542 90 464 36 q 714 240 619 144 l 792 165 q 604 17 689 58 q 421 -25 519 -25 q 266 13 338 -25 q 152 115 194 51 q 110 249 110 178 q 139 375 110 307 q 251 538 168 443 l 653 996 l 688 890 z "},"९":{"ha":876,"x_min":71,"x_max":835,"o":"m 307 953 q 424 916 363 953 q 528 819 486 879 q 569 692 569 760 q 533 583 569 633 q 438 501 497 533 q 313 460 378 469 q 697 92 528 258 q 797 -18 761 31 q 833 -104 833 -67 q 808 -165 835 -143 q 744 -187 782 -187 q 687 -167 711 -187 q 650 -117 663 -146 l 650 -114 l 725 -50 q 540 153 669 26 q 224 447 410 279 q 102 585 133 529 q 71 722 71 642 q 101 836 71 783 q 185 921 132 889 q 307 953 239 953 m 356 867 q 252 840 297 867 q 183 770 207 813 q 158 685 158 728 q 174 606 158 643 q 224 528 189 568 q 352 569 294 536 q 443 644 410 601 q 476 726 476 688 q 443 826 476 785 q 356 867 410 867 z "},"*":{"ha":882,"x_min":113,"x_max":771,"o":"m 421 840 l 378 797 l 169 638 l 113 718 l 347 843 l 406 867 l 347 892 l 113 1015 l 167 1094 l 374 939 l 421 894 l 408 971 l 388 1210 l 489 1210 l 469 971 l 453 894 l 514 946 l 708 1093 l 769 1015 l 535 896 l 468 867 l 533 842 l 771 717 l 707 639 l 503 797 l 454 840 l 468 771 l 489 522 l 388 522 l 408 771 l 421 840 z "},"\\":{"ha":551,"x_min":21,"x_max":511,"o":"m 511 -246 l 406 -246 l 21 1085 l 125 1085 l 511 -246 z "},"·":{"ha":454,"x_min":157,"x_max":301,"o":"m 238 646 q 286 628 271 646 q 301 582 301 610 q 278 526 301 549 q 224 504 254 504 q 176 522 196 504 q 157 568 157 539 q 182 624 157 601 q 238 646 207 646 z "},"•":{"ha":565,"x_min":169,"x_max":400,"o":"m 278 371 q 201 404 233 371 q 169 485 169 438 q 204 576 169 539 q 288 614 239 614 q 367 578 335 614 q 399 492 400 542 q 359 406 394 442 q 278 371 324 371 z "},":":{"ha":472,"x_min":156,"x_max":300,"o":"m 239 689 q 285 670 271 688 q 300 626 300 653 q 276 568 300 590 q 222 546 253 546 q 175 563 194 546 q 156 610 156 581 q 181 667 156 644 q 239 689 207 689 m 236 133 q 285 115 269 133 q 300 71 300 97 q 274 11 300 33 q 217 -10 249 -11 q 173 10 190 -7 q 156 54 156 26 q 181 110 156 88 q 236 133 206 133 z "},",":{"ha":461,"x_min":113,"x_max":346,"o":"m 204 185 q 309 106 274 169 q 344 -22 344 42 q 283 -208 346 -128 q 139 -322 221 -287 l 113 -287 l 113 -274 q 175 -231 144 -262 q 224 -156 206 -200 q 243 -65 243 -111 q 213 35 243 -8 q 146 83 183 79 l 146 108 l 204 185 z "},"…":{"ha":1415,"x_min":149,"x_max":1246,"o":"m 232 136 q 286 117 268 136 q 304 68 304 97 q 278 8 304 32 q 219 -15 253 -15 q 169 4 190 -15 q 149 56 149 24 q 174 113 149 90 q 232 136 200 136 m 704 136 q 757 117 739 136 q 775 68 775 97 q 749 8 775 32 q 690 -15 724 -15 q 642 4 663 -15 q 621 56 621 24 q 647 113 621 89 q 704 136 672 136 m 1175 136 q 1228 117 1210 136 q 1246 68 1246 97 q 1221 8 1246 32 q 1163 -15 1196 -15 q 1113 4 1133 -15 q 1092 56 1092 24 q 1118 113 1092 89 q 1175 136 1144 136 z "},"!":{"ha":471,"x_min":157,"x_max":313,"o":"m 257 314 l 192 314 l 160 1207 l 294 1207 l 257 314 m 242 138 q 294 117 276 138 q 313 68 313 97 q 287 9 313 32 q 228 -14 261 -14 q 178 6 199 -14 q 157 56 157 25 q 183 114 157 90 q 242 138 210 138 z "},"¡":{"ha":475,"x_min":160,"x_max":311,"o":"m 246 971 q 296 951 281 971 q 308 901 311 931 q 283 847 307 868 q 226 828 258 826 q 183 847 201 831 q 165 893 165 864 q 190 949 165 926 q 246 971 215 971 m 294 -271 l 160 -271 l 196 643 l 263 643 l 294 -271 z "},"#":{"ha":967,"x_min":104,"x_max":861,"o":"m 104 249 l 104 319 l 258 319 l 283 624 l 119 624 l 119 693 l 288 693 l 306 919 l 399 919 l 382 693 l 621 693 l 640 919 l 732 919 l 714 693 l 861 693 l 861 624 l 711 624 l 685 319 l 838 319 l 839 249 l 682 249 l 661 0 l 572 0 l 590 249 l 349 249 l 326 0 l 235 0 l 256 249 l 104 249 m 617 624 l 376 624 l 351 319 l 592 319 l 617 624 z "},".":{"ha":472,"x_min":156,"x_max":300,"o":"m 235 133 q 284 115 268 133 q 300 69 300 97 q 276 11 300 33 q 221 -11 253 -11 q 175 7 194 -11 q 156 53 156 25 q 181 110 156 86 q 235 133 206 133 z "},"?":{"ha":682,"x_min":92,"x_max":629,"o":"m 219 1243 q 453 1184 361 1243 q 586 1035 544 1125 q 629 854 628 946 q 625 797 629 817 q 605 759 621 776 q 554 721 589 742 q 454 668 524 701 q 345 607 381 632 q 310 549 310 582 q 323 469 310 508 q 363 365 336 429 q 378 328 367 353 l 325 328 q 275 389 303 344 q 227 483 247 433 q 207 565 207 532 q 255 634 208 604 q 392 704 301 664 q 501 758 471 739 q 533 784 524 772 q 540 811 542 796 q 495 978 542 901 q 370 1101 449 1056 q 206 1146 292 1146 q 144 1142 178 1146 q 92 1129 111 1138 l 93 1213 q 142 1233 104 1224 q 219 1243 179 1243 m 378 133 q 426 115 410 133 q 442 69 442 97 q 418 11 442 33 q 363 -11 394 -11 q 317 7 336 -11 q 297 53 297 25 q 322 110 297 88 q 378 133 347 133 z "},"¿":{"ha":682,"x_min":57,"x_max":594,"o":"m 314 971 q 362 953 346 971 q 378 907 378 935 q 354 849 378 871 q 299 826 331 826 q 253 844 272 826 q 233 890 233 863 q 258 948 233 925 q 314 971 283 971 m 361 631 q 410 569 382 614 q 459 476 439 525 q 479 394 479 426 q 432 326 478 357 q 297 257 386 296 q 234 228 265 243 q 185 200 203 213 q 153 173 161 185 q 144 143 144 161 q 192 -22 144 54 q 316 -142 239 -97 q 478 -186 393 -186 q 541 -182 507 -186 q 594 -171 575 -178 l 593 -253 q 545 -274 583 -265 q 467 -283 507 -283 q 233 -224 325 -283 q 100 -76 142 -165 q 57 106 58 14 q 61 163 57 143 q 81 199 65 182 q 132 239 97 217 q 231 290 161 257 q 341 351 306 326 q 376 411 376 376 q 362 497 376 453 q 319 601 347 540 l 307 631 l 361 631 z "},"\"":{"ha":854,"x_min":221,"x_max":635,"o":"m 344 1208 l 318 657 l 247 657 l 221 1208 l 344 1208 m 635 1208 l 608 657 l 538 657 l 511 1208 l 635 1208 z "},"'":{"ha":564,"x_min":221,"x_max":344,"o":"m 344 1208 l 318 657 l 247 657 l 221 1208 l 344 1208 z "},";":{"ha":469,"x_min":126,"x_max":360,"o":"m 233 689 q 281 671 265 689 q 297 625 297 653 q 274 567 297 589 q 218 546 250 546 q 172 563 192 546 q 153 610 153 581 q 178 666 153 643 q 233 689 203 689 m 218 185 q 323 106 288 169 q 358 -22 358 43 q 297 -208 360 -128 q 151 -322 235 -287 l 126 -287 l 126 -274 q 189 -231 158 -262 q 238 -156 219 -200 q 257 -65 257 -111 q 227 35 257 -8 q 160 83 197 79 l 160 108 l 218 185 z "},"/":{"ha":551,"x_min":21,"x_max":511,"o":"m 511 1085 l 125 -246 l 21 -246 l 406 1085 l 511 1085 z "},"_":{"ha":960,"x_min":-14,"x_max":974,"o":"m 974 -212 l -14 -212 l -14 -131 l 974 -131 l 974 -212 z "},"{":{"ha":688,"x_min":57,"x_max":518,"o":"m 235 393 q 178 446 235 417 q 57 493 122 475 l 57 561 q 178 603 122 578 q 235 653 235 629 l 235 1004 q 243 1105 235 1072 q 275 1151 251 1138 q 349 1164 299 1164 q 419 1159 389 1164 q 477 1148 450 1154 q 518 1139 504 1142 l 517 1090 l 321 1090 l 321 658 q 301 606 321 628 q 254 569 282 585 q 165 526 226 554 q 282 460 243 490 q 321 390 321 431 l 321 -46 l 517 -46 l 518 -96 q 430 -114 468 -108 q 342 -119 392 -119 q 272 -107 294 -119 q 242 -62 250 -94 q 235 39 235 -29 l 235 393 z "},"}":{"ha":638,"x_min":119,"x_max":581,"o":"m 317 390 q 357 463 317 432 q 471 526 397 493 q 410 556 461 532 q 338 605 358 581 q 317 658 317 629 l 317 1090 l 121 1090 l 119 1139 q 160 1149 129 1142 q 223 1160 192 1157 q 289 1164 254 1164 q 363 1151 339 1164 q 394 1105 386 1138 q 403 1004 403 1072 l 403 653 q 459 603 403 629 q 581 561 515 578 l 581 493 q 459 445 515 474 q 403 393 403 417 l 403 39 q 395 -61 403 -29 q 365 -106 388 -93 q 294 -119 342 -119 q 208 -114 244 -119 q 119 -96 171 -108 l 121 -46 l 317 -46 l 317 390 z "},"[":{"ha":558,"x_min":132,"x_max":414,"o":"m 132 1007 q 140 1106 132 1074 q 170 1150 147 1138 q 242 1163 193 1163 q 324 1157 288 1163 q 414 1140 360 1151 l 414 1092 l 218 1092 l 218 -49 l 414 -49 l 414 -97 q 320 -117 356 -111 q 236 -122 285 -122 q 170 -110 192 -122 q 140 -67 149 -97 q 132 25 132 -36 l 132 1007 z "},"]":{"ha":560,"x_min":146,"x_max":428,"o":"m 342 1092 l 146 1092 l 146 1140 q 235 1157 200 1151 q 317 1163 271 1163 q 388 1150 365 1163 q 419 1106 411 1138 q 428 1007 428 1074 l 428 25 q 419 -67 428 -36 q 390 -110 411 -97 q 324 -122 368 -122 q 240 -117 276 -122 q 146 -97 203 -111 l 146 -49 l 342 -49 l 342 1092 z "},"(":{"ha":536,"x_min":74,"x_max":449,"o":"m 393 -206 q 274 -97 346 -176 q 138 134 201 -18 q 74 496 74 286 q 138 826 74 678 q 281 1065 203 975 q 396 1175 358 1156 l 444 1147 q 342 1041 407 1124 q 225 817 278 958 q 172 496 172 676 q 225 167 172 311 q 342 -61 278 24 q 449 -172 407 -146 l 393 -206 z "},")":{"ha":536,"x_min":86,"x_max":461,"o":"m 92 -174 q 194 -66 129 -150 q 311 160 258 18 q 364 485 364 303 q 310 808 364 667 q 192 1033 257 950 q 86 1146 128 1117 l 143 1179 q 261 1070 189 1150 q 397 839 333 990 q 461 478 461 688 q 397 148 461 296 q 256 -90 333 0 q 140 -201 179 -181 l 92 -174 z "},"—":{"ha":1626,"x_min":118,"x_max":1507,"o":"m 1507 579 l 1507 499 l 118 499 l 118 579 l 1507 579 z "},"–":{"ha":935,"x_min":118,"x_max":817,"o":"m 817 579 l 817 499 l 118 499 l 118 579 l 817 579 z "},"-":{"ha":832,"x_min":118,"x_max":713,"o":"m 713 579 l 713 499 l 118 499 l 118 579 l 713 579 z "},"­":{"ha":826,"x_min":118,"x_max":713,"o":"m 118 499 m 713 579 l 713 499 l 118 499 l 118 579 l 713 579 z "},"«":{"ha":1267,"x_min":168,"x_max":1097,"o":"m 600 724 l 628 675 l 264 417 l 628 167 l 600 117 l 168 372 l 168 458 l 600 724 m 1068 724 l 1097 675 l 732 417 l 1097 167 l 1068 117 l 635 372 l 635 458 l 1068 724 z "},"»":{"ha":1267,"x_min":172,"x_max":1099,"o":"m 536 422 l 172 672 l 201 724 l 632 469 l 632 381 l 201 117 l 172 164 l 536 422 m 639 672 l 668 724 l 1099 469 l 1099 381 l 668 117 l 639 164 l 1003 422 l 639 672 z "},"‹":{"ha":800,"x_min":168,"x_max":628,"o":"m 600 724 l 628 675 l 264 417 l 628 167 l 600 117 l 168 372 l 168 458 l 600 724 z "},"›":{"ha":800,"x_min":172,"x_max":632,"o":"m 536 422 l 172 672 l 201 724 l 632 469 l 632 381 l 201 117 l 172 164 l 536 422 z "},"„":{"ha":881,"x_min":157,"x_max":757,"o":"m 243 158 q 348 79 313 142 q 385 -47 383 17 q 324 -230 385 -151 q 181 -343 263 -308 l 157 -310 l 157 -294 q 246 -218 207 -278 q 285 -89 285 -158 q 256 10 285 -33 q 188 60 226 54 l 188 85 l 243 158 m 617 158 q 721 80 686 142 q 757 -47 756 18 q 696 -230 757 -151 q 553 -343 635 -308 l 529 -310 l 529 -294 q 618 -218 579 -278 q 657 -89 657 -158 q 628 11 657 -32 q 560 60 599 54 l 560 85 l 617 158 z "},"“":{"ha":864,"x_min":139,"x_max":718,"o":"m 279 656 q 174 735 210 672 q 139 861 139 797 q 200 1045 139 967 q 343 1157 261 1124 l 367 1125 l 367 1108 q 277 1032 317 1092 q 238 904 238 972 q 267 805 238 849 q 335 756 296 761 l 335 731 l 279 656 m 631 656 q 526 736 561 672 q 490 864 490 800 q 551 1045 490 968 q 694 1157 613 1122 l 718 1125 l 718 1108 q 629 1033 668 1092 q 590 904 590 974 q 619 804 590 847 q 686 756 647 761 l 686 731 l 631 656 z "},"”":{"ha":882,"x_min":146,"x_max":743,"o":"m 146 718 q 235 794 196 735 q 274 922 274 853 q 244 1022 274 978 q 178 1071 215 1065 l 178 1096 l 233 1169 q 338 1090 303 1153 q 374 961 374 1026 q 313 781 374 858 q 169 668 251 703 l 146 701 l 146 718 m 515 718 q 604 794 565 735 q 643 922 643 853 q 615 1022 643 979 q 547 1071 586 1065 l 547 1096 l 603 1169 q 708 1090 674 1153 q 743 961 743 1026 q 682 781 743 858 q 539 668 621 703 l 515 701 l 515 718 z "},"‘":{"ha":514,"x_min":140,"x_max":368,"o":"m 281 656 q 176 736 211 672 q 140 864 140 800 q 201 1045 140 968 q 343 1157 263 1122 l 368 1125 l 368 1108 q 278 1033 318 1092 q 239 904 239 974 q 268 804 239 847 q 336 756 297 761 l 336 731 l 281 656 z "},"’":{"ha":514,"x_min":133,"x_max":361,"o":"m 133 717 q 223 793 185 733 q 261 922 261 853 q 232 1022 261 978 q 165 1069 203 1065 l 165 1096 l 221 1169 q 324 1090 289 1153 q 361 964 360 1028 q 300 781 361 860 q 157 668 239 703 l 133 701 l 133 717 z "},"‚":{"ha":506,"x_min":133,"x_max":361,"o":"m 221 157 q 300 110 268 146 q 347 31 332 75 q 361 -51 361 -12 q 299 -235 361 -156 q 157 -347 238 -314 l 133 -314 l 133 -299 q 222 -222 183 -282 q 261 -90 261 -161 q 232 9 261 -35 q 165 57 203 53 l 165 82 l 221 157 z "},"ॽ":{"ha":753,"x_min":142,"x_max":635,"o":"m 349 917 q 478 869 411 917 q 590 745 546 821 q 635 590 635 669 q 595 475 635 525 q 501 399 556 425 q 354 353 444 371 l 354 -39 l 338 -39 l 263 4 l 263 431 l 274 449 q 458 494 397 458 q 533 555 504 522 q 561 638 561 588 q 533 726 561 682 q 463 799 504 771 q 386 828 422 828 q 192 742 297 828 l 142 836 q 247 889 178 861 q 349 917 315 917 z "},"।":{"ha":682,"x_min":375,"x_max":468,"o":"m 468 874 l 468 -39 l 450 -39 l 375 4 l 375 915 l 393 915 l 468 874 z "},"॥":{"ha":1049,"x_min":375,"x_max":835,"o":"m 468 874 l 468 -39 l 450 -39 l 375 4 l 375 915 l 393 915 l 468 874 m 835 874 l 835 -39 l 817 -39 l 742 4 l 742 915 l 760 915 l 835 874 z "},"॰":{"ha":621,"x_min":100,"x_max":519,"o":"m 100 385 q 135 494 100 443 q 222 574 171 544 q 317 604 274 604 q 415 578 368 604 q 490 503 461 553 q 519 388 519 454 q 483 272 519 322 q 395 192 446 221 q 304 164 344 164 q 204 192 251 164 q 128 270 157 219 q 100 385 100 321 m 183 417 q 207 326 183 365 q 265 267 231 288 q 326 246 299 246 q 403 276 368 246 q 439 354 439 306 q 417 436 439 397 q 363 499 396 475 q 297 524 329 524 q 219 494 254 524 q 183 417 183 465 z "},"ॱ":{"ha":413,"x_min":100,"x_max":285,"o":"m 285 847 l 193 753 l 100 846 l 192 940 l 285 847 z "}," ":{"ha":1389,"x_min":0,"x_max":0,"o":""}," ":{"ha":1389,"x_min":0,"x_max":0,"o":""}," ":{"ha":694,"x_min":0,"x_max":0,"o":""}," ":{"ha":694,"x_min":0,"x_max":0,"o":""}," ":{"ha":874,"x_min":0,"x_max":0,"o":""}," ":{"ha":347,"x_min":0,"x_max":0,"o":""}," ":{"ha":139,"x_min":0,"x_max":0,"o":""}," ":{"ha":490,"x_min":0,"x_max":0,"o":""}," ":{"ha":232,"x_min":0,"x_max":0,"o":""}," ":{"ha":325,"x_min":0,"x_max":0,"o":""}," ":{"ha":278,"x_min":0,"x_max":0,"o":""}," ":{"ha":463,"x_min":0,"x_max":0,"o":""},"‍":{"ha":0,"x_min":0,"x_max":0,"o":""},"‌":{"ha":0,"x_min":0,"x_max":0,"o":""},"":{"ha":0,"x_min":0,"x_max":0,"o":""},"¢":{"ha":749,"x_min":89,"x_max":663,"o":"m 349 -8 q 156 116 224 13 q 89 374 89 219 q 131 570 89 483 q 245 710 172 657 q 410 775 318 763 l 421 924 l 490 924 l 481 779 q 575 769 532 778 q 640 746 618 760 l 640 596 l 590 596 l 561 679 q 506 703 539 696 q 440 711 474 711 q 313 678 371 711 q 220 580 256 646 q 185 418 185 514 q 222 216 183 296 q 320 100 260 136 q 444 64 381 64 q 555 77 496 64 q 643 110 614 90 l 663 58 q 561 8 628 26 q 419 -14 494 -11 l 413 -146 l 343 -146 l 349 -8 z "},"¤":{"ha":969,"x_min":161,"x_max":807,"o":"m 326 669 q 479 721 396 721 q 568 706 525 721 q 644 661 611 690 l 761 778 l 807 732 l 688 611 q 733 468 733 547 q 681 314 733 381 l 800 196 l 753 149 l 635 268 q 479 215 564 215 q 329 264 397 215 l 210 146 l 164 192 l 281 308 q 226 468 226 375 q 279 624 226 558 l 161 743 l 207 789 l 326 669 m 479 651 q 392 627 432 651 q 328 560 351 603 q 304 468 304 518 q 328 376 304 418 q 392 309 351 333 q 479 285 432 285 q 567 309 526 285 q 631 376 607 333 q 654 468 654 418 q 631 560 654 518 q 567 627 607 603 q 479 651 526 651 z "},"$":{"ha":854,"x_min":122,"x_max":771,"o":"m 172 246 l 208 113 q 311 58 247 75 q 444 42 375 42 q 605 90 536 42 q 674 236 674 139 q 638 340 674 294 q 549 420 601 386 q 406 503 496 454 q 265 585 322 547 q 169 678 208 624 q 131 803 131 733 q 212 981 131 918 q 403 1058 293 1044 l 408 1171 l 497 1171 l 493 1061 q 708 1010 633 1054 l 708 829 l 661 829 l 617 960 q 440 1006 565 1006 q 344 986 393 1006 q 260 924 294 967 q 226 815 226 882 q 288 690 226 742 q 468 579 350 638 q 624 492 564 531 q 728 397 685 453 q 771 267 771 340 q 684 63 771 132 q 460 -14 597 -7 l 454 -156 l 365 -156 l 369 -12 q 218 9 289 -7 q 122 42 147 25 l 122 246 l 172 246 z "},"€":{"ha":919,"x_min":-36,"x_max":843,"o":"m 564 1061 q 710 1047 646 1061 q 842 1013 774 1033 l 832 832 l 786 832 l 756 943 q 526 996 679 996 q 327 918 407 996 q 218 692 247 840 l 629 692 l 629 618 l 208 618 q 203 531 203 579 q 206 461 203 486 l 610 461 l 610 388 l 211 388 q 308 133 232 226 q 528 39 383 39 q 670 56 614 39 q 775 111 726 72 q 796 222 785 178 l 843 222 l 843 43 q 782 26 833 42 q 655 -7 718 6 q 501 -19 592 -19 q 226 90 326 -19 q 103 388 125 199 l -36 388 l -36 461 l 97 461 l 97 493 q 106 618 97 558 l -15 618 l -15 692 l 119 692 q 281 964 164 867 q 564 1061 397 1061 z "},"ƒ":{"ha":726,"x_min":126,"x_max":678,"o":"m 126 676 l 129 721 l 288 754 l 292 815 q 349 985 300 911 q 463 1100 397 1060 q 586 1140 529 1140 q 678 1129 658 1140 l 671 1033 q 631 1047 663 1040 q 554 1053 599 1053 q 480 1040 511 1053 q 427 984 449 1026 q 400 861 406 942 l 390 753 l 607 753 l 600 676 l 385 676 l 315 -242 l 211 -242 l 281 676 l 126 676 z "},"₹":{"ha":876,"x_min":192,"x_max":797,"o":"m 764 808 l 488 808 q 558 688 544 754 l 796 688 l 796 671 l 764 608 l 561 608 q 317 375 540 447 l 654 10 l 575 -46 l 285 290 q 240 356 254 324 q 224 410 226 388 l 231 415 q 317 449 265 424 q 414 515 369 474 q 465 608 458 556 l 192 608 l 192 626 l 224 688 l 454 688 q 360 810 428 749 l 193 810 l 193 828 l 225 889 l 797 889 l 797 872 l 764 808 z "},"£":{"ha":969,"x_min":67,"x_max":911,"o":"m 619 1060 q 722 1049 679 1061 q 800 1008 764 1038 l 746 906 q 718 933 743 913 q 653 972 693 954 q 564 990 613 990 q 443 919 490 989 q 396 671 396 850 l 396 592 l 633 592 l 633 508 l 397 508 l 397 471 q 387 312 397 375 q 358 206 376 249 q 307 111 339 164 q 426 78 342 110 q 554 40 507 49 q 631 33 600 33 q 767 81 726 33 q 807 197 807 128 q 754 308 807 269 l 806 406 q 907 253 888 367 q 911 207 911 215 q 856 53 911 121 q 656 -22 800 -15 q 607 -24 639 -24 q 469 -7 529 -24 q 339 38 410 10 q 280 59 297 54 q 249 61 263 64 q 190 2 222 25 q 122 -21 157 -21 q 84 -10 101 -21 q 67 35 67 1 q 90 80 67 57 q 153 117 113 103 q 247 129 194 132 q 281 219 268 158 q 294 335 294 281 l 294 508 l 164 508 l 164 592 l 294 592 l 294 672 q 335 865 294 776 q 450 1007 376 954 q 619 1060 524 1060 z "},"¥":{"ha":944,"x_min":19,"x_max":924,"o":"m 421 65 l 421 268 l 121 268 l 121 342 l 421 342 l 421 465 l 424 510 l 121 510 l 121 583 l 386 583 l 111 988 l 19 999 l 19 1053 l 339 1053 l 339 999 l 231 988 l 443 660 l 479 583 l 496 583 l 540 665 q 689 914 572 724 q 735 989 735 989 l 632 999 l 632 1053 l 924 1053 l 924 999 l 828 981 l 565 583 l 814 583 l 814 510 l 524 510 l 525 463 l 525 342 l 814 342 l 814 268 l 525 268 l 525 65 l 663 49 l 663 0 l 289 0 l 289 49 l 421 65 z "},"≈":{"ha":858,"x_min":100,"x_max":751,"o":"m 100 661 q 194 748 135 714 q 325 782 254 782 q 390 765 363 782 q 456 715 418 749 q 507 674 486 688 q 553 661 528 661 q 633 683 597 661 q 700 736 668 704 l 742 685 q 646 599 706 633 q 515 564 586 564 q 449 581 478 564 q 386 631 421 599 q 333 672 353 660 q 289 685 314 685 q 209 663 244 685 q 142 610 174 642 l 100 661 m 111 411 q 206 498 146 464 q 336 532 265 532 q 402 515 374 532 q 467 467 431 499 q 518 426 497 439 q 564 413 539 413 q 644 433 608 413 q 711 486 679 454 l 751 436 q 657 349 717 383 q 526 314 597 314 q 460 331 489 314 q 396 382 432 349 q 344 423 365 410 q 300 436 324 436 q 221 415 256 436 q 153 360 186 393 l 111 411 z "},"~":{"ha":849,"x_min":103,"x_max":744,"o":"m 103 589 q 197 676 138 642 q 328 711 256 711 q 393 694 365 711 q 457 644 421 678 q 508 603 488 617 q 554 590 529 590 q 701 665 629 590 l 744 614 q 649 526 708 561 q 518 492 589 492 q 451 510 481 492 q 388 560 421 528 q 335 601 356 588 q 290 614 314 614 q 211 592 246 614 q 144 538 176 571 l 103 589 z "},"÷":{"ha":856,"x_min":118,"x_max":738,"o":"m 433 867 q 488 847 469 867 q 506 797 506 828 q 480 738 506 761 q 421 715 454 715 q 371 734 392 715 q 350 785 350 753 q 376 843 350 819 q 433 867 403 867 m 738 499 l 118 499 l 118 579 l 738 579 l 738 499 m 435 356 q 486 335 471 356 q 499 285 501 314 q 473 230 497 250 q 415 211 449 210 q 373 231 390 214 q 356 276 356 249 q 381 333 356 310 q 435 356 406 356 z "},"=":{"ha":832,"x_min":118,"x_max":713,"o":"m 713 706 l 713 624 l 118 624 l 118 706 l 713 706 m 713 447 l 713 367 l 118 367 l 118 447 l 713 447 z "},">":{"ha":894,"x_min":151,"x_max":808,"o":"m 721 508 l 151 790 l 151 890 l 808 549 l 808 468 l 151 126 l 151 228 l 721 508 z "},"≥":{"ha":893,"x_min":118,"x_max":776,"o":"m 647 663 l 118 885 l 118 979 l 775 688 l 775 640 l 118 344 l 118 439 l 647 663 m 776 206 l 776 124 l 118 124 l 118 206 l 776 206 z "},"∆":{"ha":1200,"x_min":-3,"x_max":1153,"o":"m 593 1017 l 1153 -97 l 1082 -4 l -3 0 l 99 17 l 622 1132 l 593 1017 m 557 858 l 188 58 l 954 58 l 557 858 z "},"∞":{"ha":1156,"x_min":74,"x_max":1074,"o":"m 847 658 q 1017 591 960 658 q 1074 426 1074 524 q 1040 298 1074 354 q 951 210 1007 242 q 828 178 894 178 q 691 225 751 178 q 560 358 631 272 q 481 261 514 297 q 407 201 449 225 q 314 178 365 178 q 183 210 238 178 q 101 296 128 243 q 74 410 74 349 q 108 538 74 482 q 198 626 142 594 q 321 658 254 658 q 459 610 397 658 q 589 476 521 561 q 717 612 658 565 q 847 658 775 658 m 307 596 q 206 549 240 596 q 171 429 172 503 q 214 294 171 350 q 326 239 257 239 q 428 282 382 239 q 531 401 475 325 l 506 436 q 403 555 447 514 q 307 596 360 596 m 836 590 q 726 547 781 590 q 618 433 672 503 q 696 333 664 371 q 770 264 728 294 q 854 233 813 233 q 949 281 921 233 q 978 407 978 329 q 941 538 978 485 q 836 590 904 590 z "},"∫":{"ha":707,"x_min":-4,"x_max":683,"o":"m 511 1154 q 610 1135 560 1154 q 683 1064 661 1115 l 607 1013 q 565 1063 600 1040 q 490 1085 531 1085 q 392 1059 426 1085 q 346 984 358 1033 q 333 853 333 935 q 347 669 333 763 q 386 435 360 576 q 426 202 413 293 q 439 24 439 111 q 406 -144 439 -67 q 312 -267 374 -221 q 168 -312 250 -312 q 69 -293 119 -312 q -4 -221 18 -274 l 72 -171 q 114 -221 79 -199 q 189 -243 149 -243 q 287 -217 253 -243 q 333 -142 321 -192 q 346 -8 346 -92 q 333 170 346 79 q 293 400 319 261 q 253 635 267 542 q 240 818 240 728 q 273 984 240 907 q 367 1108 306 1061 q 511 1154 429 1154 z "},"<":{"ha":894,"x_min":86,"x_max":743,"o":"m 743 889 l 743 789 l 172 508 l 743 226 l 743 126 l 86 468 l 86 547 l 743 889 z "},"≤":{"ha":893,"x_min":118,"x_max":776,"o":"m 775 979 l 775 885 l 244 663 l 775 439 l 775 344 l 118 640 l 118 688 l 775 979 m 776 206 l 776 124 l 118 124 l 118 206 l 776 206 z "},"¬":{"ha":819,"x_min":118,"x_max":701,"o":"m 701 579 l 701 224 l 614 224 l 614 507 l 118 507 l 118 579 l 701 579 z "},"−":{"ha":832,"x_min":118,"x_max":713,"o":"m 713 579 l 713 499 l 118 499 l 118 579 l 713 579 z "}}}
